{
.appVersion = "1286";
copyright = "Copyright 2014 The Comic Neue Angular Project Authors (https://github.com/crozynski/comicneue)";
customParameters = (
{
name = note;
value = "";
},
{
name = macintoshFONDName;
value = "Comic Neue Angular";
},
{
name = license;
value = "Licensed under the SIL Open Font License. Version 1.1.";
},
{
name = licenseURL;
value = "http://scripts.sil.org/OFL";
},
{
name = preferredFamilyName;
value = "Comic Neue Angular";
},
{
name = uniqueID;
value = "2.003;;Comic Neue Angular Light";
},
{
name = versionString;
value = "Version 2.003";
},
{
name = codePageRanges;
value = (
1252,
1250
);
},
{
name = openTypeOS2FamilyClass;
value = (
0,
0
);
},
{
name = openTypeOS2Panose;
value = (
2,
0,
0,
0,
0,
0,
0,
0,
0,
0
);
},
{
name = strikeoutPosition;
value = 300;
},
{
name = strikeoutSize;
value = 50;
},
{
name = openTypeOS2SubscriptXOffset;
value = 0;
},
{
name = openTypeOS2SubscriptXSize;
value = 650;
},
{
name = openTypeOS2SubscriptYOffset;
value = 75;
},
{
name = openTypeOS2SubscriptYSize;
value = 600;
},
{
name = openTypeOS2SuperscriptXOffset;
value = 0;
},
{
name = openTypeOS2SuperscriptXSize;
value = 650;
},
{
name = openTypeOS2SuperscriptYOffset;
value = 350;
},
{
name = openTypeOS2SuperscriptYSize;
value = 600;
},
{
name = fsType;
value = (
);
},
{
name = unicodeRanges;
value = (
0,
1,
2
);
},
{
name = vendorID;
value = "    ";
},
{
name = blueFuzz;
value = 1;
},
{
name = blueScale;
value = 0.03963;
},
{
name = blueShift;
value = 7;
},
{
name = postscriptForceBold;
value = 0;
},
{
name = trademark;
value = "-";
}
);
date = "2020-03-11 04:00:58 +0000";
designer = "Craig Rozynski";
designerURL = "http://www.craigrozynski.com";
disablesNiceNames = 1;
familyName = "Comic Neue Angular";
featurePrefixes = (
{
code = "languagesystem DFLT dflt;\012languagesystem latn dflt;\012";
name = Languagesystems;
},
{

glyphs = (
{
glyphname = A;
layers = (
{
layerId = master01;
paths = (
{
closed = 1;
nodes = (
"568 29 LINE",
"538 7 LINE",
"451 271 LINE",
"164 211 LINE",
"87 4 LINE",
"54 22 LINE",
"120 201 LINE",
"72 191 LINE",
"64 227 LINE",
"137 241 LINE",
"296 668 LINE",
"355 679 LINE"
);
},
{
closed = 1;
nodes = (
"439 304 LINE",
"327 646 LINE",
"180 251 LINE"
);
}
);
width = 613;
}
);
unicode = 0041;
},
{
glyphname = Aacute;
layers = (
{
layerId = master01;
paths = (
{
closed = 1;
nodes = (
"378 896 LINE",
"415 864 LINE",
"264 760 LINE",
"240 784 LINE"
);
},
{
closed = 1;
nodes = (
"568 29 LINE",
"538 7 LINE",
"451 271 LINE",
"164 211 LINE",
"87 4 LINE",
"54 22 LINE",
"120 201 LINE",
"72 191 LINE",
"64 227 LINE",
"137 241 LINE",
"296 668 LINE",
"355 679 LINE"
);
},
{
closed = 1;
nodes = (
"439 304 LINE",
"327 646 LINE",
"180 251 LINE"
);
}
);
width = 613;
}
);
unicode = 00C1;
},
{
glyphname = Abreve;
layers = (
{
layerId = master01;
paths = (
{
closed = 1;
nodes = (
"568 29 LINE",
"538 7 LINE",
"451 271 LINE",
"164 211 LINE",
"87 4 LINE",
"54 22 LINE",
"120 201 LINE",
"72 191 LINE",
"64 227 LINE",
"137 241 LINE",
"296 668 LINE",
"355 679 LINE"
);
},
{
closed = 1;
nodes = (
"439 304 LINE",
"327 646 LINE",
"180 251 LINE"
);
},
{
closed = 1;
nodes = (
"386 788 OFFCURVE",
"434 813 OFFCURVE",
"454 862 CURVE",
"472 845 LINE",
"451 796 OFFCURVE",
"394 761 OFFCURVE",
"335 761 CURVE SMOOTH",
"269 761 OFFCURVE",
"215 793 OFFCURVE",
"190 841 CURVE",
"206 858 LINE",
"244 800 OFFCURVE",
"294 788 OFFCURVE",
"333 788 CURVE SMOOTH"
);
}
);
userData = {
com.fontlab.hintData = {
hhints = (
{
position = 761;
width = 27;
}
);
};
};
width = 613;
}
);
unicode = 0102;
},
{
glyphname = Acircumflex;
layers = (
{
layerId = master01;
paths = (
{
closed = 1;
nodes = (
"195 771 LINE",
"335 884 LINE",
"454 771 LINE",
"431 745 LINE",
"332 833 LINE",
"217 743 LINE"
);
},
{
closed = 1;
nodes = (
"568 29 LINE",
"538 7 LINE",
"451 271 LINE",
"164 211 LINE",
"87 4 LINE",
"54 22 LINE",
"120 201 LINE",
"72 191 LINE",
"64 227 LINE",
"137 241 LINE",
"296 668 LINE",
"355 679 LINE"
);
},
{
closed = 1;
nodes = (
"439 304 LINE",
"327 646 LINE",
"180 251 LINE"
);
}
);
width = 613;
}
);
unicode = 00C2;
},
{
glyphname = Adieresis;
layers = (
{
layerId = master01;
paths = (
{
closed = 1;
nodes = (
"568 29 LINE",
"538 7 LINE",
"451 271 LINE",
"164 211 LINE",
"87 4 LINE",
"54 22 LINE",
"120 201 LINE",
"72 191 LINE",
"64 227 LINE",
"137 241 LINE",
"296 668 LINE",
"355 679 LINE"
);
},
{
closed = 1;
nodes = (
"439 304 LINE",
"327 646 LINE",
"180 251 LINE"
);
},
{
closed = 1;
nodes = (
"273 758 LINE",
"219 750 LINE",
"225 814 LINE",
"280 822 LINE"
);
},
{
closed = 1;
nodes = (
"438 758 LINE",
"385 750 LINE",
"391 814 LINE",
"446 822 LINE"
);
}
);
width = 613;
}
);
unicode = 00C4;
},
{
glyphname = Agrave;
layers = (
{
layerId = master01;
paths = (
{
closed = 1;
nodes = (
"373 750 LINE",
"245 879 LINE",
"286 904 LINE",
"402 770 LINE"
);
},
{
closed = 1;
nodes = (
"568 29 LINE",
"538 7 LINE",
"451 271 LINE",
"164 211 LINE",
"87 4 LINE",
"54 22 LINE",
"120 201 LINE",
"72 191 LINE",
"64 227 LINE",
"137 241 LINE",
"296 668 LINE",
"355 679 LINE"
);
},
{
closed = 1;
nodes = (
"439 304 LINE",
"327 646 LINE",
"180 251 LINE"
);
}
);
width = 613;
}
);
unicode = 00C0;
},
{
glyphname = Aogonek;
layers = (
{
layerId = master01;
paths = (
{
closed = 1;
nodes = (
"451 271 LINE",
"164 211 LINE",
"87 4 LINE",
"54 22 LINE",
"120 201 LINE",
"72 191 LINE",
"64 227 LINE",
"137 241 LINE",
"296 668 LINE",
"355 679 LINE",
"573 14 LINE",
"533 -15 LINE SMOOTH",
"505 -36 OFFCURVE",
"467 -63 OFFCURVE",
"467 -113 CURVE SMOOTH",
"467 -152 OFFCURVE",
"497 -177 OFFCURVE",
"535 -177 CURVE SMOOTH",
"570 -177 OFFCURVE",
"586 -166 OFFCURVE",
"610 -149 CURVE",
"627 -172 LINE",
"609 -191 OFFCURVE",
"572 -209 OFFCURVE",
"535 -209 CURVE SMOOTH",
"478 -209 OFFCURVE",
"436 -168 OFFCURVE",
"436 -112 CURVE SMOOTH",
"436 -52 OFFCURVE",
"490 -2 OFFCURVE",
"533 22 CURVE"
);
},
{
closed = 1;
nodes = (
"439 304 LINE",
"327 646 LINE",
"180 251 LINE"
);
}
);
userData = {
com.fontlab.hintData = {
hhints = (
{
position = -209;
width = 32;
}
);
vhints = (
{
position = 436;
width = 31;
}
);
};
};
width = 627;
}
);
unicode = 0104;
},
{
glyphname = Aring;
layers = (
{
layerId = master01;
paths = (
{
closed = 1;
nodes = (
"249 743 OFFCURVE",
"205 786 OFFCURVE",
"205 838 CURVE SMOOTH",
"205 897 OFFCURVE",
"262 948 OFFCURVE",
"332 948 CURVE SMOOTH",
"398 948 OFFCURVE",
"439 900 OFFCURVE",
"439 853 CURVE SMOOTH",
"439 783 OFFCURVE",
"371 743 OFFCURVE",
"312 743 CURVE SMOOTH"
);
},
{
closed = 1;
nodes = (
"289 923 OFFCURVE",
"230 890 OFFCURVE",
"230 838 CURVE SMOOTH",
"230 797 OFFCURVE",
"265 767 OFFCURVE",
"314 767 CURVE SMOOTH",
"362 767 OFFCURVE",
"413 804 OFFCURVE",
"413 850 CURVE SMOOTH",
"413 891 OFFCURVE",
"377 923 OFFCURVE",
"329 923 CURVE SMOOTH"
);
},
{
closed = 1;
nodes = (
"568 29 LINE",
"538 7 LINE",
"451 271 LINE",
"164 211 LINE",
"87 4 LINE",
"54 22 LINE",
"120 201 LINE",
"72 191 LINE",
"64 227 LINE",
"137 241 LINE",
"296 668 LINE",
"355 679 LINE"
);
},
{
closed = 1;
nodes = (
"439 304 LINE",
"327 646 LINE",
"180 251 LINE"
);
}
);
userData = {
com.fontlab.hintData = {
hhints = (
{
position = 743;
width = 24;
},
{
position = 923;
width = 25;
}
);
vhints = (
{
position = 205;
width = 25;
},
{
position = 413;
width = 26;
}
);
};
};
width = 613;
}
);
unicode = 00C5;
},
{
glyphname = Atilde;
layers = (
{
layerId = master01;
paths = (
{
closed = 1;
nodes = (
"568 29 LINE",
"538 7 LINE",
"451 271 LINE",
"164 211 LINE",
"87 4 LINE",
"54 22 LINE",
"120 201 LINE",
"72 191 LINE",
"64 227 LINE",
"137 241 LINE",
"296 668 LINE",
"355 679 LINE"
);
},
{
closed = 1;
nodes = (
"439 304 LINE",
"327 646 LINE",
"180 251 LINE"
);
},
{
closed = 1;
nodes = (
"359 781 OFFCURVE",
"370 774 OFFCURVE",
"391 774 CURVE SMOOTH",
"429 774 OFFCURVE",
"453 821 OFFCURVE",
"464 855 CURVE",
"495 845 LINE",
"478 789 OFFCURVE",
"435 743 OFFCURVE",
"391 743 CURVE SMOOTH",
"350 743 OFFCURVE",
"327 774 OFFCURVE",
"308 801 CURVE SMOOTH",
"282 838 OFFCURVE",
"271 844 OFFCURVE",
"251 844 CURVE SMOOTH",
"217 844 OFFCURVE",
"191 802 OFFCURVE",
"181 771 CURVE",
"151 781 LINE",
"167 825 OFFCURVE",
"199 876 OFFCURVE",
"251 876 CURVE SMOOTH",
"293 876 OFFCURVE",
"315 845 OFFCURVE",
"333 820 CURVE SMOOTH"
);
}
);
userData = {
com.fontlab.hintData = {
hhints = (
{
position = 743;
width = 31;
},
{
position = 844;
width = 32;
}
);
vhints = (
{
position = 464;
width = 31;
}
);
};
};
width = 613;
}
);
unicode = 00C3;
},
{
glyphname = AE;
layers = (
{
layerId = master01;
paths = (
{
closed = 1;
nodes = (
"993 37 LINE",
"978 0 LINE",
"516 0 LINE",
"516 318 LINE",
"271 268 LINE",
"85 3 LINE",
"54 21 LINE",
"222 260 LINE",
"166 246 LINE",
"159 280 LINE",
"252 300 LINE",
"521 681 LINE",
"989 681 LINE",
"981 644 LINE",
"553 644 LINE",
"553 373 LINE",
"945 373 LINE",
"934 336 LINE",
"553 336 LINE",
"553 37 LINE"
);
},
{
closed = 1;
nodes = (
"516 611 LINE",
"302 310 LINE",
"516 354 LINE"
);
}
);
userData = {
com.fontlab.hintData = {
hhints = (
{
position = 0;
width = 37;
},
{
position = 336;
width = 37;
},
{
position = 644;
width = 37;
}
);
vhints = (
{
position = 516;
width = 37;
}
);
};
};
width = 1039;
}
);
unicode = 00C6;
},
{
glyphname = B;
layers = (
{
layerId = master01;
paths = (
{
closed = 1;
nodes = (
"348.549 364.029 OFFCURVE",
"350.096 364.043 OFFCURVE",
"351.639 364.043 CURVE SMOOTH",
"457.678 364.043 OFFCURVE",
"549 296.608 OFFCURVE",
"549 201 CURVE SMOOTH",
"549 22 OFFCURVE",
"253 0 OFFCURVE",
"126 0 CURVE SMOOTH",
"68 0 LINE",
"68 681 LINE",
"275 681 LINE SMOOTH",
"408 681 OFFCURVE",
"487 616 OFFCURVE",
"487 509 CURVE SMOOTH",
"487 452 OFFCURVE",
"464 388 OFFCURVE",
"347 364 CURVE"
);
},
{
closed = 1;
nodes = (
"103 35 LINE",
"109.871 34.695 OFFCURVE",
"118.087 34.517 OFFCURVE",
"127.405 34.517 CURVE SMOOTH",
"240.139 34.517 OFFCURVE",
"514 60.451 OFFCURVE",
"514 199 CURVE SMOOTH",
"514 319 OFFCURVE",
"381 342 OFFCURVE",
"303 342 CURVE SMOOTH",
"103 342 LINE"
);
},
{
closed = 1;
nodes = (
"103 376 LINE",
"257 376 LINE SMOOTH",
"342 376 OFFCURVE",
"452 403 OFFCURVE",
"452 509 CURVE SMOOTH",
"452 573 OFFCURVE",
"421 646 OFFCURVE",
"275 646 CURVE SMOOTH",
"103 646 LINE"
);
}
);
userData = {
com.fontlab.hintData = {
hhints = (
{
position = 0;
width = 35;
},
{
position = 342;
width = 34;
},
{
position = 342;
width = 22;
},
{
position = 646;
width = 35;
}
);
vhints = (
{
position = 68;
width = 35;
},
{
position = 452;
width = 35;
},
{
position = 514;
width = 35;
}
);
};
};
width = 592;
}
);
unicode = 0042;
},
{
glyphname = C;
layers = (
{
layerId = master01;
paths = (
{
closed = 1;
nodes = (
"181 -1 OFFCURVE",
"53 125 OFFCURVE",
"53 290 CURVE SMOOTH",
"53 451 OFFCURVE",
"171 681 OFFCURVE",
"347 681 CURVE SMOOTH",
"401 681 OFFCURVE",
"458 661 OFFCURVE",
"508 623 CURVE",
"508 657 LINE",
"535 657 LINE",
"535 555 LINE",
"508 555 LINE",
"508 575 LINE",
"479 609 OFFCURVE",
"428 647 OFFCURVE",
"341 647 CURVE SMOOTH",
"199 647 OFFCURVE",
"86 433 OFFCURVE",
"86 292 CURVE SMOOTH",
"86 150 OFFCURVE",
"196 33 OFFCURVE",
"334 33 CURVE SMOOTH",
"433 33 OFFCURVE",
"508 70 OFFCURVE",
"552 147 CURVE",
"575 124 LINE",
"525 45 OFFCURVE",
"435 -1 OFFCURVE",
"334 -1 CURVE SMOOTH"
);
}
);
userData = {
com.fontlab.hintData = {
hhints = (
{
position = -1;
width = 34;
},
{
position = 647;
width = 34;
}
);
vhints = (
{
position = 53;
width = 33;
},
{
position = 508;
width = 27;
}
);
};
};
width = 621;
}
);
unicode = 0043;
},
{
glyphname = Cacute;
layers = (
{
layerId = master01;
paths = (
{
closed = 1;
nodes = (
"404 896 LINE",
"442 864 LINE",
"291 760 LINE",
"266 784 LINE"
);
},
{
closed = 1;
nodes = (
"181 -1 OFFCURVE",
"53 125 OFFCURVE",
"53 290 CURVE SMOOTH",
"53 451 OFFCURVE",
"171 681 OFFCURVE",
"347 681 CURVE SMOOTH",
"401 681 OFFCURVE",
"458 661 OFFCURVE",
"508 623 CURVE",
"508 657 LINE",
"535 657 LINE",
"535 555 LINE",
"508 555 LINE",
"508 575 LINE",
"479 609 OFFCURVE",
"428 647 OFFCURVE",
"341 647 CURVE SMOOTH",
"199 647 OFFCURVE",
"86 433 OFFCURVE",
"86 292 CURVE SMOOTH",
"86 150 OFFCURVE",
"196 33 OFFCURVE",
"334 33 CURVE SMOOTH",
"433 33 OFFCURVE",
"508 70 OFFCURVE",
"552 147 CURVE",
"575 124 LINE",
"525 45 OFFCURVE",
"435 -1 OFFCURVE",
"334 -1 CURVE SMOOTH"
);
}
);
userData = {
com.fontlab.hintData = {
hhints = (
{
position = -1;
width = 34;
},
{
position = 647;
width = 34;
}
);
vhints = (
{
position = 53;
width = 33;
},
{
position = 508;
width = 27;
}
);
};
};
width = 621;
}
);
unicode = 0106;
},
{
glyphname = Ccaron;
layers = (
{
layerId = master01;
paths = (
{
closed = 1;
nodes = (
"481 854 LINE",
"340 743 LINE",
"221 855 LINE",
"245 883 LINE",
"343 792 LINE",
"459 884 LINE"
);
},
{
closed = 1;
nodes = (
"181 -1 OFFCURVE",
"53 125 OFFCURVE",
"53 290 CURVE SMOOTH",
"53 451 OFFCURVE",
"171 681 OFFCURVE",
"347 681 CURVE SMOOTH",
"401 681 OFFCURVE",
"458 661 OFFCURVE",
"508 623 CURVE",
"508 657 LINE",
"535 657 LINE",
"535 555 LINE",
"508 555 LINE",
"508 575 LINE",
"479 609 OFFCURVE",
"428 647 OFFCURVE",
"341 647 CURVE SMOOTH",
"199 647 OFFCURVE",
"86 433 OFFCURVE",
"86 292 CURVE SMOOTH",
"86 150 OFFCURVE",
"196 33 OFFCURVE",
"334 33 CURVE SMOOTH",
"433 33 OFFCURVE",
"508 70 OFFCURVE",
"552 147 CURVE",
"575 124 LINE",
"525 45 OFFCURVE",
"435 -1 OFFCURVE",
"334 -1 CURVE SMOOTH"
);
}
);
userData = {
com.fontlab.hintData = {
hhints = (
{
position = -1;
width = 34;
},
{
position = 647;
width = 34;
}
);
vhints = (
{
position = 53;
width = 33;
},
{
position = 508;
width = 27;
}
);
};
};
width = 621;
}
);
unicode = 010C;
},
{
glyphname = Ccedilla;
layers = (
{
layerId = master01;
paths = (
{
closed = 1;
nodes = (
"379 -184 OFFCURVE",
"403 -158 OFFCURVE",
"403 -124 CURVE SMOOTH",
"403 -90 OFFCURVE",
"379 -63 OFFCURVE",
"345 -63 CURVE SMOOTH",
"334 -63 OFFCURVE",
"322 -67 OFFCURVE",
"314 -71 CURVE",
"293 -52 LINE",
"311 -1 LINE",
"166 16 OFFCURVE",
"53 137 OFFCURVE",
"53 290 CURVE SMOOTH",
"53 451 OFFCURVE",
"171 681 OFFCURVE",
"347 681 CURVE SMOOTH",
"401 681 OFFCURVE",
"458 661 OFFCURVE",
"508 623 CURVE",
"508 657 LINE",
"535 657 LINE",
"535 555 LINE",
"508 555 LINE",
"508 575 LINE",
"479 609 OFFCURVE",
"428 647 OFFCURVE",
"341 647 CURVE SMOOTH",
"199 647 OFFCURVE",
"86 433 OFFCURVE",
"86 292 CURVE SMOOTH",
"86 150 OFFCURVE",
"196 33 OFFCURVE",
"334 33 CURVE SMOOTH",
"433 33 OFFCURVE",
"497 68 OFFCURVE",
"552 147 CURVE",
"575 124 LINE",
"525 47 OFFCURVE",
"428 -1 OFFCURVE",
"323 -1 CURVE",
"323 -40 LINE",
"337 -40 LINE SMOOTH",
"389 -40 OFFCURVE",
"428 -73 OFFCURVE",
"428 -124 CURVE SMOOTH",
"428 -170 OFFCURVE",
"391 -207 OFFCURVE",
"345 -207 CURVE SMOOTH",
"321 -207 OFFCURVE",
"299 -198 OFFCURVE",
"284 -182 CURVE",
"300 -166 LINE",
"312 -175 OFFCURVE",
"325 -184 OFFCURVE",
"345 -184 CURVE SMOOTH"
);
}
);
userData = {
com.fontlab.hintData = {
hhints = (
{
position = -207;
width = 23;
},
{
position = -63;
width = 23;
},
{
position = -1;
width = 34;
},
{
position = 647;
width = 34;
}
);
vhints = (
{
position = 53;
width = 33;
},
{
position = 403;
width = 25;
},
{
position = 508;
width = 27;
}
);
};
};
width = 621;
}
);
unicode = 00C7;
},
{
glyphname = Ccircumflex;
layers = (
{
layerId = master01;
paths = (
{
closed = 1;
nodes = (
"181 -1 OFFCURVE",
"53 125 OFFCURVE",
"53 290 CURVE SMOOTH",
"53 451 OFFCURVE",
"171 681 OFFCURVE",
"347 681 CURVE SMOOTH",
"401 681 OFFCURVE",
"458 661 OFFCURVE",
"508 623 CURVE",
"508 657 LINE",
"535 657 LINE",
"535 555 LINE",
"508 555 LINE",
"508 575 LINE",
"479 609 OFFCURVE",
"428 647 OFFCURVE",
"341 647 CURVE SMOOTH",
"199 647 OFFCURVE",
"86 433 OFFCURVE",
"86 292 CURVE SMOOTH",
"86 150 OFFCURVE",
"196 33 OFFCURVE",
"334 33 CURVE SMOOTH",
"433 33 OFFCURVE",
"508 70 OFFCURVE",
"552 147 CURVE",
"575 124 LINE",
"525 45 OFFCURVE",
"435 -1 OFFCURVE",
"334 -1 CURVE SMOOTH"
);
},
{
closed = 1;
nodes = (
"215 771 LINE",
"355 884 LINE",
"474 771 LINE",
"451 745 LINE",
"352 833 LINE",
"237 743 LINE"
);
}
);
userData = {
com.fontlab.hintData = {
hhints = (
{
position = -1;
width = 34;
},
{
position = 647;
width = 34;
}
);
vhints = (
{
position = 53;
width = 33;
},
{
position = 508;
width = 27;
}
);
};
};
width = 621;
}
);
unicode = 0108;
},
{
glyphname = D;
layers = (
{
layerId = master01;
paths = (
{
closed = 1;
nodes = (
"68 680 LINE",
"84 680 LINE SMOOTH",
"204 680 OFFCURVE",
"291 656 OFFCURVE",
"352 627 CURVE SMOOTH",
"483 566 OFFCURVE",
"553 452 OFFCURVE",
"553 300 CURVE SMOOTH",
"553 98 OFFCURVE",
"427 -15 OFFCURVE",
"204 -15 CURVE SMOOTH",
"170 -15 OFFCURVE",
"109 -10 OFFCURVE",
"68 -1 CURVE"
);
},
{
closed = 1;
nodes = (
"103 27 LINE",
"125 23 OFFCURVE",
"162 20 OFFCURVE",
"204 20 CURVE SMOOTH",
"261 20 OFFCURVE",
"344 29 OFFCURVE",
"410 70 CURVE",
"481 116 OFFCURVE",
"518 194 OFFCURVE",
"518 300 CURVE SMOOTH",
"518 439 OFFCURVE",
"457 538 OFFCURVE",
"335 595 CURVE",
"250 636 OFFCURVE",
"149 645 OFFCURVE",
"103 646 CURVE"
);
}
);
userData = {
com.fontlab.hintData = {
hhints = (
{
position = -15;
width = 35;
},
{
position = 646;
width = 34;
}
);
vhints = (
{
position = 68;
width = 35;
},
{
position = 518;
width = 35;
}
);
};
};
width = 606;
}
);
unicode = 0044;
},
{
glyphname = Eth;
layers = (
{
layerId = master01;
paths = (
{
closed = 1;
nodes = (
"130 300 LINE",
"30 300 LINE",
"37 340 LINE",
"130 340 LINE",
"130 680 LINE",
"147 680 LINE SMOOTH",
"266 680 OFFCURVE",
"354 656 OFFCURVE",
"414 627 CURVE SMOOTH",
"545 566 OFFCURVE",
"615 452 OFFCURVE",
"615 300 CURVE SMOOTH",
"615 98 OFFCURVE",
"490 -15 OFFCURVE",
"266 -15 CURVE SMOOTH",
"232 -15 OFFCURVE",
"171 -10 OFFCURVE",
"130 -1 CURVE"
);
},
{
closed = 1;
nodes = (
"165 340 LINE",
"276 340 LINE",
"269 300 LINE",
"165 300 LINE",
"165 27 LINE",
"188 23 OFFCURVE",
"225 20 OFFCURVE",
"266 20 CURVE SMOOTH",
"324 20 OFFCURVE",
"406 29 OFFCURVE",
"472 70 CURVE",
"543 116 OFFCURVE",
"580 194 OFFCURVE",
"580 300 CURVE SMOOTH",
"580 439 OFFCURVE",
"520 538 OFFCURVE",
"398 595 CURVE SMOOTH",
"312 636 OFFCURVE",
"212 645 OFFCURVE",
"165 646 CURVE"
);
}
);
userData = {
com.fontlab.hintData = {
hhints = (
{
position = -15;
width = 35;
},
{
position = 300;
width = 40;
},
{
position = 646;
width = 34;
}
);
vhints = (
{
position = 130;
width = 35;
},
{
position = 580;
width = 35;
}
);
};
};
width = 666;
}
);
unicode = 00D0;
},
{
glyphname = Dcaron;
layers = (
{
layerId = master01;
paths = (
{
closed = 1;
nodes = (
"406 854 LINE",
"265 743 LINE",
"147 855 LINE",
"171 883 LINE",
"268 792 LINE",
"384 884 LINE"
);
},
{
closed = 1;
nodes = (
"68 680 LINE",
"84 680 LINE SMOOTH",
"204 680 OFFCURVE",
"291 656 OFFCURVE",
"352 627 CURVE SMOOTH",
"483 566 OFFCURVE",
"553 452 OFFCURVE",
"553 300 CURVE SMOOTH",
"553 98 OFFCURVE",
"427 -15 OFFCURVE",
"204 -15 CURVE SMOOTH",
"170 -15 OFFCURVE",
"109 -10 OFFCURVE",
"68 -1 CURVE"
);
},
{
closed = 1;
nodes = (
"103 27 LINE",
"125 23 OFFCURVE",
"162 20 OFFCURVE",
"204 20 CURVE SMOOTH",
"261 20 OFFCURVE",
"344 29 OFFCURVE",
"410 70 CURVE",
"481 116 OFFCURVE",
"518 194 OFFCURVE",
"518 300 CURVE SMOOTH",
"518 439 OFFCURVE",
"457 538 OFFCURVE",
"335 595 CURVE",
"250 636 OFFCURVE",
"149 645 OFFCURVE",
"103 646 CURVE"
);
}
);
userData = {
com.fontlab.hintData = {
hhints = (
{
position = -15;
width = 35;
},
{
position = 646;
width = 34;
}
);
vhints = (
{
position = 68;
width = 35;
},
{
position = 518;
width = 35;
}
);
};
};
width = 606;
}
);
unicode = 010E;
},
{
glyphname = Dcroat;
layers = (
{
layerId = master01;
paths = (
{
closed = 1;
nodes = (
"130 300 LINE",
"30 300 LINE",
"37 340 LINE",
"130 340 LINE",
"130 680 LINE",
"147 680 LINE SMOOTH",
"266 680 OFFCURVE",
"354 656 OFFCURVE",
"414 627 CURVE SMOOTH",
"545 566 OFFCURVE",
"615 452 OFFCURVE",
"615 300 CURVE SMOOTH",
"615 98 OFFCURVE",
"490 -15 OFFCURVE",
"266 -15 CURVE SMOOTH",
"232 -15 OFFCURVE",
"171 -10 OFFCURVE",
"130 -1 CURVE"
);
},
{
closed = 1;
nodes = (
"165 340 LINE",
"276 340 LINE",
"269 300 LINE",
"165 300 LINE",
"165 27 LINE",
"188 23 OFFCURVE",
"225 20 OFFCURVE",
"266 20 CURVE SMOOTH",
"324 20 OFFCURVE",
"406 29 OFFCURVE",
"472 70 CURVE",
"543 116 OFFCURVE",
"580 194 OFFCURVE",
"580 300 CURVE SMOOTH",
"580 439 OFFCURVE",
"520 538 OFFCURVE",
"398 595 CURVE SMOOTH",
"312 636 OFFCURVE",
"212 645 OFFCURVE",
"165 646 CURVE"
);
}
);
userData = {
com.fontlab.hintData = {
hhints = (
{
position = -15;
width = 35;
},
{
position = 300;
width = 40;
},
{
position = 646;
width = 34;
}
);
vhints = (
{
position = 130;
width = 35;
},
{
position = 580;
width = 35;
}
);
};
};
width = 666;
}
);
unicode = 0110;
},
{
glyphname = E;
layers = (
{
layerId = master01;
paths = (
{
closed = 1;
nodes = (
"545 37 LINE",
"530 0 LINE",
"68 0 LINE",
"68 681 LINE",
"541 681 LINE",
"533 644 LINE",
"105 644 LINE",
"105 373 LINE",
"497 373 LINE",
"486 336 LINE",
"105 336 LINE",
"105 37 LINE"
);
}
);
userData = {
com.fontlab.hintData = {
hhints = (
{
position = 0;
width = 37;
},
{
position = 336;
width = 37;
},
{
position = 644;
width = 37;
}
);
vhints = (
{
position = 68;
width = 37;
}
);
};
};
width = 601;
}
);
unicode = 0045;
},
{
glyphname = Eacute;
layers = (
{
layerId = master01;
paths = (
{
closed = 1;
nodes = (
"349 896 LINE",
"387 864 LINE",
"237 760 LINE",
"211 784 LINE"
);
},
{
closed = 1;
nodes = (
"545 37 LINE",
"530 0 LINE",
"68 0 LINE",
"68 681 LINE",
"541 681 LINE",
"533 644 LINE",
"105 644 LINE",
"105 373 LINE",
"497 373 LINE",
"486 336 LINE",
"105 336 LINE",
"105 37 LINE"
);
}
);
userData = {
com.fontlab.hintData = {
hhints = (
{
position = 0;
width = 37;
},
{
position = 336;
width = 37;
},
{
position = 644;
width = 37;
}
);
vhints = (
{
position = 68;
width = 37;
}
);
};
};
width = 601;
}
);
unicode = 00C9;
},
{
glyphname = Ecaron;
layers = (
{
layerId = master01;
paths = (
{
closed = 1;
nodes = (
"436 854 LINE",
"295 743 LINE",
"177 855 LINE",
"201 883 LINE",
"298 792 LINE",
"415 884 LINE"
);
},
{
closed = 1;
nodes = (
"545 37 LINE",
"530 0 LINE",
"68 0 LINE",
"68 681 LINE",
"541 681 LINE",
"533 644 LINE",
"105 644 LINE",
"105 373 LINE",
"497 373 LINE",
"486 336 LINE",
"105 336 LINE",
"105 37 LINE"
);
}
);
userData = {
com.fontlab.hintData = {
hhints = (
{
position = 0;
width = 37;
},
{
position = 336;
width = 37;
},
{
position = 644;
width = 37;
}
);
vhints = (
{
position = 68;
width = 37;
}
);
};
};
width = 601;
}
);
unicode = 011A;
},
{
glyphname = Ecircumflex;
layers = (
{
layerId = master01;
paths = (
{
closed = 1;
nodes = (
"177 771 LINE",
"317 884 LINE",
"435 771 LINE",
"413 745 LINE",
"314 833 LINE",
"198 743 LINE"
);
},
{
closed = 1;
nodes = (
"545 37 LINE",
"530 0 LINE",
"68 0 LINE",
"68 681 LINE",
"541 681 LINE",
"533 644 LINE",
"105 644 LINE",
"105 373 LINE",
"497 373 LINE",
"486 336 LINE",
"105 336 LINE",
"105 37 LINE"
);
}
);
userData = {
com.fontlab.hintData = {
hhints = (
{
position = 0;
width = 37;
},
{
position = 336;
width = 37;
},
{
position = 644;
width = 37;
}
);
vhints = (
{
position = 68;
width = 37;
}
);
};
};
width = 601;
}
);
unicode = 00CA;
},
{
glyphname = Edieresis;
layers = (
{
layerId = master01;
paths = (
{
closed = 1;
nodes = (
"251 758 LINE",
"197 750 LINE",
"204 814 LINE",
"258 822 LINE"
);
},
{
closed = 1;
nodes = (
"417 758 LINE",
"363 750 LINE",
"370 814 LINE",
"424 822 LINE"
);
},
{
closed = 1;
nodes = (
"545 37 LINE",
"530 0 LINE",
"68 0 LINE",
"68 681 LINE",
"541 681 LINE",
"533 644 LINE",
"105 644 LINE",
"105 373 LINE",
"497 373 LINE",
"486 336 LINE",
"105 336 LINE",
"105 37 LINE"
);
}
);
userData = {
com.fontlab.hintData = {
hhints = (
{
position = 0;
width = 37;
},
{
position = 336;
width = 37;
},
{
position = 644;
width = 37;
}
);
vhints = (
{
position = 68;
width = 37;
}
);
};
};
width = 601;
}
);
unicode = 00CB;
},
{
glyphname = Egrave;
layers = (
{
layerId = master01;
paths = (
{
closed = 1;
nodes = (
"330 750 LINE",
"203 879 LINE",
"244 904 LINE",
"360 770 LINE"
);
},
{
closed = 1;
nodes = (
"545 37 LINE",
"530 0 LINE",
"68 0 LINE",
"68 681 LINE",
"541 681 LINE",
"533 644 LINE",
"105 644 LINE",
"105 373 LINE",
"497 373 LINE",
"486 336 LINE",
"105 336 LINE",
"105 37 LINE"
);
}
);
userData = {
com.fontlab.hintData = {
hhints = (
{
position = 0;
width = 37;
},
{
position = 336;
width = 37;
},
{
position = 644;
width = 37;
}
);
vhints = (
{
position = 68;
width = 37;
}
);
};
};
width = 601;
}
);
unicode = 00C8;
},
{
glyphname = Eogonek;
layers = (
{
layerId = master01;
paths = (
{
closed = 1;
nodes = (
"556 -172 LINE",
"538 -191 OFFCURVE",
"501 -209 OFFCURVE",
"464 -209 CURVE SMOOTH",
"407 -209 OFFCURVE",
"365 -168 OFFCURVE",
"365 -112 CURVE SMOOTH",
"365 -66 OFFCURVE",
"395 -27 OFFCURVE",
"429 0 CURVE",
"68 0 LINE",
"68 681 LINE",
"541 681 LINE",
"533 644 LINE",
"105 644 LINE",
"105 373 LINE",
"497 373 LINE",
"486 336 LINE",
"105 336 LINE",
"105 37 LINE",
"545 37 LINE",
"530 0 LINE",
"483 0 LINE",
"462 -15 LINE SMOOTH",
"435 -35 OFFCURVE",
"396 -63 OFFCURVE",
"396 -113 CURVE SMOOTH",
"396 -152 OFFCURVE",
"426 -177 OFFCURVE",
"464 -177 CURVE SMOOTH",
"499 -177 OFFCURVE",
"515 -166 OFFCURVE",
"539 -149 CURVE"
);
}
);
userData = {
com.fontlab.hintData = {
hhints = (
{
position = -209;
width = 32;
},
{
position = 0;
width = 37;
},
{
position = 336;
width = 37;
},
{
position = 644;
width = 37;
}
);
vhints = (
{
position = 68;
width = 37;
},
{
position = 365;
width = 31;
}
);
};
};
width = 601;
}
);
unicode = 0118;
},
{
glyphname = F;
layers = (
{
layerId = master01;
paths = (
{
closed = 1;
nodes = (
"100 644 LINE",
"100 365 LINE",
"446 365 LINE",
"439 327 LINE",
"100 327 LINE",
"100 9 LINE",
"63 2 LINE",
"63 681 LINE",
"499 681 LINE",
"491 644 LINE"
);
}
);
userData = {
com.fontlab.hintData = {
hhints = (
{
position = 327;
width = 38;
},
{
position = 644;
width = 37;
}
);
vhints = (
{
position = 63;
width = 37;
}
);
};
};
width = 495;
}
);
unicode = 0046;
},
{
glyphname = G;
layers = (
{
layerId = master01;
paths = (
{
closed = 1;
nodes = (
"635 178 OFFCURVE",
"585 -2 OFFCURVE",
"355 -2 CURVE SMOOTH",
"183 -2 OFFCURVE",
"61 149 OFFCURVE",
"61 341 CURVE SMOOTH",
"61 500 OFFCURVE",
"187 682 OFFCURVE",
"375 682 CURVE SMOOTH",
"516 682 OFFCURVE",
"612 597 OFFCURVE",
"647 489 CURVE",
"613 482 LINE",
"584 584 OFFCURVE",
"502 648 OFFCURVE",
"375 648 CURVE SMOOTH",
"180 648 OFFCURVE",
"97 444 OFFCURVE",
"97 341 CURVE SMOOTH",
"97 190 OFFCURVE",
"185 33 OFFCURVE",
"355 33 CURVE SMOOTH",
"491 33 OFFCURVE",
"581 110 OFFCURVE",
"615 241 CURVE",
"594 243 OFFCURVE",
"580 243 OFFCURVE",
"574 243 CURVE SMOOTH",
"516 243 OFFCURVE",
"458 235 OFFCURVE",
"418 219 CURVE",
"418 256 LINE",
"464 269 OFFCURVE",
"522 277 OFFCURVE",
"577 277 CURVE SMOOTH",
"614 277 OFFCURVE",
"652 273 OFFCURVE",
"684 267 CURVE",
"684 231 LINE",
"676 233 OFFCURVE",
"663 237 OFFCURVE",
"648 238 CURVE"
);
}
);
userData = {
com.fontlab.hintData = {
hhints = (
{
position = -2;
width = 35;
},
{
position = 243;
width = 34;
},
{
position = 648;
width = 34;
}
);
vhints = (
{
position = 61;
width = 36;
},
{
position = 615;
width = 33;
}
);
};
};
width = 734;
}
);
unicode = 0047;
},
{
glyphname = Gcircumflex;
layers = (
{
layerId = master01;
paths = (
{
closed = 1;
nodes = (
"635 178 OFFCURVE",
"585 -2 OFFCURVE",
"355 -2 CURVE SMOOTH",
"183 -2 OFFCURVE",
"61 149 OFFCURVE",
"61 341 CURVE SMOOTH",
"61 500 OFFCURVE",
"187 682 OFFCURVE",
"375 682 CURVE SMOOTH",
"516 682 OFFCURVE",
"612 597 OFFCURVE",
"647 489 CURVE",
"613 482 LINE",
"584 584 OFFCURVE",
"502 648 OFFCURVE",
"375 648 CURVE SMOOTH",
"180 648 OFFCURVE",
"97 444 OFFCURVE",
"97 341 CURVE SMOOTH",
"97 190 OFFCURVE",
"185 33 OFFCURVE",
"355 33 CURVE SMOOTH",
"491 33 OFFCURVE",
"581 110 OFFCURVE",
"615 241 CURVE",
"594 243 OFFCURVE",
"580 243 OFFCURVE",
"574 243 CURVE SMOOTH",
"516 243 OFFCURVE",
"458 235 OFFCURVE",
"418 219 CURVE",
"418 256 LINE",
"464 269 OFFCURVE",
"522 277 OFFCURVE",
"577 277 CURVE SMOOTH",
"614 277 OFFCURVE",
"652 273 OFFCURVE",
"684 267 CURVE",
"684 231 LINE",
"676 233 OFFCURVE",
"663 237 OFFCURVE",
"648 238 CURVE"
);
},
{
closed = 1;
nodes = (
"245 771 LINE",
"385 884 LINE",
"504 771 LINE",
"481 745 LINE",
"382 833 LINE",
"267 743 LINE"
);
}
);
userData = {
com.fontlab.hintData = {
hhints = (
{
position = -2;
width = 35;
},
{
position = 243;
width = 34;
},
{
position = 648;
width = 34;
}
);
vhints = (
{
position = 61;
width = 36;
},
{
position = 615;
width = 33;
}
);
};
};
width = 734;
}
);
unicode = 011C;
},
{
glyphname = H;
layers = (
{
layerId = master01;
paths = (
{
closed = 1;
nodes = (
"616 679 LINE",
"616 18 LINE",
"579 3 LINE",
"579 361 LINE",
"104 295 LINE",
"104 18 LINE",
"67 3 LINE",
"67 672 LINE",
"104 679 LINE",
"104 333 LINE",
"579 399 LINE",
"579 672 LINE"
);
}
);
userData = {
com.fontlab.hintData = {
vhints = (
{
position = 67;
width = 37;
},
{
position = 579;
width = 37;
}
);
};
};
width = 673;
}
);
unicode = 0048;
},
{
glyphname = Hcircumflex;
layers = (
{
layerId = master01;
paths = (
{
closed = 1;
nodes = (
"616 679 LINE",
"616 18 LINE",
"579 3 LINE",
"579 361 LINE",
"104 295 LINE",
"104 18 LINE",
"67 3 LINE",
"67 672 LINE",
"104 679 LINE",
"104 333 LINE",
"579 399 LINE",
"579 672 LINE"
);
},
{
closed = 1;
nodes = (
"210 771 LINE",
"350 884 LINE",
"469 771 LINE",
"446 745 LINE",
"347 833 LINE",
"232 743 LINE"
);
}
);
userData = {
com.fontlab.hintData = {
vhints = (
{
position = 67;
width = 37;
},
{
position = 579;
width = 37;
}
);
};
};
width = 673;
}
);
unicode = 0124;
},
{
glyphname = I;
layers = (
{
layerId = master01;
paths = (
{
closed = 1;
nodes = (
"238 644 LINE",
"238 37 LINE",
"368 37 LINE",
"361 0 LINE",
"66 0 LINE",
"73 37 LINE",
"201 37 LINE",
"201 644 LINE",
"66 644 LINE",
"73 681 LINE",
"368 681 LINE",
"361 644 LINE"
);
}
);
userData = {
com.fontlab.hintData = {
hhints = (
{
position = 0;
width = 37;
},
{
position = 644;
width = 37;
}
);
vhints = (
{
position = 201;
width = 37;
}
);
};
};
width = 427;
}
);
unicode = 0049;
},
{
glyphname = Iacute;
layers = (
{
layerId = master01;
paths = (
{
closed = 1;
nodes = (
"274 896 LINE",
"312 864 LINE",
"162 760 LINE",
"136 784 LINE"
);
},
{
closed = 1;
nodes = (
"238 644 LINE",
"238 37 LINE",
"368 37 LINE",
"361 0 LINE",
"66 0 LINE",
"73 37 LINE",
"201 37 LINE",
"201 644 LINE",
"66 644 LINE",
"73 681 LINE",
"368 681 LINE",
"361 644 LINE"
);
}
);
userData = {
com.fontlab.hintData = {
hhints = (
{
position = 0;
width = 37;
},
{
position = 644;
width = 37;
}
);
vhints = (
{
position = 201;
width = 37;
}
);
};
};
width = 427;
}
);
unicode = 00CD;
},
{
glyphname = Icircumflex;
layers = (
{
layerId = master01;
paths = (
{
closed = 1;
nodes = (
"90 771 LINE",
"230 884 LINE",
"348 771 LINE",
"326 745 LINE",
"227 833 LINE",
"111 743 LINE"
);
},
{
closed = 1;
nodes = (
"238 644 LINE",
"238 37 LINE",
"368 37 LINE",
"361 0 LINE",
"66 0 LINE",
"73 37 LINE",
"201 37 LINE",
"201 644 LINE",
"66 644 LINE",
"73 681 LINE",
"368 681 LINE",
"361 644 LINE"
);
}
);
userData = {
com.fontlab.hintData = {
hhints = (
{
position = 0;
width = 37;
},
{
position = 644;
width = 37;
}
);
vhints = (
{
position = 201;
width = 37;
}
);
};
};
width = 427;
}
);
unicode = 00CE;
},
{
glyphname = Idieresis;
layers = (
{
layerId = master01;
paths = (
{
closed = 1;
nodes = (
"164 758 LINE",
"110 750 LINE",
"116 814 LINE",
"171 822 LINE"
);
},
{
closed = 1;
nodes = (
"330 758 LINE",
"276 750 LINE",
"282 814 LINE",
"337 822 LINE"
);
},
{
closed = 1;
nodes = (
"238 644 LINE",
"238 37 LINE",
"368 37 LINE",
"361 0 LINE",
"66 0 LINE",
"73 37 LINE",
"201 37 LINE",
"201 644 LINE",
"66 644 LINE",
"73 681 LINE",
"368 681 LINE",
"361 644 LINE"
);
}
);
userData = {
com.fontlab.hintData = {
hhints = (
{
position = 0;
width = 37;
},
{
position = 644;
width = 37;
}
);
vhints = (
{
position = 201;
width = 37;
}
);
};
};
width = 427;
}
);
unicode = 00CF;
},
{
glyphname = Igrave;
layers = (
{
layerId = master01;
paths = (
{
closed = 1;
nodes = (
"259 750 LINE",
"131 879 LINE",
"172 904 LINE",
"288 770 LINE"
);
},
{
closed = 1;
nodes = (
"238 644 LINE",
"238 37 LINE",
"368 37 LINE",
"361 0 LINE",
"66 0 LINE",
"73 37 LINE",
"201 37 LINE",
"201 644 LINE",
"66 644 LINE",
"73 681 LINE",
"368 681 LINE",
"361 644 LINE"
);
}
);
userData = {
com.fontlab.hintData = {
hhints = (
{
position = 0;
width = 37;
},
{
position = 644;
width = 37;
}
);
vhints = (
{
position = 201;
width = 37;
}
);
};
};
width = 427;
}
);
unicode = 00CC;
},
{
glyphname = J;
layers = (
{
layerId = master01;
paths = (
{
closed = 1;
nodes = (
"444 679 LINE",
"444 641 LINE",
"391 641 LINE",
"391 157 LINE SMOOTH",
"391 65 OFFCURVE",
"322 1 OFFCURVE",
"222 1 CURVE SMOOTH",
"124 1 OFFCURVE",
"53 67 OFFCURVE",
"53 157 CURVE SMOOTH",
"53 183 LINE",
"90 191 LINE",
"90 157 LINE SMOOTH",
"90 86 OFFCURVE",
"144 33 OFFCURVE",
"222 33 CURVE SMOOTH",
"302 33 OFFCURVE",
"354 84 OFFCURVE",
"354 157 CURVE SMOOTH",
"354 641 LINE",
"195 641 LINE",
"195 679 LINE"
);
}
);
userData = {
com.fontlab.hintData = {
hhints = (
{
position = 1;
width = 32;
},
{
position = 641;
width = 38;
}
);
vhints = (
{
position = 53;
width = 37;
},
{
position = 354;
width = 37;
}
);
};
};
width = 459;
}
);
unicode = 004A;
},
{
glyphname = Jcircumflex;
layers = (
{
layerId = master01;
paths = (
{
closed = 1;
nodes = (
"444 679 LINE",
"444 641 LINE",
"391 641 LINE",
"391 157 LINE SMOOTH",
"391 65 OFFCURVE",
"322 1 OFFCURVE",
"222 1 CURVE SMOOTH",
"124 1 OFFCURVE",
"53 67 OFFCURVE",
"53 157 CURVE SMOOTH",
"53 183 LINE",
"90 191 LINE",
"90 157 LINE SMOOTH",
"90 86 OFFCURVE",
"144 33 OFFCURVE",
"222 33 CURVE SMOOTH",
"302 33 OFFCURVE",
"354 84 OFFCURVE",
"354 157 CURVE SMOOTH",
"354 641 LINE",
"195 641 LINE",
"195 679 LINE"
);
},
{
closed = 1;
nodes = (
"195 771 LINE",
"335 884 LINE",
"454 771 LINE",
"431 745 LINE",
"332 833 LINE",
"217 743 LINE"
);
}
);
userData = {
com.fontlab.hintData = {
hhints = (
{
position = 1;
width = 32;
},
{
position = 641;
width = 38;
}
);
vhints = (
{
position = 53;
width = 37;
},
{
position = 354;
width = 37;
}
);
};
};
width = 459;
}
);
unicode = 0134;
},
{
glyphname = K;
layers = (
{
layerId = master01;
paths = (
{
closed = 1;
nodes = (
"498 4 LINE",
"103 304 LINE",
"103 9 LINE",
"68 2 LINE",
"68 672 LINE",
"103 679 LINE",
"103 368 LINE",
"470 675 LINE",
"492 649 LINE",
"118 336 LINE",
"518 32 LINE"
);
}
);
userData = {
com.fontlab.hintData = {
vhints = (
{
position = 68;
width = 35;
}
);
};
};
width = 567;
}
);
unicode = 004B;
},
{
glyphname = L;
layers = (
{
layerId = master01;
paths = (
{
closed = 1;
nodes = (
"68 669 LINE",
"105 676 LINE",
"105 40 LINE",
"457 66 LINE",
"461 30 LINE",
"68 1 LINE"
);
}
);
userData = {
com.fontlab.hintData = {
hhints = (
{
position = 1;
width = 21;
}
);
vhints = (
{
position = 68;
width = 37;
}
);
};
};
width = 477;
}
);
unicode = 004C;
},
{
glyphname = Lacute;
layers = (
{
layerId = master01;
paths = (
{
closed = 1;
nodes = (
"262 896 LINE",
"299 864 LINE",
"149 760 LINE",
"124 784 LINE"
);
},
{
closed = 1;
nodes = (
"68 669 LINE",
"105 676 LINE",
"105 40 LINE",
"457 66 LINE",
"461 30 LINE",
"68 1 LINE"
);
}
);
userData = {
com.fontlab.hintData = {
hhints = (
{
position = 1;
width = 21;
}
);
vhints = (
{
position = 68;
width = 37;
}
);
};
};
width = 477;
}
);
unicode = 0139;
},
{
glyphname = Lcaron;
layers = (
{
layerId = master01;
paths = (
{
closed = 1;
nodes = (
"114 669 LINE",
"151 676 LINE",
"151 40 LINE",
"503 66 LINE",
"507 30 LINE",
"114 1 LINE"
);
},
{
closed = 1;
nodes = (
"331 854 LINE",
"190 743 LINE",
"72 855 LINE",
"96 883 LINE",
"194 792 LINE",
"309 884 LINE"
);
}
);
userData = {
com.fontlab.hintData = {
hhints = (
{
position = 1;
width = 21;
}
);
vhints = (
{
position = 114;
width = 37;
}
);
};
};
width = 522;
}
);
unicode = 013D;
},
{
glyphname = Lslash;
layers = (
{
layerId = master01;
paths = (
{
closed = 1;
nodes = (
"132 1 LINE",
"132 312 LINE",
"70 272 LINE",
"47 304 LINE",
"132 357 LINE",
"132 669 LINE",
"169 676 LINE",
"169 380 LINE",
"232 420 LINE",
"253 388 LINE",
"169 335 LINE",
"169 40 LINE",
"520 66 LINE",
"524 30 LINE"
);
}
);
userData = {
com.fontlab.hintData = {
hhints = (
{
position = 1;
width = 21;
}
);
vhints = (
{
position = 132;
width = 37;
}
);
};
};
width = 539;
}
);
unicode = 0141;
},
{
glyphname = M;
layers = (
{
layerId = master01;
paths = (
{
closed = 1;
nodes = (
"450 9 LINE",
"388 1 LINE",
"215 607 LINE",
"88 9 LINE",
"52 2 LINE",
"193 672 LINE",
"231 679 LINE",
"418 20 LINE",
"627 672 LINE",
"669 680 LINE",
"816 9 LINE",
"778 1 LINE",
"646 622 LINE"
);
}
);
userData = {
com.fontlab.hintData = {
hhints = (
{
position = 1;
width = 21;
},
{
position = 660;
width = 20;
}
);
};
};
width = 855;
}
);
unicode = 004D;
},
{
glyphname = N;
layers = (
{
layerId = master01;
paths = (
{
closed = 1;
nodes = (
"547 679 LINE",
"547 12 LINE",
"495 1 LINE",
"103 631 LINE",
"103 11 LINE",
"69 3 LINE",
"68 666 LINE",
"114 680 LINE",
"513 45 LINE",
"513 672 LINE"
);
}
);
userData = {
com.fontlab.hintData = {
hhints = (
{
position = 1;
width = 21;
},
{
position = 660;
width = 20;
}
);
vhints = (
{
position = 69;
width = 34;
},
{
position = 513;
width = 34;
}
);
};
};
width = 605;
}
);
unicode = 004E;
},
{
glyphname = Nacute;
layers = (
{
layerId = master01;
paths = (
{
closed = 1;
nodes = (
"358 896 LINE",
"396 864 LINE",
"246 760 LINE",
"220 784 LINE"
);
},
{
closed = 1;
nodes = (
"547 679 LINE",
"547 12 LINE",
"495 1 LINE",
"103 631 LINE",
"103 11 LINE",
"69 3 LINE",
"68 666 LINE",
"114 680 LINE",
"513 45 LINE",
"513 672 LINE"
);
}
);
userData = {
com.fontlab.hintData = {
hhints = (
{
position = 1;
width = 21;
},
{
position = 660;
width = 20;
}
);
vhints = (
{
position = 69;
width = 34;
},
{
position = 513;
width = 34;
}
);
};
};
width = 605;
}
);
unicode = 0143;
},
{
glyphname = Ncaron;
layers = (
{
layerId = master01;
paths = (
{
closed = 1;
nodes = (
"448 854 LINE",
"307 743 LINE",
"188 855 LINE",
"212 883 LINE",
"310 792 LINE",
"426 884 LINE"
);
},
{
closed = 1;
nodes = (
"547 679 LINE",
"547 12 LINE",
"495 1 LINE",
"103 631 LINE",
"103 11 LINE",
"69 3 LINE",
"68 666 LINE",
"114 680 LINE",
"513 45 LINE",
"513 672 LINE"
);
}
);
userData = {
com.fontlab.hintData = {
hhints = (
{
position = 1;
width = 21;
},
{
position = 660;
width = 20;
}
);
vhints = (
{
position = 69;
width = 34;
},
{
position = 513;
width = 34;
}
);
};
};
width = 605;
}
);
unicode = 0147;
},
{
glyphname = Ntilde;
layers = (
{
layerId = master01;
paths = (
{
closed = 1;
nodes = (
"547 679 LINE",
"547 12 LINE",
"495 1 LINE",
"103 631 LINE",
"103 11 LINE",
"69 3 LINE",
"68 666 LINE",
"114 680 LINE",
"513 45 LINE",
"513 672 LINE"
);
},
{
closed = 1;
nodes = (
"349 781 OFFCURVE",
"360 774 OFFCURVE",
"381 774 CURVE SMOOTH",
"419 774 OFFCURVE",
"443 821 OFFCURVE",
"454 855 CURVE",
"485 845 LINE",
"468 789 OFFCURVE",
"425 743 OFFCURVE",
"381 743 CURVE SMOOTH",
"340 743 OFFCURVE",
"317 774 OFFCURVE",
"298 801 CURVE SMOOTH",
"272 838 OFFCURVE",
"261 844 OFFCURVE",
"241 844 CURVE SMOOTH",
"207 844 OFFCURVE",
"181 802 OFFCURVE",
"171 771 CURVE",
"141 781 LINE",
"157 825 OFFCURVE",
"189 876 OFFCURVE",
"241 876 CURVE SMOOTH",
"283 876 OFFCURVE",
"305 845 OFFCURVE",
"323 820 CURVE SMOOTH"
);
}
);
userData = {
com.fontlab.hintData = {
hhints = (
{
position = 1;
width = 21;
},
{
position = 660;
width = 20;
},
{
position = 743;
width = 31;
},
{
position = 844;
width = 32;
}
);
vhints = (
{
position = 69;
width = 34;
},
{
position = 454;
width = 31;
},
{
position = 513;
width = 34;
}
);
};
};
width = 605;
}
);
unicode = 00D1;
},
{
glyphname = O;
layers = (
{
layerId = master01;
paths = (
{
closed = 1;
nodes = (
"165 -2 OFFCURVE",
"62 144 OFFCURVE",
"62 314 CURVE SMOOTH",
"62 515 OFFCURVE",
"196 682 OFFCURVE",
"352 682 CURVE SMOOTH",
"494 682 OFFCURVE",
"598 540 OFFCURVE",
"598 368 CURVE SMOOTH",
"598 167 OFFCURVE",
"464 -2 OFFCURVE",
"308 -2 CURVE SMOOTH"
);
},
{
closed = 1;
nodes = (
"217 649 OFFCURVE",
"96 500 OFFCURVE",
"96 312 CURVE SMOOTH",
"96 159 OFFCURVE",
"185 31 OFFCURVE",
"308 31 CURVE SMOOTH",
"440 31 OFFCURVE",
"564 183 OFFCURVE",
"564 364 CURVE SMOOTH",
"564 508 OFFCURVE",
"477 649 OFFCURVE",
"348 649 CURVE SMOOTH"
);
}
);
userData = {
com.fontlab.hintData = {
hhints = (
{
position = -2;
width = 33;
},
{
position = 649;
width = 33;
}
);
vhints = (
{
position = 62;
width = 34;
},
{
position = 564;
width = 34;
}
);
};
};
width = 650;
}
);
unicode = 004F;
},
{
glyphname = Oacute;
layers = (
{
layerId = master01;
paths = (
{
closed = 1;
nodes = (
"414 896 LINE",
"453 864 LINE",
"302 760 LINE",
"276 784 LINE"
);
},
{
closed = 1;
nodes = (
"165 -2 OFFCURVE",
"62 144 OFFCURVE",
"62 314 CURVE SMOOTH",
"62 515 OFFCURVE",
"196 682 OFFCURVE",
"352 682 CURVE SMOOTH",
"494 682 OFFCURVE",
"598 540 OFFCURVE",
"598 368 CURVE SMOOTH",
"598 167 OFFCURVE",
"464 -2 OFFCURVE",
"308 -2 CURVE SMOOTH"
);
},
{
closed = 1;
nodes = (
"217 649 OFFCURVE",
"96 500 OFFCURVE",
"96 312 CURVE SMOOTH",
"96 159 OFFCURVE",
"185 31 OFFCURVE",
"308 31 CURVE SMOOTH",
"440 31 OFFCURVE",
"564 183 OFFCURVE",
"564 364 CURVE SMOOTH",
"564 508 OFFCURVE",
"477 649 OFFCURVE",
"348 649 CURVE SMOOTH"
);
}
);
userData = {
com.fontlab.hintData = {
hhints = (
{
position = -2;
width = 33;
},
{
position = 649;
width = 33;
}
);
vhints = (
{
position = 62;
width = 34;
},
{
position = 564;
width = 34;
}
);
};
};
width = 650;
}
);
unicode = 00D3;
},
{
glyphname = Ocircumflex;
layers = (
{
layerId = master01;
paths = (
{
closed = 1;
nodes = (
"228 771 LINE",
"369 884 LINE",
"488 771 LINE",
"465 745 LINE",
"366 833 LINE",
"250 743 LINE"
);
},
{
closed = 1;
nodes = (
"165 -2 OFFCURVE",
"62 144 OFFCURVE",
"62 314 CURVE SMOOTH",
"62 515 OFFCURVE",
"196 682 OFFCURVE",
"352 682 CURVE SMOOTH",
"494 682 OFFCURVE",
"598 540 OFFCURVE",
"598 368 CURVE SMOOTH",
"598 167 OFFCURVE",
"464 -2 OFFCURVE",
"308 -2 CURVE SMOOTH"
);
},
{
closed = 1;
nodes = (
"217 649 OFFCURVE",
"96 500 OFFCURVE",
"96 312 CURVE SMOOTH",
"96 159 OFFCURVE",
"185 31 OFFCURVE",
"308 31 CURVE SMOOTH",
"440 31 OFFCURVE",
"564 183 OFFCURVE",
"564 364 CURVE SMOOTH",
"564 508 OFFCURVE",
"477 649 OFFCURVE",
"348 649 CURVE SMOOTH"
);
}
);
userData = {
com.fontlab.hintData = {
hhints = (
{
position = -2;
width = 33;
},
{
position = 649;
width = 33;
}
);
vhints = (
{
position = 62;
width = 34;
},
{
position = 564;
width = 34;
}
);
};
};
width = 650;
}
);
unicode = 00D4;
},
{
glyphname = Odieresis;
layers = (
{
layerId = master01;
paths = (
{
closed = 1;
nodes = (
"294 758 LINE",
"240 750 LINE",
"247 814 LINE",
"301 822 LINE"
);
},
{
closed = 1;
nodes = (
"459 758 LINE",
"405 750 LINE",
"411 814 LINE",
"466 822 LINE"
);
},
{
closed = 1;
nodes = (
"165 -2 OFFCURVE",
"62 144 OFFCURVE",
"62 314 CURVE SMOOTH",
"62 515 OFFCURVE",
"196 682 OFFCURVE",
"352 682 CURVE SMOOTH",
"494 682 OFFCURVE",
"598 540 OFFCURVE",
"598 368 CURVE SMOOTH",
"598 167 OFFCURVE",
"464 -2 OFFCURVE",
"308 -2 CURVE SMOOTH"
);
},
{
closed = 1;
nodes = (
"217 649 OFFCURVE",
"96 500 OFFCURVE",
"96 312 CURVE SMOOTH",
"96 159 OFFCURVE",
"185 31 OFFCURVE",
"308 31 CURVE SMOOTH",
"440 31 OFFCURVE",
"564 183 OFFCURVE",
"564 364 CURVE SMOOTH",
"564 508 OFFCURVE",
"477 649 OFFCURVE",
"348 649 CURVE SMOOTH"
);
}
);
userData = {
com.fontlab.hintData = {
hhints = (
{
position = -2;
width = 33;
},
{
position = 649;
width = 33;
}
);
vhints = (
{
position = 62;
width = 34;
},
{
position = 564;
width = 34;
}
);
};
};
width = 650;
}
);
unicode = 00D6;
},
{
glyphname = Ograve;
layers = (
{
layerId = master01;
paths = (
{
closed = 1;
nodes = (
"390 750 LINE",
"262 879 LINE",
"303 904 LINE",
"420 770 LINE"
);
},
{
closed = 1;
nodes = (
"165 -2 OFFCURVE",
"62 144 OFFCURVE",
"62 314 CURVE SMOOTH",
"62 515 OFFCURVE",
"196 682 OFFCURVE",
"352 682 CURVE SMOOTH",
"494 682 OFFCURVE",
"598 540 OFFCURVE",
"598 368 CURVE SMOOTH",
"598 167 OFFCURVE",
"464 -2 OFFCURVE",
"308 -2 CURVE SMOOTH"
);
},
{
closed = 1;
nodes = (
"217 649 OFFCURVE",
"96 500 OFFCURVE",
"96 312 CURVE SMOOTH",
"96 159 OFFCURVE",
"185 31 OFFCURVE",
"308 31 CURVE SMOOTH",
"440 31 OFFCURVE",
"564 183 OFFCURVE",
"564 364 CURVE SMOOTH",
"564 508 OFFCURVE",
"477 649 OFFCURVE",
"348 649 CURVE SMOOTH"
);
}
);
userData = {
com.fontlab.hintData = {
hhints = (
{
position = -2;
width = 33;
},
{
position = 649;
width = 33;
}
);
vhints = (
{
position = 62;
width = 34;
},
{
position = 564;
width = 34;
}
);
};
};
width = 650;
}
);
unicode = 00D2;
},
{
glyphname = Ohungarumlaut;
layers = (
{
layerId = master01;
paths = (
{
closed = 1;
nodes = (
"323 896 LINE",
"360 864 LINE",
"209 760 LINE",
"185 784 LINE"
);
},
{
closed = 1;
nodes = (
"488 896 LINE",
"526 864 LINE",
"374 760 LINE",
"350 784 LINE"
);
},
{
closed = 1;
nodes = (
"165 -2 OFFCURVE",
"62 144 OFFCURVE",
"62 314 CURVE SMOOTH",
"62 515 OFFCURVE",
"196 682 OFFCURVE",
"352 682 CURVE SMOOTH",
"494 682 OFFCURVE",
"598 540 OFFCURVE",
"598 368 CURVE SMOOTH",
"598 167 OFFCURVE",
"464 -2 OFFCURVE",
"308 -2 CURVE SMOOTH"
);
},
{
closed = 1;
nodes = (
"217 649 OFFCURVE",
"96 500 OFFCURVE",
"96 312 CURVE SMOOTH",
"96 159 OFFCURVE",
"185 31 OFFCURVE",
"308 31 CURVE SMOOTH",
"440 31 OFFCURVE",
"564 183 OFFCURVE",
"564 364 CURVE SMOOTH",
"564 508 OFFCURVE",
"477 649 OFFCURVE",
"348 649 CURVE SMOOTH"
);
}
);
userData = {
com.fontlab.hintData = {
hhints = (
{
position = -2;
width = 33;
},
{
position = 649;
width = 33;
}
);
vhints = (
{
position = 62;
width = 34;
},
{
position = 564;
width = 34;
}
);
};
};
width = 650;
}
);
unicode = 0150;
},
{
glyphname = Oslash;
layers = (
{
layerId = master01;
paths = (
{
closed = 1;
nodes = (
"489 633 LINE",
"566 572 OFFCURVE",
"598 467 OFFCURVE",
"598 369 CURVE SMOOTH",
"598 168 OFFCURVE",
"464 -1 OFFCURVE",
"308 -1 CURVE SMOOTH",
"262 -1 OFFCURVE",
"212 19 OFFCURVE",
"167 53 CURVE",
"120 -31 LINE",
"92 -13 LINE",
"142 77 LINE",
"91 139 OFFCURVE",
"62 223 OFFCURVE",
"62 311 CURVE SMOOTH",
"62 519 OFFCURVE",
"189 683 OFFCURVE",
"352 683 CURVE SMOOTH",
"387 683 OFFCURVE",
"424 673 OFFCURVE",
"462 651 CURVE",
"509 738 LINE",
"538 721 LINE"
);
},
{
closed = 1;
nodes = (
"444 620 LINE",
"410 640 OFFCURVE",
"377 650 OFFCURVE",
"344 650 CURVE SMOOTH",
"214 650 OFFCURVE",
"96 501 OFFCURVE",
"96 314 CURVE SMOOTH",
"96 235 OFFCURVE",
"118 163 OFFCURVE",
"160 107 CURVE"
);
},
{
closed = 1;
nodes = (
"466 32 OFFCURVE",
"564 219 OFFCURVE",
"564 365 CURVE SMOOTH",
"564 447 OFFCURVE",
"538 543 OFFCURVE",
"471 600 CURVE",
"183 82 LINE",
"222 49 OFFCURVE",
"264 32 OFFCURVE",
"308 32 CURVE SMOOTH"
);
}
);
userData = {
com.fontlab.hintData = {
hhints = (
{
position = -1;
width = 33;
},
{
position = 650;
width = 33;
}
);
vhints = (
{
position = 62;
width = 34;
},
{
position = 564;
width = 34;
}
);
};
};
width = 650;
}
);
unicode = 00D8;
},
{
glyphname = Otilde;
layers = (
{
layerId = master01;
paths = (
{
closed = 1;
nodes = (
"165 -2 OFFCURVE",
"62 144 OFFCURVE",
"62 314 CURVE SMOOTH",
"62 515 OFFCURVE",
"196 682 OFFCURVE",
"352 682 CURVE SMOOTH",
"494 682 OFFCURVE",
"598 540 OFFCURVE",
"598 368 CURVE SMOOTH",
"598 167 OFFCURVE",
"464 -2 OFFCURVE",
"308 -2 CURVE SMOOTH"
);
},
{
closed = 1;
nodes = (
"217 649 OFFCURVE",
"96 500 OFFCURVE",
"96 312 CURVE SMOOTH",
"96 159 OFFCURVE",
"185 31 OFFCURVE",
"308 31 CURVE SMOOTH",
"440 31 OFFCURVE",
"564 183 OFFCURVE",
"564 364 CURVE SMOOTH",
"564 508 OFFCURVE",
"477 649 OFFCURVE",
"348 649 CURVE SMOOTH"
);
},
{
closed = 1;
nodes = (
"389 781 OFFCURVE",
"400 774 OFFCURVE",
"421 774 CURVE SMOOTH",
"459 774 OFFCURVE",
"483 821 OFFCURVE",
"494 855 CURVE",
"525 845 LINE",
"508 789 OFFCURVE",
"465 743 OFFCURVE",
"421 743 CURVE SMOOTH",
"380 743 OFFCURVE",
"357 774 OFFCURVE",
"338 801 CURVE SMOOTH",
"312 838 OFFCURVE",
"301 844 OFFCURVE",
"281 844 CURVE SMOOTH",
"247 844 OFFCURVE",
"221 802 OFFCURVE",
"211 771 CURVE",
"181 781 LINE",
"197 825 OFFCURVE",
"229 876 OFFCURVE",
"281 876 CURVE SMOOTH",
"323 876 OFFCURVE",
"345 845 OFFCURVE",
"363 820 CURVE SMOOTH"
);
}
);
userData = {
com.fontlab.hintData = {
hhints = (
{
position = -2;
width = 33;
},
{
position = 649;
width = 33;
},
{
position = 743;
width = 31;
},
{
position = 844;
width = 32;
}
);
vhints = (
{
position = 62;
width = 34;
},
{
position = 494;
width = 31;
},
{
position = 564;
width = 34;
}
);
};
};
width = 650;
}
);
unicode = 00D5;
},
{
glyphname = OE;
layers = (
{
layerId = master01;
paths = (
{
closed = 1;
nodes = (
"561 202 LINE",
"506 77 OFFCURVE",
"414 0 OFFCURVE",
"305 0 CURVE SMOOTH",
"162 0 OFFCURVE",
"59 144 OFFCURVE",
"59 314 CURVE SMOOTH",
"59 515 OFFCURVE",
"187 684 OFFCURVE",
"348 684 CURVE SMOOTH",
"422 684 OFFCURVE",
"517 635 OFFCURVE",
"561 529 CURVE",
"561 681 LINE",
"1033 681 LINE",
"1026 644 LINE",
"598 644 LINE",
"598 373 LINE",
"990 373 LINE",
"979 336 LINE",
"598 336 LINE",
"598 37 LINE",
"1038 37 LINE",
"1023 0 LINE",
"561 0 LINE"
);
},
{
closed = 1;
nodes = (
"561 509 OFFCURVE",
"470 651 OFFCURVE",
"341 651 CURVE SMOOTH",
"209 651 OFFCURVE",
"93 502 OFFCURVE",
"93 314 CURVE SMOOTH",
"93 161 OFFCURVE",
"181 33 OFFCURVE",
"305 33 CURVE SMOOTH",
"434 33 OFFCURVE",
"547 161 OFFCURVE",
"561 365 CURVE"
);
}
);
userData = {
com.fontlab.hintData = {
hhints = (
{
position = 0;
width = 33;
},
{
position = 336;
width = 37;
},
{
position = 644;
width = 37;
},
{
position = 651;
width = 33;
}
);
vhints = (
{
position = 59;
width = 34;
},
{
position = 561;
width = 37;
}
);
};
};
width = 1083;
}
);
unicode = 0152;
},
{
glyphname = P;
layers = (
{
layerId = master01;
paths = (
{
closed = 1;
nodes = (
"104 9 LINE",
"68 2 LINE",
"68 675 LINE",
"92 677 OFFCURVE",
"138 679 OFFCURVE",
"173 679 CURVE SMOOTH",
"312 679 OFFCURVE",
"511 651 OFFCURVE",
"511 476 CURVE SMOOTH",
"511 313 OFFCURVE",
"283 251 OFFCURVE",
"104 245 CURVE"
);
},
{
closed = 1;
nodes = (
"104 281 LINE",
"336 291 OFFCURVE",
"474 370 OFFCURVE",
"474 472 CURVE SMOOTH",
"474 565 OFFCURVE",
"409 642 OFFCURVE",
"162 642 CURVE SMOOTH",
"104 642 LINE"
);
}
);
userData = {
com.fontlab.hintData = {
hhints = (
{
position = 245;
width = 36;
},
{
position = 642;
width = 37;
}
);
vhints = (
{
position = 68;
width = 36;
},
{
position = 474;
width = 37;
}
);
};
};
width = 535;
}
);
unicode = 0050;
},
{
glyphname = Thorn;
layers = (
{
layerId = master01;
paths = (
{
closed = 1;
nodes = (
"104 683 LINE",
"104 573 LINE",
"246 573 OFFCURVE",
"471 557 OFFCURVE",
"471 378 CURVE SMOOTH",
"471 203 OFFCURVE",
"251 156 OFFCURVE",
"102 146 CURVE",
"102 10 LINE",
"68 3 LINE",
"68 676 LINE"
);
},
{
closed = 1;
nodes = (
"103 187 LINE",
"296 193 OFFCURVE",
"434 261 OFFCURVE",
"434 380 CURVE SMOOTH",
"434 497 OFFCURVE",
"299 535 OFFCURVE",
"104 535 CURVE"
);
}
);
userData = {
com.fontlab.hintData = {
hhints = (
{
position = 146;
width = 41;
},
{
position = 535;
width = 38;
},
{
position = 663;
width = 20;
}
);
vhints = (
{
position = 68;
width = 34;
},
{
position = 434;
width = 37;
}
);
};
};
width = 496;
}
);
unicode = 00DE;
},
{
glyphname = Q;
layers = (
{
layerId = master01;
paths = (
{
closed = 1;
nodes = (
"667 -1 LINE",
"652 -33 LINE",
"510 61 LINE",
"455 22 OFFCURVE",
"393 -1 OFFCURVE",
"333 -1 CURVE SMOOTH",
"172 -1 OFFCURVE",
"52 143 OFFCURVE",
"52 315 CURVE SMOOTH",
"52 515 OFFCURVE",
"203 679 OFFCURVE",
"379 679 CURVE SMOOTH",
"541 679 OFFCURVE",
"661 537 OFFCURVE",
"661 367 CURVE SMOOTH",
"661 259 OFFCURVE",
"614 158 OFFCURVE",
"538 83 CURVE"
);
},
{
closed = 1;
nodes = (
"509 107 LINE",
"577 170 OFFCURVE",
"620 263 OFFCURVE",
"620 360 CURVE SMOOTH",
"620 504 OFFCURVE",
"521 644 OFFCURVE",
"377 644 CURVE SMOOTH",
"228 644 OFFCURVE",
"94 495 OFFCURVE",
"94 313 CURVE SMOOTH",
"94 157 OFFCURVE",
"196 33 OFFCURVE",
"333 33 CURVE SMOOTH",
"381 33 OFFCURVE",
"434 53 OFFCURVE",
"482 84 CURVE",
"366 158 LINE",
"399 177 LINE"
);
}
);
userData = {
com.fontlab.hintData = {
hhints = (
{
position = -1;
width = 34;
},
{
position = 644;
width = 35;
}
);
vhints = (
{
position = 52;
width = 42;
},
{
position = 620;
width = 41;
}
);
};
};
width = 711;
}
);
unicode = 0051;
},
{
glyphname = R;
layers = (
{
layerId = master01;
paths = (
{
closed = 1;
nodes = (
"105 283 LINE",
"319 291 OFFCURVE",
"482 372 OFFCURVE",
"482 476 CURVE SMOOTH",
"482 571 OFFCURVE",
"412 649 OFFCURVE",
"158 649 CURVE SMOOTH",
"105 649 LINE"
);
},
{
closed = 1;
nodes = (
"104 9 LINE",
"68 2 LINE",
"68 683 LINE",
"90 686 OFFCURVE",
"136 686 OFFCURVE",
"170 687 CURVE",
"312 687 OFFCURVE",
"518 658 OFFCURVE",
"518 480 CURVE SMOOTH",
"518 398 OFFCURVE",
"438 318 OFFCURVE",
"310 278 CURVE",
"376 238 OFFCURVE",
"464 162 OFFCURVE",
"537 31 CURVE",
"510 6 LINE",
"430 156 OFFCURVE",
"341 218 OFFCURVE",
"291 244 CURVE SMOOTH",
"274 253 OFFCURVE",
"244 257 OFFCURVE",
"221 257 CURVE SMOOTH",
"196 257 OFFCURVE",
"145 250 OFFCURVE",
"104 242 CURVE"
);
}
);
userData = {
com.fontlab.hintData = {
hhints = (
{
position = 257;
width = 26;
},
{
position = 649;
width = 38;
}
);
vhints = (
{
position = 68;
width = 37;
},
{
position = 482;
width = 36;
}
);
};
};
width = 584;
}
);
unicode = 0052;
},
{
glyphname = Racute;
layers = (
{
layerId = master01;
paths = (
{
closed = 1;
nodes = (
"308 896 LINE",
"346 864 LINE",
"194 760 LINE",
"170 784 LINE"
);
},
{
closed = 1;
nodes = (
"105 283 LINE",
"319 291 OFFCURVE",
"482 372 OFFCURVE",
"482 476 CURVE SMOOTH",
"482 571 OFFCURVE",
"412 649 OFFCURVE",
"158 649 CURVE SMOOTH",
"105 649 LINE"
);
},
{
closed = 1;
nodes = (
"104 9 LINE",
"68 2 LINE",
"68 683 LINE",
"90 686 OFFCURVE",
"136 686 OFFCURVE",
"170 687 CURVE",
"312 687 OFFCURVE",
"518 658 OFFCURVE",
"518 480 CURVE SMOOTH",
"518 398 OFFCURVE",
"438 318 OFFCURVE",
"310 278 CURVE",
"376 238 OFFCURVE",
"464 162 OFFCURVE",
"537 31 CURVE",
"510 6 LINE",
"430 156 OFFCURVE",
"341 218 OFFCURVE",
"291 244 CURVE SMOOTH",
"274 253 OFFCURVE",
"244 257 OFFCURVE",
"221 257 CURVE SMOOTH",
"196 257 OFFCURVE",
"145 250 OFFCURVE",
"104 242 CURVE"
);
}
);
userData = {
com.fontlab.hintData = {
hhints = (
{
position = 257;
width = 26;
},
{
position = 649;
width = 38;
}
);
vhints = (
{
position = 68;
width = 37;
},
{
position = 482;
width = 36;
}
);
};
};
width = 584;
}
);
unicode = 0154;
},
{
glyphname = Rcaron;
layers = (
{
layerId = master01;
paths = (
{
closed = 1;
nodes = (
"412 854 LINE",
"271 743 LINE",
"152 855 LINE",
"176 883 LINE",
"274 792 LINE",
"390 884 LINE"
);
},
{
closed = 1;
nodes = (
"105 283 LINE",
"319 291 OFFCURVE",
"482 372 OFFCURVE",
"482 476 CURVE SMOOTH",
"482 571 OFFCURVE",
"412 649 OFFCURVE",
"158 649 CURVE SMOOTH",
"105 649 LINE"
);
},
{
closed = 1;
nodes = (
"104 9 LINE",
"68 2 LINE",
"68 683 LINE",
"90 686 OFFCURVE",
"136 686 OFFCURVE",
"170 687 CURVE",
"312 687 OFFCURVE",
"518 658 OFFCURVE",
"518 480 CURVE SMOOTH",
"518 398 OFFCURVE",
"438 318 OFFCURVE",
"310 278 CURVE",
"376 238 OFFCURVE",
"464 162 OFFCURVE",
"537 31 CURVE",
"510 6 LINE",
"430 156 OFFCURVE",
"341 218 OFFCURVE",
"291 244 CURVE SMOOTH",
"274 253 OFFCURVE",
"244 257 OFFCURVE",
"221 257 CURVE SMOOTH",
"196 257 OFFCURVE",
"145 250 OFFCURVE",
"104 242 CURVE"
);
}
);
userData = {
com.fontlab.hintData = {
hhints = (
{
position = 257;
width = 26;
},
{
position = 649;
width = 38;
}
);
vhints = (
{
position = 68;
width = 37;
},
{
position = 482;
width = 36;
}
);
};
};
width = 584;
}
);
unicode = 0158;
},
{
glyphname = S;
layers = (
{
layerId = master01;
paths = (
{
closed = 1;
nodes = (
"142 449 OFFCURVE",
"206 409 OFFCURVE",
"316 378 CURVE SMOOTH",
"458 337 OFFCURVE",
"534 275 OFFCURVE",
"534 183 CURVE SMOOTH",
"534 57 OFFCURVE",
"407 -1 OFFCURVE",
"307 -1 CURVE SMOOTH",
"195 -1 OFFCURVE",
"101 54 OFFCURVE",
"67 138 CURVE",
"109 145 LINE",
"142 67 OFFCURVE",
"226 33 OFFCURVE",
"302 33 CURVE SMOOTH",
"404 33 OFFCURVE",
"495 82 OFFCURVE",
"495 183 CURVE SMOOTH",
"495 218 OFFCURVE",
"479 294 OFFCURVE",
"309 340 CURVE SMOOTH",
"212 366 OFFCURVE",
"100 415 OFFCURVE",
"100 519 CURVE SMOOTH",
"100 657 OFFCURVE",
"229 681 OFFCURVE",
"329 681 CURVE SMOOTH",
"418 681 OFFCURVE",
"531 650 OFFCURVE",
"531 545 CURVE SMOOTH",
"531 536 LINE",
"498 527 LINE",
"498 532 LINE SMOOTH",
"498 625 OFFCURVE",
"393 646 OFFCURVE",
"329 646 CURVE SMOOTH",
"175 646 OFFCURVE",
"142 584 OFFCURVE",
"142 520 CURVE SMOOTH"
);
}
);
userData = {
com.fontlab.hintData = {
hhints = (
{
position = -1;
width = 34;
},
{
position = 646;
width = 35;
}
);
vhints = (
{
position = 100;
width = 42;
},
{
position = 495;
width = 39;
}
);
};
};
width = 589;
}
);
unicode = 0053;
},
{
glyphname = Sacute;
layers = (
{
layerId = master01;
paths = (
{
closed = 1;
nodes = (
"366 896 LINE",
"405 864 LINE",
"253 760 LINE",
"228 784 LINE"
);
},
{
closed = 1;
nodes = (
"142 449 OFFCURVE",
"206 409 OFFCURVE",
"316 378 CURVE SMOOTH",
"458 337 OFFCURVE",
"534 275 OFFCURVE",
"534 183 CURVE SMOOTH",
"534 57 OFFCURVE",
"407 -1 OFFCURVE",
"307 -1 CURVE SMOOTH",
"195 -1 OFFCURVE",
"101 54 OFFCURVE",
"67 138 CURVE",
"109 145 LINE",
"142 67 OFFCURVE",
"226 33 OFFCURVE",
"302 33 CURVE SMOOTH",
"404 33 OFFCURVE",
"495 82 OFFCURVE",
"495 183 CURVE SMOOTH",
"495 218 OFFCURVE",
"479 294 OFFCURVE",
"309 340 CURVE SMOOTH",
"212 366 OFFCURVE",
"100 415 OFFCURVE",
"100 519 CURVE SMOOTH",
"100 657 OFFCURVE",
"229 681 OFFCURVE",
"329 681 CURVE SMOOTH",
"418 681 OFFCURVE",
"531 650 OFFCURVE",
"531 545 CURVE SMOOTH",
"531 536 LINE",
"498 527 LINE",
"498 532 LINE SMOOTH",
"498 625 OFFCURVE",
"393 646 OFFCURVE",
"329 646 CURVE SMOOTH",
"175 646 OFFCURVE",
"142 584 OFFCURVE",
"142 520 CURVE SMOOTH"
);
}
);
userData = {
com.fontlab.hintData = {
hhints = (
{
position = -1;
width = 34;
},
{
position = 646;
width = 35;
}
);
vhints = (
{
position = 100;
width = 42;
},
{
position = 495;
width = 39;
}
);
};
};
width = 589;
}
);
unicode = 015A;
},
{
glyphname = Scaron;
layers = (
{
layerId = master01;
paths = (
{
closed = 1;
nodes = (
"461 854 LINE",
"321 743 LINE",
"203 855 LINE",
"226 883 LINE",
"324 792 LINE",
"440 884 LINE"
);
},
{
closed = 1;
nodes = (
"142 449 OFFCURVE",
"206 409 OFFCURVE",
"316 378 CURVE SMOOTH",
"458 337 OFFCURVE",
"534 275 OFFCURVE",
"534 183 CURVE SMOOTH",
"534 57 OFFCURVE",
"407 -1 OFFCURVE",
"307 -1 CURVE SMOOTH",
"195 -1 OFFCURVE",
"101 54 OFFCURVE",
"67 138 CURVE",
"109 145 LINE",
"142 67 OFFCURVE",
"226 33 OFFCURVE",
"302 33 CURVE SMOOTH",
"404 33 OFFCURVE",
"495 82 OFFCURVE",
"495 183 CURVE SMOOTH",
"495 218 OFFCURVE",
"479 294 OFFCURVE",
"309 340 CURVE SMOOTH",
"212 366 OFFCURVE",
"100 415 OFFCURVE",
"100 519 CURVE SMOOTH",
"100 657 OFFCURVE",
"229 681 OFFCURVE",
"329 681 CURVE SMOOTH",
"418 681 OFFCURVE",
"531 650 OFFCURVE",
"531 545 CURVE SMOOTH",
"531 536 LINE",
"498 527 LINE",
"498 532 LINE SMOOTH",
"498 625 OFFCURVE",
"393 646 OFFCURVE",
"329 646 CURVE SMOOTH",
"175 646 OFFCURVE",
"142 584 OFFCURVE",
"142 520 CURVE SMOOTH"
);
}
);
userData = {
com.fontlab.hintData = {
hhints = (
{
position = -1;
width = 34;
},
{
position = 646;
width = 35;
}
);
vhints = (
{
position = 100;
width = 42;
},
{
position = 495;
width = 39;
}
);
};
};
width = 589;
}
);
unicode = 0160;
},
{
glyphname = Scedilla;
layers = (
{
layerId = master01;
paths = (
{
closed = 1;
nodes = (
"142 449 OFFCURVE",
"206 409 OFFCURVE",
"316 378 CURVE SMOOTH",
"458 337 OFFCURVE",
"534 275 OFFCURVE",
"534 183 CURVE SMOOTH",
"534 57 OFFCURVE",
"407 -1 OFFCURVE",
"307 -1 CURVE SMOOTH",
"296 -1 OFFCURVE",
"286 0 OFFCURVE",
"276 0 CURVE",
"275 -39 LINE",
"289 -39 LINE SMOOTH",
"342 -39 OFFCURVE",
"381 -71 OFFCURVE",
"381 -122 CURVE SMOOTH",
"381 -169 OFFCURVE",
"344 -207 OFFCURVE",
"297 -207 CURVE SMOOTH",
"273 -207 OFFCURVE",
"251 -198 OFFCURVE",
"235 -182 CURVE",
"252 -166 LINE",
"264 -178 OFFCURVE",
"283 -184 OFFCURVE",
"297 -184 CURVE SMOOTH",
"331 -184 OFFCURVE",
"357 -157 OFFCURVE",
"357 -123 CURVE SMOOTH",
"357 -89 OFFCURVE",
"331 -62 OFFCURVE",
"297 -62 CURVE SMOOTH",
"291 -62 OFFCURVE",
"275 -64 OFFCURVE",
"266 -70 CURVE",
"245 -50 LINE",
"263 2 LINE",
"171 14 OFFCURVE",
"96 65 OFFCURVE",
"67 138 CURVE",
"109 145 LINE",
"142 67 OFFCURVE",
"226 33 OFFCURVE",
"302 33 CURVE SMOOTH",
"404 33 OFFCURVE",
"495 82 OFFCURVE",
"495 183 CURVE SMOOTH",
"495 218 OFFCURVE",
"479 294 OFFCURVE",
"309 340 CURVE SMOOTH",
"212 366 OFFCURVE",
"100 415 OFFCURVE",
"100 519 CURVE SMOOTH",
"100 657 OFFCURVE",
"229 681 OFFCURVE",
"329 681 CURVE SMOOTH",
"418 681 OFFCURVE",
"531 650 OFFCURVE",
"531 545 CURVE SMOOTH",
"531 536 LINE",
"498 527 LINE",
"498 532 LINE SMOOTH",
"498 625 OFFCURVE",
"393 646 OFFCURVE",
"329 646 CURVE SMOOTH",
"175 646 OFFCURVE",
"142 584 OFFCURVE",
"142 520 CURVE SMOOTH"
);
}
);
userData = {
com.fontlab.hintData = {
hhints = (
{
position = -207;
width = 23;
},
{
position = -62;
width = 23;
},
{
position = -1;
width = 34;
},
{
position = 646;
width = 35;
}
);
vhints = (
{
position = 100;
width = 42;
},
{
position = 357;
width = 24;
},
{
position = 495;
width = 39;
}
);
};
};
width = 589;
}
);
unicode = 015E;
},
{
glyphname = Scircumflex;
layers = (
{
layerId = master01;
paths = (
{
closed = 1;
nodes = (
"142 449 OFFCURVE",
"206 409 OFFCURVE",
"316 378 CURVE SMOOTH",
"458 337 OFFCURVE",
"534 275 OFFCURVE",
"534 183 CURVE SMOOTH",
"534 57 OFFCURVE",
"407 -1 OFFCURVE",
"307 -1 CURVE SMOOTH",
"195 -1 OFFCURVE",
"101 54 OFFCURVE",
"67 138 CURVE",
"109 145 LINE",
"142 67 OFFCURVE",
"226 33 OFFCURVE",
"302 33 CURVE SMOOTH",
"404 33 OFFCURVE",
"495 82 OFFCURVE",
"495 183 CURVE SMOOTH",
"495 218 OFFCURVE",
"479 294 OFFCURVE",
"309 340 CURVE SMOOTH",
"212 366 OFFCURVE",
"100 415 OFFCURVE",
"100 519 CURVE SMOOTH",
"100 657 OFFCURVE",
"229 681 OFFCURVE",
"329 681 CURVE SMOOTH",
"418 681 OFFCURVE",
"531 650 OFFCURVE",
"531 545 CURVE SMOOTH",
"531 536 LINE",
"498 527 LINE",
"498 532 LINE SMOOTH",
"498 625 OFFCURVE",
"393 646 OFFCURVE",
"329 646 CURVE SMOOTH",
"175 646 OFFCURVE",
"142 584 OFFCURVE",
"142 520 CURVE SMOOTH"
);
},
{
closed = 1;
nodes = (
"195 771 LINE",
"335 884 LINE",
"454 771 LINE",
"431 745 LINE",
"332 833 LINE",
"217 743 LINE"
);
}
);
userData = {
com.fontlab.hintData = {
hhints = (
{
position = -1;
width = 34;
},
{
position = 646;
width = 35;
}
);
vhints = (
{
position = 100;
width = 42;
},
{
position = 495;
width = 39;
}
);
};
};
width = 589;
}
);
unicode = 015C;
},
{
glyphname = T;
layers = (
{
layerId = master01;
paths = (
{
closed = 1;
nodes = (
"233 644 LINE",
"11 644 LINE",
"11 681 LINE",
"509 681 LINE",
"509 644 LINE",
"271 644 LINE",
"271 9 LINE",
"233 2 LINE"
);
}
);
userData = {
com.fontlab.hintData = {
hhints = (
{
position = 644;
width = 37;
}
);
vhints = (
{
position = 233;
width = 38;
}
);
};
};
width = 512;
}
);
unicode = 0054;
},
{
glyphname = Tcaron;
layers = (
{
layerId = master01;
paths = (
{
closed = 1;
nodes = (
"395 854 LINE",
"255 743 LINE",
"136 855 LINE",
"160 883 LINE",
"258 792 LINE",
"373 884 LINE"
);
},
{
closed = 1;
nodes = (
"233 644 LINE",
"11 644 LINE",
"11 681 LINE",
"509 681 LINE",
"509 644 LINE",
"271 644 LINE",
"271 9 LINE",
"233 2 LINE"
);
}
);
userData = {
com.fontlab.hintData = {
hhints = (
{
position = 644;
width = 37;
}
);
vhints = (
{
position = 233;
width = 38;
}
);
};
};
width = 512;
}
);
unicode = 0164;
},
{
glyphname = U;
layers = (
{
layerId = master01;
paths = (
{
closed = 1;
nodes = (
"107 0 OFFCURVE",
"68 199 OFFCURVE",
"68 463 CURVE SMOOTH",
"68 532 OFFCURVE",
"69 635 OFFCURVE",
"70 671 CURVE",
"107 678 LINE",
"106 655 OFFCURVE",
"105 540 OFFCURVE",
"105 453 CURVE SMOOTH",
"105 233 OFFCURVE",
"130 30 OFFCURVE",
"342 30 CURVE SMOOTH",
"562 30 OFFCURVE",
"579 253 OFFCURVE",
"579 434 CURVE SMOOTH",
"579 513 OFFCURVE",
"578 624 OFFCURVE",
"577 670 CURVE",
"615 678 LINE",
"616 653 OFFCURVE",
"616 556 OFFCURVE",
"616 480 CURVE SMOOTH",
"616 247 OFFCURVE",
"597 0 OFFCURVE",
"342 0 CURVE SMOOTH"
);
}
);
userData = {
com.fontlab.hintData = {
hhints = (
{
position = 0;
width = 30;
}
);
vhints = (
{
position = 68;
width = 37;
},
{
position = 579;
width = 37;
}
);
};
};
width = 674;
}
);
unicode = 0055;
},
{
glyphname = Uacute;
layers = (
{
layerId = master01;
paths = (
{
closed = 1;
nodes = (
"416 896 LINE",
"454 864 LINE",
"304 760 LINE",
"278 784 LINE"
);
},
{
closed = 1;
nodes = (
"107 0 OFFCURVE",
"68 199 OFFCURVE",
"68 463 CURVE SMOOTH",
"68 532 OFFCURVE",
"69 635 OFFCURVE",
"70 671 CURVE",
"107 678 LINE",
"106 655 OFFCURVE",
"105 540 OFFCURVE",
"105 453 CURVE SMOOTH",
"105 233 OFFCURVE",
"130 30 OFFCURVE",
"342 30 CURVE SMOOTH",
"562 30 OFFCURVE",
"579 253 OFFCURVE",
"579 434 CURVE SMOOTH",
"579 513 OFFCURVE",
"578 624 OFFCURVE",
"577 670 CURVE",
"615 678 LINE",
"616 653 OFFCURVE",
"616 556 OFFCURVE",
"616 480 CURVE SMOOTH",
"616 247 OFFCURVE",
"597 0 OFFCURVE",
"342 0 CURVE SMOOTH"
);
}
);
userData = {
com.fontlab.hintData = {
hhints = (
{
position = 0;
width = 30;
}
);
vhints = (
{
position = 68;
width = 37;
},
{
position = 579;
width = 37;
}
);
};
};
width = 674;
}
);
unicode = 00DA;
},
{
glyphname = Ubreve;
layers = (
{
layerId = master01;
paths = (
{
closed = 1;
nodes = (
"107 0 OFFCURVE",
"68 199 OFFCURVE",
"68 463 CURVE SMOOTH",
"68 532 OFFCURVE",
"69 635 OFFCURVE",
"70 671 CURVE",
"107 678 LINE",
"106 655 OFFCURVE",
"105 540 OFFCURVE",
"105 453 CURVE SMOOTH",
"105 233 OFFCURVE",
"130 30 OFFCURVE",
"342 30 CURVE SMOOTH",
"562 30 OFFCURVE",
"579 253 OFFCURVE",
"579 434 CURVE SMOOTH",
"579 513 OFFCURVE",
"578 624 OFFCURVE",
"577 670 CURVE",
"615 678 LINE",
"616 653 OFFCURVE",
"616 556 OFFCURVE",
"616 480 CURVE SMOOTH",
"616 247 OFFCURVE",
"597 0 OFFCURVE",
"342 0 CURVE SMOOTH"
);
},
{
closed = 1;
nodes = (
"396 788 OFFCURVE",
"444 813 OFFCURVE",
"464 862 CURVE",
"482 845 LINE",
"461 796 OFFCURVE",
"404 761 OFFCURVE",
"345 761 CURVE SMOOTH",
"279 761 OFFCURVE",
"225 793 OFFCURVE",
"200 841 CURVE",
"216 858 LINE",
"254 800 OFFCURVE",
"304 788 OFFCURVE",
"343 788 CURVE SMOOTH"
);
}
);
userData = {
com.fontlab.hintData = {
hhints = (
{
position = 0;
width = 30;
},
{
position = 761;
width = 27;
}
);
vhints = (
{
position = 68;
width = 37;
},
{
position = 579;
width = 37;
}
);
};
};
width = 674;
}
);
unicode = 016C;
},
{
glyphname = Ucircumflex;
layers = (
{
layerId = master01;
paths = (
{
closed = 1;
nodes = (
"216 771 LINE",
"357 884 LINE",
"475 771 LINE",
"452 745 LINE",
"356 833 LINE",
"238 744 LINE"
);
},
{
closed = 1;
nodes = (
"107 0 OFFCURVE",
"68 199 OFFCURVE",
"68 463 CURVE SMOOTH",
"68 532 OFFCURVE",
"69 635 OFFCURVE",
"70 671 CURVE",
"107 678 LINE",
"106 655 OFFCURVE",
"105 540 OFFCURVE",
"105 453 CURVE SMOOTH",
"105 233 OFFCURVE",
"130 30 OFFCURVE",
"342 30 CURVE SMOOTH",
"562 30 OFFCURVE",
"579 253 OFFCURVE",
"579 434 CURVE SMOOTH",
"579 513 OFFCURVE",
"578 624 OFFCURVE",
"577 670 CURVE",
"615 678 LINE",
"616 653 OFFCURVE",
"616 556 OFFCURVE",
"616 480 CURVE SMOOTH",
"616 247 OFFCURVE",
"597 0 OFFCURVE",
"342 0 CURVE SMOOTH"
);
}
);
userData = {
com.fontlab.hintData = {
hhints = (
{
position = 0;
width = 30;
}
);
vhints = (
{
position = 68;
width = 37;
},
{
position = 579;
width = 37;
}
);
};
};
width = 674;
}
);
unicode = 00DB;
},
{
glyphname = Udieresis;
layers = (
{
layerId = master01;
paths = (
{
closed = 1;
nodes = (
"294 758 LINE",
"240 750 LINE",
"246 814 LINE",
"301 822 LINE"
);
},
{
closed = 1;
nodes = (
"459 758 LINE",
"405 750 LINE",
"411 814 LINE",
"466 822 LINE"
);
},
{
closed = 1;
nodes = (
"107 0 OFFCURVE",
"68 199 OFFCURVE",
"68 463 CURVE SMOOTH",
"68 532 OFFCURVE",
"69 635 OFFCURVE",
"70 671 CURVE",
"107 678 LINE",
"106 655 OFFCURVE",
"105 540 OFFCURVE",
"105 453 CURVE SMOOTH",
"105 233 OFFCURVE",
"130 30 OFFCURVE",
"342 30 CURVE SMOOTH",
"562 30 OFFCURVE",
"579 253 OFFCURVE",
"579 434 CURVE SMOOTH",
"579 513 OFFCURVE",
"578 624 OFFCURVE",
"577 670 CURVE",
"615 678 LINE",
"616 653 OFFCURVE",
"616 556 OFFCURVE",
"616 480 CURVE SMOOTH",
"616 247 OFFCURVE",
"597 0 OFFCURVE",
"342 0 CURVE SMOOTH"
);
}
);
userData = {
com.fontlab.hintData = {
hhints = (
{
position = 0;
width = 30;
}
);
vhints = (
{
position = 68;
width = 37;
},
{
position = 579;
width = 37;
}
);
};
};
width = 674;
}
);
unicode = 00DC;
},
{
glyphname = Ugrave;
layers = (
{
layerId = master01;
paths = (
{
closed = 1;
nodes = (
"396 750 LINE",
"268 879 LINE",
"309 904 LINE",
"426 770 LINE"
);
},
{
closed = 1;
nodes = (
"107 0 OFFCURVE",
"68 199 OFFCURVE",
"68 463 CURVE SMOOTH",
"68 532 OFFCURVE",
"69 635 OFFCURVE",
"70 671 CURVE",
"107 678 LINE",
"106 655 OFFCURVE",
"105 540 OFFCURVE",
"105 453 CURVE SMOOTH",
"105 233 OFFCURVE",
"130 30 OFFCURVE",
"342 30 CURVE SMOOTH",
"562 30 OFFCURVE",
"579 253 OFFCURVE",
"579 434 CURVE SMOOTH",
"579 513 OFFCURVE",
"578 624 OFFCURVE",
"577 670 CURVE",
"615 678 LINE",
"616 653 OFFCURVE",
"616 556 OFFCURVE",
"616 480 CURVE SMOOTH",
"616 247 OFFCURVE",
"597 0 OFFCURVE",
"342 0 CURVE SMOOTH"
);
}
);
userData = {
com.fontlab.hintData = {
hhints = (
{
position = 0;
width = 30;
}
);
vhints = (
{
position = 68;
width = 37;
},
{
position = 579;
width = 37;
}
);
};
};
width = 674;
}
);
unicode = 00D9;
},
{
glyphname = Uhungarumlaut;
layers = (
{
layerId = master01;
paths = (
{
closed = 1;
nodes = (
"337 896 LINE",
"375 864 LINE",
"225 760 LINE",
"199 784 LINE"
);
},
{
closed = 1;
nodes = (
"503 896 LINE",
"540 864 LINE",
"390 760 LINE",
"365 784 LINE"
);
},
{
closed = 1;
nodes = (
"107 0 OFFCURVE",
"68 199 OFFCURVE",
"68 463 CURVE SMOOTH",
"68 532 OFFCURVE",
"69 635 OFFCURVE",
"70 671 CURVE",
"107 678 LINE",
"106 655 OFFCURVE",
"105 540 OFFCURVE",
"105 453 CURVE SMOOTH",
"105 233 OFFCURVE",
"130 30 OFFCURVE",
"342 30 CURVE SMOOTH",
"562 30 OFFCURVE",
"579 253 OFFCURVE",
"579 434 CURVE SMOOTH",
"579 513 OFFCURVE",
"578 624 OFFCURVE",
"577 670 CURVE",
"615 678 LINE",
"616 653 OFFCURVE",
"616 556 OFFCURVE",
"616 480 CURVE SMOOTH",
"616 247 OFFCURVE",
"597 0 OFFCURVE",
"342 0 CURVE SMOOTH"
);
}
);
userData = {
com.fontlab.hintData = {
hhints = (
{
position = 0;
width = 30;
}
);
vhints = (
{
position = 68;
width = 37;
},
{
position = 579;
width = 37;
}
);
};
};
width = 674;
}
);
unicode = 0170;
},
{
glyphname = Uring;
layers = (
{
layerId = master01;
paths = (
{
closed = 1;
nodes = (
"107 0 OFFCURVE",
"68 199 OFFCURVE",
"68 463 CURVE SMOOTH",
"68 532 OFFCURVE",
"69 635 OFFCURVE",
"70 671 CURVE",
"107 678 LINE",
"106 655 OFFCURVE",
"105 540 OFFCURVE",
"105 453 CURVE SMOOTH",
"105 233 OFFCURVE",
"130 30 OFFCURVE",
"342 30 CURVE SMOOTH",
"562 30 OFFCURVE",
"579 253 OFFCURVE",
"579 434 CURVE SMOOTH",
"579 513 OFFCURVE",
"578 624 OFFCURVE",
"577 670 CURVE",
"615 678 LINE",
"616 653 OFFCURVE",
"616 556 OFFCURVE",
"616 480 CURVE SMOOTH",
"616 247 OFFCURVE",
"597 0 OFFCURVE",
"342 0 CURVE SMOOTH"
);
},
{
closed = 1;
nodes = (
"280 743 OFFCURVE",
"236 786 OFFCURVE",
"236 838 CURVE SMOOTH",
"236 897 OFFCURVE",
"293 948 OFFCURVE",
"363 948 CURVE SMOOTH",
"429 948 OFFCURVE",
"470 900 OFFCURVE",
"470 853 CURVE SMOOTH",
"470 783 OFFCURVE",
"402 743 OFFCURVE",
"343 743 CURVE SMOOTH"
);
},
{
closed = 1;
nodes = (
"320 923 OFFCURVE",
"261 890 OFFCURVE",
"261 838 CURVE SMOOTH",
"261 797 OFFCURVE",
"296 767 OFFCURVE",
"345 767 CURVE SMOOTH",
"393 767 OFFCURVE",
"444 804 OFFCURVE",
"444 850 CURVE SMOOTH",
"444 891 OFFCURVE",
"408 923 OFFCURVE",
"360 923 CURVE SMOOTH"
);
}
);
userData = {
com.fontlab.hintData = {
hhints = (
{
position = 0;
width = 30;
},
{
position = 743;
width = 24;
},
{
position = 923;
width = 25;
}
);
vhints = (
{
position = 68;
width = 37;
},
{
position = 236;
width = 25;
},
{
position = 444;
width = 26;
},
{
position = 579;
width = 37;
}
);
};
};
width = 674;
}
);
unicode = 016E;
},
{
glyphname = V;
layers = (
{
layerId = master01;
paths = (
{
closed = 1;
nodes = (
"489 677 LINE",
"525 663 LINE",
"277 10 LINE",
"227 1 LINE",
"15 662 LINE",
"49 677 LINE",
"251 46 LINE"
);
}
);
userData = {
com.fontlab.hintData = {
hhints = (
{
position = 1;
width = 21;
}
);
};
};
width = 530;
}
);
unicode = 0056;
},
{
glyphname = W;
layers = (
{
layerId = master01;
paths = (
{
closed = 1;
nodes = (
"641 10 LINE",
"592 1 LINE",
"436 626 LINE",
"251 10 LINE",
"210 1 LINE",
"12 673 LINE",
"47 680 LINE",
"230 55 LINE",
"414 671 LINE",
"459 680 LINE",
"616 48 LINE",
"827 670 LINE",
"868 678 LINE"
);
}
);
userData = {
com.fontlab.hintData = {
hhints = (
{
position = 1;
width = 21;
},
{
position = 660;
width = 20;
}
);
};
};
width = 868;
}
);
unicode = 0057;
},
{
glyphname = X;
layers = (
{
layerId = master01;
paths = (
{
closed = 1;
nodes = (
"529 0 LINE",
"313 313 LINE",
"83 0 LINE",
"53 22 LINE",
"291 346 LINE",
"75 660 LINE",
"106 681 LINE",
"314 377 LINE",
"537 681 LINE",
"567 659 LINE",
"336 345 LINE",
"559 21 LINE"
);
}
);
userData = {
com.fontlab.hintData = {
hhints = (
{
position = 0;
width = 21;
},
{
position = 661;
width = 20;
}
);
};
};
width = 636;
}
);
unicode = 0058;
},
{
glyphname = Y;
layers = (
{
layerId = master01;
paths = (
{
closed = 1;
nodes = (
"579 677 LINE",
"619 677 LINE",
"217 0 LINE",
"178 0 LINE",
"301 210 LINE",
"29 677 LINE",
"68 677 LINE",
"322 243 LINE"
);
}
);
userData = {
com.fontlab.hintData = {
hhints = (
{
position = 0;
width = 21;
}
);
};
};
width = 618;
}
);
unicode = 0059;
},
{
glyphname = Yacute;
layers = (
{
layerId = master01;
paths = (
{
closed = 1;
nodes = (
"388 896 LINE",
"426 864 LINE",
"275 760 LINE",
"250 784 LINE"
);
},
{
closed = 1;
nodes = (
"579 677 LINE",
"619 677 LINE",
"217 0 LINE",
"178 0 LINE",
"301 210 LINE",
"29 677 LINE",
"68 677 LINE",
"322 243 LINE"
);
}
);
userData = {
com.fontlab.hintData = {
hhints = (
{
position = 0;
width = 21;
}
);
};
};
width = 618;
}
);
unicode = 00DD;
},
{
glyphname = Ydieresis;
layers = (
{
layerId = master01;
paths = (
{
closed = 1;
nodes = (
"278 758 LINE",
"224 750 LINE",
"230 814 LINE",
"285 822 LINE"
);
},
{
closed = 1;
nodes = (
"442 758 LINE",
"389 750 LINE",
"395 814 LINE",
"450 822 LINE"
);
},
{
closed = 1;
nodes = (
"579 677 LINE",
"619 677 LINE",
"217 0 LINE",
"178 0 LINE",
"301 210 LINE",
"29 677 LINE",
"68 677 LINE",
"322 243 LINE"
);
}
);
userData = {
com.fontlab.hintData = {
hhints = (
{
position = 0;
width = 21;
}
);
};
};
width = 618;
}
);
unicode = 0178;
},
{
glyphname = Z;
layers = (
{
layerId = master01;
paths = (
{
closed = 1;
nodes = (
"52 44 LINE",
"518 639 LINE",
"83 639 LINE",
"92 681 LINE",
"547 681 LINE",
"567 637 LINE",
"100 42 LINE",
"557 42 LINE",
"549 0 LINE",
"72 0 LINE"
);
}
);
userData = {
com.fontlab.hintData = {
hhints = (
{
position = 0;
width = 42;
},
{
position = 639;
width = 42;
}
);
};
};
width = 611;
}
);
unicode = 005A;
},
{
glyphname = Zacute;
layers = (
{
layerId = master01;
paths = (
{
closed = 1;
nodes = (
"391 896 LINE",
"429 864 LINE",
"278 760 LINE",
"253 784 LINE"
);
},
{
closed = 1;
nodes = (
"52 44 LINE",
"518 639 LINE",
"83 639 LINE",
"92 681 LINE",
"547 681 LINE",
"567 637 LINE",
"100 42 LINE",
"557 42 LINE",
"549 0 LINE",
"72 0 LINE"
);
}
);
userData = {
com.fontlab.hintData = {
hhints = (
{
position = 0;
width = 42;
},
{
position = 639;
width = 42;
}
);
};
};
width = 611;
}
);
unicode = 0179;
},
{
glyphname = Zcaron;
layers = (
{
layerId = master01;
paths = (
{
closed = 1;
nodes = (
"448 854 LINE",
"308 743 LINE",
"189 855 LINE",
"213 883 LINE",
"311 792 LINE",
"426 884 LINE"
);
},
{
closed = 1;
nodes = (
"52 44 LINE",
"518 639 LINE",
"83 639 LINE",
"92 681 LINE",
"547 681 LINE",
"567 637 LINE",
"100 42 LINE",
"557 42 LINE",
"549 0 LINE",
"72 0 LINE"
);
}
);
userData = {
com.fontlab.hintData = {
hhints = (
{
position = 0;
width = 42;
},
{
position = 639;
width = 42;
}
);
};
};
width = 611;
}
);
unicode = 017D;
},
{
glyphname = Zdotaccent;
layers = (
{
layerId = master01;
paths = (
{
closed = 1;
nodes = (
"52 44 LINE",
"518 639 LINE",
"83 639 LINE",
"92 681 LINE",
"547 681 LINE",
"567 637 LINE",
"100 42 LINE",
"557 42 LINE",
"549 0 LINE",
"72 0 LINE"
);
},
{
closed = 1;
nodes = (
"333 759 LINE",
"280 751 LINE",
"286 815 LINE",
"341 823 LINE"
);
}
);
userData = {
com.fontlab.hintData = {
hhints = (
{
position = 0;
width = 42;
},
{
position = 639;
width = 42;
}
);
};
};
width = 611;
}
);
unicode = 017B;
},
{
glyphname = uni0162;
layers = (
{
layerId = master01;
paths = (
{
closed = 1;
nodes = (
"233 644 LINE",
"11 644 LINE",
"11 681 LINE",
"509 681 LINE",
"509 644 LINE",
"271 644 LINE",
"271 9 LINE",
"233 2 LINE"
);
},
{
closed = 1;
nodes = (
"316 -73 LINE",
"230 -227 LINE",
"198 -208 LINE",
"254 -109 LINE",
"217 -88 LINE",
"259 -43 LINE"
);
}
);
userData = {
com.fontlab.hintData = {
hhints = (
{
position = 644;
width = 37;
}
);
vhints = (
{
position = 233;
width = 38;
}
);
};
};
width = 512;
}
);
unicode = 0162;
},
{
glyphname = a;
layers = (
{
layerId = master01;
paths = (
{
closed = 1;
nodes = (
"437 10 LINE",
"399 2 LINE",
"399 65 LINE",
"357 39 OFFCURVE",
"293 7 OFFCURVE",
"238 7 CURVE SMOOTH",
"131 7 OFFCURVE",
"52 95 OFFCURVE",
"52 222 CURVE SMOOTH",
"52 325 OFFCURVE",
"116 513 OFFCURVE",
"289 513 CURVE SMOOTH",
"342 513 OFFCURVE",
"392 497 OFFCURVE",
"437 475 CURVE"
);
},
{
closed = 1;
nodes = (
"301 44 OFFCURVE",
"372 91 OFFCURVE",
"397 109 CURVE",
"402 450 LINE",
"378 459 OFFCURVE",
"329 477 OFFCURVE",
"294 477 CURVE SMOOTH",
"144 477 OFFCURVE",
"91 316 OFFCURVE",
"91 224 CURVE SMOOTH",
"91 144 OFFCURVE",
"129 46 OFFCURVE",
"236 44 CURVE"
);
}
);
userData = {
com.fontlab.hintData = {
hhints = (
{
position = 7;
width = 37;
},
{
position = 477;
width = 36;
}
);
vhints = (
{
position = 52;
width = 39;
},
{
position = 399;
width = 38;
}
);
};
};
width = 494;
}
);
unicode = 0061;
},
{
glyphname = aacute;
layers = (
{
layerId = master01;
paths = (
{
closed = 1;
nodes = (
"321 730 LINE",
"359 698 LINE",
"207 593 LINE",
"182 617 LINE"
);
},
{
closed = 1;
nodes = (
"437 10 LINE",
"399 2 LINE",
"399 65 LINE",
"357 39 OFFCURVE",
"293 7 OFFCURVE",
"238 7 CURVE SMOOTH",
"131 7 OFFCURVE",
"52 95 OFFCURVE",
"52 222 CURVE SMOOTH",
"52 325 OFFCURVE",
"116 513 OFFCURVE",
"289 513 CURVE SMOOTH",
"342 513 OFFCURVE",
"392 497 OFFCURVE",
"437 475 CURVE"
);
},
{
closed = 1;
nodes = (
"301 44 OFFCURVE",
"372 91 OFFCURVE",
"397 109 CURVE",
"402 450 LINE",
"378 459 OFFCURVE",
"329 477 OFFCURVE",
"294 477 CURVE SMOOTH",
"144 477 OFFCURVE",
"91 316 OFFCURVE",
"91 224 CURVE SMOOTH",
"91 144 OFFCURVE",
"129 46 OFFCURVE",
"236 44 CURVE"
);
}
);
userData = {
com.fontlab.hintData = {
hhints = (
{
position = 7;
width = 37;
},
{
position = 477;
width = 36;
}
);
vhints = (
{
position = 52;
width = 39;
},
{
position = 399;
width = 38;
}
);
};
};
width = 494;
}
);
unicode = 00E1;
},
{
glyphname = abreve;
layers = (
{
layerId = master01;
paths = (
{
closed = 1;
nodes = (
"437 10 LINE",
"399 2 LINE",
"399 65 LINE",
"357 39 OFFCURVE",
"293 7 OFFCURVE",
"238 7 CURVE SMOOTH",
"131 7 OFFCURVE",
"52 95 OFFCURVE",
"52 222 CURVE SMOOTH",
"52 325 OFFCURVE",
"116 513 OFFCURVE",
"289 513 CURVE SMOOTH",
"342 513 OFFCURVE",
"392 497 OFFCURVE",
"437 475 CURVE"
);
},
{
closed = 1;
nodes = (
"301 44 OFFCURVE",
"372 91 OFFCURVE",
"397 109 CURVE",
"402 450 LINE",
"378 459 OFFCURVE",
"329 477 OFFCURVE",
"294 477 CURVE SMOOTH",
"144 477 OFFCURVE",
"91 316 OFFCURVE",
"91 224 CURVE SMOOTH",
"91 144 OFFCURVE",
"129 46 OFFCURVE",
"236 44 CURVE"
);
},
{
closed = 1;
nodes = (
"337 609 OFFCURVE",
"385 634 OFFCURVE",
"405 683 CURVE",
"423 666 LINE",
"402 617 OFFCURVE",
"345 582 OFFCURVE",
"286 582 CURVE SMOOTH",
"220 582 OFFCURVE",
"166 614 OFFCURVE",
"141 662 CURVE",
"157 679 LINE",
"195 621 OFFCURVE",
"245 609 OFFCURVE",
"284 609 CURVE SMOOTH"
);
}
);
userData = {
com.fontlab.hintData = {
hhints = (
{
position = 7;
width = 37;
},
{
position = 477;
width = 36;
},
{
position = 582;
width = 27;
},
{
position = 663;
width = 20;
}
);
vhints = (
{
position = 52;
width = 39;
},
{
position = 399;
width = 38;
}
);
};
};
width = 494;
}
);
unicode = 0103;
},
{
glyphname = acircumflex;
layers = (
{
layerId = master01;
paths = (
{
closed = 1;
nodes = (
"151 603 LINE",
"294 718 LINE",
"414 603 LINE",
"391 577 LINE",
"291 667 LINE",
"173 575 LINE"
);
},
{
closed = 1;
nodes = (
"437 10 LINE",
"399 2 LINE",
"399 65 LINE",
"357 39 OFFCURVE",
"293 7 OFFCURVE",
"238 7 CURVE SMOOTH",
"131 7 OFFCURVE",
"52 95 OFFCURVE",
"52 222 CURVE SMOOTH",
"52 325 OFFCURVE",
"116 513 OFFCURVE",
"289 513 CURVE SMOOTH",
"342 513 OFFCURVE",
"392 497 OFFCURVE",
"437 475 CURVE"
);
},
{
closed = 1;
nodes = (
"301 44 OFFCURVE",
"372 91 OFFCURVE",
"397 109 CURVE",
"402 450 LINE",
"378 459 OFFCURVE",
"329 477 OFFCURVE",
"294 477 CURVE SMOOTH",
"144 477 OFFCURVE",
"91 316 OFFCURVE",
"91 224 CURVE SMOOTH",
"91 144 OFFCURVE",
"129 46 OFFCURVE",
"236 44 CURVE"
);
}
);
userData = {
com.fontlab.hintData = {
hhints = (
{
position = 7;
width = 37;
},
{
position = 477;
width = 36;
}
);
vhints = (
{
position = 52;
width = 39;
},
{
position = 399;
width = 38;
}
);
};
};
width = 494;
}
);
unicode = 00E2;
},
{
glyphname = adieresis;
layers = (
{
layerId = master01;
paths = (
{
closed = 1;
nodes = (
"225 604 LINE",
"171 596 LINE",
"177 660 LINE",
"233 669 LINE"
);
},
{
closed = 1;
nodes = (
"392 604 LINE",
"338 596 LINE",
"344 660 LINE",
"399 669 LINE"
);
},
{
closed = 1;
nodes = (
"437 10 LINE",
"399 2 LINE",
"399 65 LINE",
"357 39 OFFCURVE",
"293 7 OFFCURVE",
"238 7 CURVE SMOOTH",
"131 7 OFFCURVE",
"52 95 OFFCURVE",
"52 222 CURVE SMOOTH",
"52 325 OFFCURVE",
"116 513 OFFCURVE",
"289 513 CURVE SMOOTH",
"342 513 OFFCURVE",
"392 497 OFFCURVE",
"437 475 CURVE"
);
},
{
closed = 1;
nodes = (
"301 44 OFFCURVE",
"372 91 OFFCURVE",
"397 109 CURVE",
"402 450 LINE",
"378 459 OFFCURVE",
"329 477 OFFCURVE",
"294 477 CURVE SMOOTH",
"144 477 OFFCURVE",
"91 316 OFFCURVE",
"91 224 CURVE SMOOTH",
"91 144 OFFCURVE",
"129 46 OFFCURVE",
"236 44 CURVE"
);
}
);
userData = {
com.fontlab.hintData = {
hhints = (
{
position = 7;
width = 37;
},
{
position = 477;
width = 36;
}
);
vhints = (
{
position = 52;
width = 39;
},
{
position = 399;
width = 38;
}
);
};
};
width = 494;
}
);
unicode = 00E4;
},
{
glyphname = agrave;
layers = (
{
layerId = master01;
paths = (
{
closed = 1;
nodes = (
"301 582 LINE",
"171 713 LINE",
"214 736 LINE",
"332 602 LINE"
);
},
{
closed = 1;
nodes = (
"437 10 LINE",
"399 2 LINE",
"399 65 LINE",
"357 39 OFFCURVE",
"293 7 OFFCURVE",
"238 7 CURVE SMOOTH",
"131 7 OFFCURVE",
"52 95 OFFCURVE",
"52 222 CURVE SMOOTH",
"52 325 OFFCURVE",
"116 513 OFFCURVE",
"289 513 CURVE SMOOTH",
"342 513 OFFCURVE",
"392 497 OFFCURVE",
"437 475 CURVE"
);
},
{
closed = 1;
nodes = (
"301 44 OFFCURVE",
"372 91 OFFCURVE",
"397 109 CURVE",
"402 450 LINE",
"378 459 OFFCURVE",
"329 477 OFFCURVE",
"294 477 CURVE SMOOTH",
"144 477 OFFCURVE",
"91 316 OFFCURVE",
"91 224 CURVE SMOOTH",
"91 144 OFFCURVE",
"129 46 OFFCURVE",
"236 44 CURVE"
);
}
);
userData = {
com.fontlab.hintData = {
hhints = (
{
position = 7;
width = 37;
},
{
position = 477;
width = 36;
}
);
vhints = (
{
position = 52;
width = 39;
},
{
position = 399;
width = 38;
}
);
};
};
width = 494;
}
);
unicode = 00E0;
},
{
glyphname = aogonek;
layers = (
{
layerId = master01;
paths = (
{
closed = 1;
nodes = (
"402 -15 LINE SMOOTH",
"375 -35 OFFCURVE",
"336 -63 OFFCURVE",
"336 -113 CURVE SMOOTH",
"336 -152 OFFCURVE",
"366 -177 OFFCURVE",
"404 -177 CURVE SMOOTH",
"439 -177 OFFCURVE",
"455 -166 OFFCURVE",
"479 -149 CURVE",
"496 -172 LINE",
"478 -191 OFFCURVE",
"441 -209 OFFCURVE",
"404 -209 CURVE SMOOTH",
"347 -209 OFFCURVE",
"305 -168 OFFCURVE",
"305 -112 CURVE SMOOTH",
"305 -53 OFFCURVE",
"356 -4 OFFCURVE",
"399 20 CURVE",
"399 65 LINE",
"357 39 OFFCURVE",
"293 7 OFFCURVE",
"238 7 CURVE SMOOTH",
"131 7 OFFCURVE",
"52 95 OFFCURVE",
"52 222 CURVE SMOOTH",
"52 325 OFFCURVE",
"116 513 OFFCURVE",
"289 513 CURVE SMOOTH",
"342 513 OFFCURVE",
"392 497 OFFCURVE",
"437 475 CURVE",
"437 10 LINE"
);
},
{
closed = 1;
nodes = (
"301 44 OFFCURVE",
"372 91 OFFCURVE",
"397 109 CURVE",
"402 450 LINE",
"378 459 OFFCURVE",
"329 477 OFFCURVE",
"294 477 CURVE SMOOTH",
"144 477 OFFCURVE",
"91 316 OFFCURVE",
"91 224 CURVE SMOOTH",
"91 144 OFFCURVE",
"129 46 OFFCURVE",
"236 44 CURVE"
);
}
);
userData = {
com.fontlab.hintData = {
hhints = (
{
position = -209;
width = 32;
},
{
position = 7;
width = 37;
},
{
position = 477;
width = 36;
}
);
vhints = (
{
position = 52;
width = 39;
},
{
position = 305;
width = 31;
},
{
position = 399;
width = 38;
}
);
};
};
width = 500;
}
);
unicode = 0105;
},
{
glyphname = aring;
layers = (
{
layerId = master01;
paths = (
{
closed = 1;
nodes = (
"437 10 LINE",
"399 2 LINE",
"399 65 LINE",
"357 39 OFFCURVE",
"293 7 OFFCURVE",
"238 7 CURVE SMOOTH",
"131 7 OFFCURVE",
"52 95 OFFCURVE",
"52 222 CURVE SMOOTH",
"52 325 OFFCURVE",
"116 513 OFFCURVE",
"289 513 CURVE SMOOTH",
"342 513 OFFCURVE",
"392 497 OFFCURVE",
"437 475 CURVE"
);
},
{
closed = 1;
nodes = (
"301 44 OFFCURVE",
"372 91 OFFCURVE",
"397 109 CURVE",
"402 450 LINE",
"378 459 OFFCURVE",
"329 477 OFFCURVE",
"294 477 CURVE SMOOTH",
"144 477 OFFCURVE",
"91 316 OFFCURVE",
"91 224 CURVE SMOOTH",
"91 144 OFFCURVE",
"129 46 OFFCURVE",
"236 44 CURVE"
);
},
{
closed = 1;
nodes = (
"203 587 OFFCURVE",
"159 630 OFFCURVE",
"159 682 CURVE SMOOTH",
"159 741 OFFCURVE",
"216 792 OFFCURVE",
"286 792 CURVE SMOOTH",
"352 792 OFFCURVE",
"393 744 OFFCURVE",
"393 697 CURVE SMOOTH",
"393 627 OFFCURVE",
"325 587 OFFCURVE",
"266 587 CURVE SMOOTH"
);
},
{
closed = 1;
nodes = (
"243 767 OFFCURVE",
"184 734 OFFCURVE",
"184 682 CURVE SMOOTH",
"184 641 OFFCURVE",
"219 611 OFFCURVE",
"268 611 CURVE SMOOTH",
"316 611 OFFCURVE",
"367 648 OFFCURVE",
"367 694 CURVE SMOOTH",
"367 735 OFFCURVE",
"331 767 OFFCURVE",
"283 767 CURVE SMOOTH"
);
}
);
userData = {
com.fontlab.hintData = {
hhints = (
{
position = 7;
width = 37;
},
{
position = 477;
width = 36;
},
{
position = 587;
width = 24;
},
{
position = 767;
width = 25;
}
);
vhints = (
{
position = 52;
width = 39;
},
{
position = 159;
width = 25;
},
{
position = 367;
width = 26;
},
{
position = 399;
width = 38;
}
);
};
};
width = 494;
}
);
unicode = 00E5;
},
{
glyphname = atilde;
layers = (
{
layerId = master01;
paths = (
{
closed = 1;
nodes = (
"437 10 LINE",
"399 2 LINE",
"399 65 LINE",
"357 39 OFFCURVE",
"293 7 OFFCURVE",
"238 7 CURVE SMOOTH",
"131 7 OFFCURVE",
"52 95 OFFCURVE",
"52 222 CURVE SMOOTH",
"52 325 OFFCURVE",
"116 513 OFFCURVE",
"289 513 CURVE SMOOTH",
"342 513 OFFCURVE",
"392 497 OFFCURVE",
"437 475 CURVE"
);
},
{
closed = 1;
nodes = (
"301 44 OFFCURVE",
"372 91 OFFCURVE",
"397 109 CURVE",
"402 450 LINE",
"378 459 OFFCURVE",
"329 477 OFFCURVE",
"294 477 CURVE SMOOTH",
"144 477 OFFCURVE",
"91 316 OFFCURVE",
"91 224 CURVE SMOOTH",
"91 144 OFFCURVE",
"129 46 OFFCURVE",
"236 44 CURVE"
);
},
{
closed = 1;
nodes = (
"306 617 OFFCURVE",
"317 610 OFFCURVE",
"338 610 CURVE SMOOTH",
"376 610 OFFCURVE",
"400 657 OFFCURVE",
"411 691 CURVE",
"442 681 LINE",
"425 625 OFFCURVE",
"382 579 OFFCURVE",
"338 579 CURVE SMOOTH",
"297 579 OFFCURVE",
"274 610 OFFCURVE",
"255 637 CURVE SMOOTH",
"229 674 OFFCURVE",
"218 680 OFFCURVE",
"198 680 CURVE SMOOTH",
"164 680 OFFCURVE",
"138 638 OFFCURVE",
"128 607 CURVE",
"98 617 LINE",
"114 661 OFFCURVE",
"146 712 OFFCURVE",
"198 712 CURVE SMOOTH",
"240 712 OFFCURVE",
"262 681 OFFCURVE",
"280 656 CURVE SMOOTH"
);
}
);
userData = {
com.fontlab.hintData = {
hhints = (
{
position = 7;
width = 37;
},
{
position = 477;
width = 36;
},
{
position = 579;
width = 31;
},
{
position = 680;
width = 32;
}
);
vhints = (
{
position = 52;
width = 39;
},
{
position = 399;
width = 38;
},
{
position = 411;
width = 31;
}
);
};
};
width = 503;
}
);
unicode = 00E3;
},
{
glyphname = ae;
layers = (
{
layerId = master01;
paths = (
{
closed = 1;
nodes = (
"554 0 OFFCURVE",
"479 46 OFFCURVE",
"437 117 CURVE",
"437 10 LINE",
"399 2 LINE",
"399 65 LINE",
"357 39 OFFCURVE",
"293 7 OFFCURVE",
"238 7 CURVE SMOOTH",
"131 7 OFFCURVE",
"52 95 OFFCURVE",
"52 222 CURVE SMOOTH",
"52 325 OFFCURVE",
"116 513 OFFCURVE",
"289 513 CURVE SMOOTH",
"342 513 OFFCURVE",
"392 497 OFFCURVE",
"437 475 CURVE",
"437 385 LINE",
"479 455 OFFCURVE",
"554 502 OFFCURVE",
"641 502 CURVE SMOOTH",
"725 502 OFFCURVE",
"795 441 OFFCURVE",
"820 365 CURVE",
"451 160 LINE",
"489 84 OFFCURVE",
"560 32 OFFCURVE",
"641 32 CURVE SMOOTH",
"693 32 OFFCURVE",
"743 54 OFFCURVE",
"782 91 CURVE",
"805 68 LINE",
"759 25 OFFCURVE",
"701 0 OFFCURVE",
"641 0 CURVE SMOOTH"
);
},
{
closed = 1;
nodes = (
"301 44 OFFCURVE",
"372 91 OFFCURVE",
"397 109 CURVE",
"402 450 LINE",
"378 459 OFFCURVE",
"329 477 OFFCURVE",
"294 477 CURVE SMOOTH",
"144 477 OFFCURVE",
"91 316 OFFCURVE",
"91 224 CURVE SMOOTH",
"91 144 OFFCURVE",
"129 46 OFFCURVE",
"236 44 CURVE"
);
},
{
closed = 1;
nodes = (
"523 470 OFFCURVE",
"433 367 OFFCURVE",
"433 251 CURVE SMOOTH",
"433 233 OFFCURVE",
"436 214 OFFCURVE",
"442 190 CURVE",
"780 379 LINE",
"748 436 OFFCURVE",
"696 470 OFFCURVE",
"643 470 CURVE SMOOTH"
);
}
);
userData = {
com.fontlab.hintData = {
hhints = (
{
position = 0;
width = 32;
},
{
position = 7;
width = 37;
},
{
position = 470;
width = 32;
},
{
position = 477;
width = 36;
}
);
vhints = (
{
position = 52;
width = 39;
},
{
position = 399;
width = 38;
}
);
};
};
width = 854;
}
);
unicode = 00E6;
},
{
glyphname = b;
layers = (
{
layerId = master01;
paths = (
{
closed = 1;
nodes = (
"430 490 OFFCURVE",
"477 372 OFFCURVE",
"477 269 CURVE SMOOTH",
"477 216 OFFCURVE",
"473 1 OFFCURVE",
"259 1 CURVE SMOOTH",
"206 1 OFFCURVE",
"144 20 OFFCURVE",
"105 35 CURVE",
"105 2 LINE",
"67 9 LINE",
"67 689 LINE",
"105 698 LINE",
"105 382 LINE",
"151 448 OFFCURVE",
"231 490 OFFCURVE",
"323 490 CURVE SMOOTH"
);
},
{
closed = 1;
nodes = (
"389 36 OFFCURVE",
"442 136 OFFCURVE",
"442 269 CURVE SMOOTH",
"442 336 OFFCURVE",
"415 452 OFFCURVE",
"309 452 CURVE SMOOTH",
"191 452 OFFCURVE",
"105 381 OFFCURVE",
"105 293 CURVE SMOOTH",
"105 69 LINE",
"127 58 OFFCURVE",
"189 36 OFFCURVE",
"251 36 CURVE SMOOTH"
);
}
);
userData = {
com.fontlab.hintData = {
hhints = (
{
position = 1;
width = 35;
},
{
position = 452;
width = 38;
}
);
vhints = (
{
position = 67;
width = 38;
},
{
position = 442;
width = 35;
}
);
};
};
width = 518;
}
);
unicode = 0062;
},
{
glyphname = c;
layers = (
{
layerId = master01;
paths = (
{
closed = 1;
nodes = (
"342 36 OFFCURVE",
"397 67 OFFCURVE",
"427 115 CURVE",
"452 90 LINE",
"415 35 OFFCURVE",
"353 3 OFFCURVE",
"279 0 CURVE SMOOTH",
"275.555 -0.177 OFFCURVE",
"272.117 -0.264 OFFCURVE",
"268.688 -0.264 CURVE SMOOTH",
"155.675 -0.264 OFFCURVE",
"53 94.651 OFFCURVE",
"53 215 CURVE SMOOTH",
"53 328 OFFCURVE",
"140 502 OFFCURVE",
"275 502 CURVE SMOOTH",
"333 502 OFFCURVE",
"386 478 OFFCURVE",
"420 438 CURVE",
"394 413 LINE",
"367 450 OFFCURVE",
"325 469 OFFCURVE",
"277 469 CURVE SMOOTH",
"168 469 OFFCURVE",
"88 316 OFFCURVE",
"88 217 CURVE SMOOTH",
"88 65.67 OFFCURVE",
"216.921 32.909 OFFCURVE",
"273.021 32.909 CURVE SMOOTH",
"274.752 32.909 OFFCURVE",
"276.414 32.94 OFFCURVE",
"278 33 CURVE SMOOTH"
);
}
);
userData = {
com.fontlab.hintData = {
hhints = (
{
position = 0;
width = 33;
},
{
position = 469;
width = 33;
}
);
vhints = (
{
position = 53;
width = 35;
}
);
};
};
width = 497;
}
);
unicode = 0063;
},
{
glyphname = cacute;
layers = (
{
layerId = master01;
paths = (
{
closed = 1;
nodes = (
"341 730 LINE",
"378 698 LINE",
"226 593 LINE",
"201 617 LINE"
);
},
{
closed = 1;
nodes = (
"342 36 OFFCURVE",
"397 67 OFFCURVE",
"427 115 CURVE",
"452 90 LINE",
"415 35 OFFCURVE",
"353 3 OFFCURVE",
"279 0 CURVE SMOOTH",
"275.555 -0.177 OFFCURVE",
"272.117 -0.264 OFFCURVE",
"268.688 -0.264 CURVE SMOOTH",
"155.675 -0.264 OFFCURVE",
"53 94.651 OFFCURVE",
"53 215 CURVE SMOOTH",
"53 328 OFFCURVE",
"140 502 OFFCURVE",
"275 502 CURVE SMOOTH",
"333 502 OFFCURVE",
"386 478 OFFCURVE",
"420 438 CURVE",
"394 413 LINE",
"367 450 OFFCURVE",
"325 469 OFFCURVE",
"277 469 CURVE SMOOTH",
"168 469 OFFCURVE",
"88 316 OFFCURVE",
"88 217 CURVE SMOOTH",
"88 65.67 OFFCURVE",
"216.921 32.909 OFFCURVE",
"273.021 32.909 CURVE SMOOTH",
"274.752 32.909 OFFCURVE",
"276.414 32.94 OFFCURVE",
"278 33 CURVE SMOOTH"
);
}
);
userData = {
com.fontlab.hintData = {
hhints = (
{
position = 0;
width = 33;
},
{
position = 469;
width = 33;
}
);
vhints = (
{
position = 53;
width = 35;
}
);
};
};
width = 497;
}
);
unicode = 0107;
},
{
glyphname = ccaron;
layers = (
{
layerId = master01;
paths = (
{
closed = 1;
nodes = (
"423 687 LINE",
"281 575 LINE",
"162 688 LINE",
"186 717 LINE",
"285 625 LINE",
"401 718 LINE"
);
},
{
closed = 1;
nodes = (
"342 36 OFFCURVE",
"397 67 OFFCURVE",
"427 115 CURVE",
"452 90 LINE",
"415 35 OFFCURVE",
"353 3 OFFCURVE",
"279 0 CURVE SMOOTH",
"275.555 -0.177 OFFCURVE",
"272.117 -0.264 OFFCURVE",
"268.688 -0.264 CURVE SMOOTH",
"155.675 -0.264 OFFCURVE",
"53 94.651 OFFCURVE",
"53 215 CURVE SMOOTH",
"53 328 OFFCURVE",
"140 502 OFFCURVE",
"275 502 CURVE SMOOTH",
"333 502 OFFCURVE",
"386 478 OFFCURVE",
"420 438 CURVE",
"394 413 LINE",
"367 450 OFFCURVE",
"325 469 OFFCURVE",
"277 469 CURVE SMOOTH",
"168 469 OFFCURVE",
"88 316 OFFCURVE",
"88 217 CURVE SMOOTH",
"88 65.67 OFFCURVE",
"216.921 32.909 OFFCURVE",
"273.021 32.909 CURVE SMOOTH",
"274.752 32.909 OFFCURVE",
"276.414 32.94 OFFCURVE",
"278 33 CURVE SMOOTH"
);
}
);
userData = {
com.fontlab.hintData = {
hhints = (
{
position = 0;
width = 33;
},
{
position = 469;
width = 33;
}
);
vhints = (
{
position = 53;
width = 35;
}
);
};
};
width = 497;
}
);
unicode = 010D;
},
{
glyphname = ccedilla;
layers = (
{
layerId = master01;
paths = (
{
closed = 1;
nodes = (
"342 36 OFFCURVE",
"397 67 OFFCURVE",
"427 115 CURVE",
"452 90 LINE",
"415 35 OFFCURVE",
"353 3 OFFCURVE",
"279 0 CURVE",
"249 0 LINE",
"248 -41 LINE",
"262 -41 LINE SMOOTH",
"315 -41 OFFCURVE",
"354 -74 OFFCURVE",
"354 -125 CURVE SMOOTH",
"354 -172 OFFCURVE",
"317 -209 OFFCURVE",
"270 -209 CURVE SMOOTH",
"246 -209 OFFCURVE",
"224 -200 OFFCURVE",
"208 -184 CURVE",
"225 -168 LINE",
"236 -177 OFFCURVE",
"249 -186 OFFCURVE",
"270 -186 CURVE SMOOTH",
"304 -186 OFFCURVE",
"331 -159 OFFCURVE",
"331 -125 CURVE SMOOTH",
"331 -91 OFFCURVE",
"304 -64 OFFCURVE",
"270 -64 CURVE SMOOTH",
"259 -64 OFFCURVE",
"247 -68 OFFCURVE",
"239 -72 CURVE",
"218 -52 LINE",
"237 2 LINE",
"137 17 OFFCURVE",
"53 106 OFFCURVE",
"53 215 CURVE SMOOTH",
"53 328 OFFCURVE",
"140 502 OFFCURVE",
"275 502 CURVE SMOOTH",
"333 502 OFFCURVE",
"386 478 OFFCURVE",
"420 438 CURVE",
"394 413 LINE",
"367 450 OFFCURVE",
"325 469 OFFCURVE",
"277 469 CURVE SMOOTH",
"168 469 OFFCURVE",
"88 316 OFFCURVE",
"88 217 CURVE SMOOTH",
"88 65.67 OFFCURVE",
"216.921 32.909 OFFCURVE",
"273.021 32.909 CURVE SMOOTH",
"274.752 32.909 OFFCURVE",
"276.414 32.94 OFFCURVE",
"278 33 CURVE SMOOTH"
);
}
);
userData = {
com.fontlab.hintData = {
hhints = (
{
position = -209;
width = 23;
},
{
position = -64;
width = 23;
},
{
position = 0;
width = 33;
},
{
position = 469;
width = 33;
}
);
vhints = (
{
position = 53;
width = 35;
},
{
position = 331;
width = 23;
}
);
};
};
width = 497;
}
);
unicode = 00E7;
},
{
glyphname = ccircumflex;
layers = (
{
layerId = master01;
paths = (
{
closed = 1;
nodes = (
"342 36 OFFCURVE",
"397 67 OFFCURVE",
"427 115 CURVE",
"452 90 LINE",
"415 35 OFFCURVE",
"353 3 OFFCURVE",
"279 0 CURVE SMOOTH",
"275.555 -0.177 OFFCURVE",
"272.117 -0.264 OFFCURVE",
"268.688 -0.264 CURVE SMOOTH",
"155.675 -0.264 OFFCURVE",
"53 94.651 OFFCURVE",
"53 215 CURVE SMOOTH",
"53 328 OFFCURVE",
"140 502 OFFCURVE",
"275 502 CURVE SMOOTH",
"333 502 OFFCURVE",
"386 478 OFFCURVE",
"420 438 CURVE",
"394 413 LINE",
"367 450 OFFCURVE",
"325 469 OFFCURVE",
"277 469 CURVE SMOOTH",
"168 469 OFFCURVE",
"88 316 OFFCURVE",
"88 217 CURVE SMOOTH",
"88 65.67 OFFCURVE",
"216.921 32.909 OFFCURVE",
"273.021 32.909 CURVE SMOOTH",
"274.752 32.909 OFFCURVE",
"276.414 32.94 OFFCURVE",
"278 33 CURVE SMOOTH"
);
},
{
closed = 1;
nodes = (
"151 603 LINE",
"294 718 LINE",
"414 603 LINE",
"391 577 LINE",
"291 667 LINE",
"173 575 LINE"
);
}
);
userData = {
com.fontlab.hintData = {
hhints = (
{
position = 0;
width = 33;
},
{
position = 469;
width = 33;
}
);
vhints = (
{
position = 53;
width = 35;
}
);
};
};
width = 497;
}
);
unicode = 0109;
},
{
glyphname = d;
layers = (
{
layerId = master01;
paths = (
{
closed = 1;
nodes = (
"459 703 LINE",
"443 9 LINE",
"405 2 LINE",
"407 97 LINE",
"365 57 OFFCURVE",
"298 6 OFFCURVE",
"220 6 CURVE SMOOTH",
"105 6 OFFCURVE",
"53 117 OFFCURVE",
"53 225 CURVE SMOOTH",
"53 315 OFFCURVE",
"80 495 OFFCURVE",
"271 495 CURVE SMOOTH",
"327 495 OFFCURVE",
"377 475 OFFCURVE",
"416 457 CURVE",
"421 696 LINE"
);
},
{
closed = 1;
nodes = (
"415 417 LINE",
"394 428 OFFCURVE",
"328 460 OFFCURVE",
"265 460 CURVE SMOOTH",
"117 460 OFFCURVE",
"90 321 OFFCURVE",
"90 228 CURVE SMOOTH",
"90 155 OFFCURVE",
"113 36 OFFCURVE",
"220 36 CURVE SMOOTH",
"331 36 OFFCURVE",
"408 123 OFFCURVE",
"409 158 CURVE SMOOTH"
);
}
);
userData = {
com.fontlab.hintData = {
hhints = (
{
position = 6;
width = 30;
},
{
position = 460;
width = 35;
}
);
vhints = (
{
position = 53;
width = 37;
},
{
position = 407;
width = 36;
},
{
position = 416;
width = 43;
}
);
};
};
width = 516;
}
);
unicode = 0064;
},
{
glyphname = eth;
layers = (
{
layerId = master01;
paths = (
{
closed = 1;
nodes = (
"342 511 OFFCURVE",
"430 383 OFFCURVE",
"430 255 CURVE SMOOTH",
"430 128 OFFCURVE",
"348 0 OFFCURVE",
"214 0 CURVE SMOOTH",
"123 0 OFFCURVE",
"52 71 OFFCURVE",
"52 174 CURVE SMOOTH",
"52 326 OFFCURVE",
"171 427 OFFCURVE",
"345 433 CURVE",
"309 494 OFFCURVE",
"267 544 OFFCURVE",
"232 583 CURVE",
"183 556 OFFCURVE",
"132 524 OFFCURVE",
"110 509 CURVE",
"99 528 LINE",
"133 550 OFFCURVE",
"183 579 OFFCURVE",
"216 599 CURVE",
"195 620 OFFCURVE",
"176 637 OFFCURVE",
"166 647 CURVE",
"186 672 LINE",
"246 614 LINE",
"286 636 OFFCURVE",
"336 663 OFFCURVE",
"370 678 CURVE",
"377 659 LINE",
"346 646 OFFCURVE",
"291 619 OFFCURVE",
"260 599 CURVE"
);
},
{
closed = 1;
nodes = (
"330 32 OFFCURVE",
"397 149 OFFCURVE",
"397 258 CURVE SMOOTH",
"397 304 OFFCURVE",
"384 353 OFFCURVE",
"361 401 CURVE",
"205 401 OFFCURVE",
"85 333 OFFCURVE",
"85 173 CURVE SMOOTH",
"85 86 OFFCURVE",
"140 32 OFFCURVE",
"214 32 CURVE SMOOTH"
);
}
);
userData = {
com.fontlab.hintData = {
hhints = (
{
position = 0;
width = 32;
},
{
position = 401;
width = 32;
},
{
position = 509;
width = 21;
}
);
vhints = (
{
position = 52;
width = 33;
},
{
position = 397;
width = 33;
}
);
};
};
width = 472;
}
);
unicode = 00F0;
},
{
glyphname = dcaron;
layers = (
{
layerId = master01;
paths = (
{
closed = 1;
nodes = (
"634 666 LINE",
"547 510 LINE",
"515 529 LINE",
"571 629 LINE",
"534 651 LINE",
"576 696 LINE"
);
},
{
closed = 1;
nodes = (
"459 703 LINE",
"443 9 LINE",
"405 2 LINE",
"407 97 LINE",
"365 57 OFFCURVE",
"298 6 OFFCURVE",
"220 6 CURVE SMOOTH",
"105 6 OFFCURVE",
"53 117 OFFCURVE",
"53 225 CURVE SMOOTH",
"53 315 OFFCURVE",
"80 495 OFFCURVE",
"271 495 CURVE SMOOTH",
"327 495 OFFCURVE",
"377 475 OFFCURVE",
"416 457 CURVE",
"421 696 LINE"
);
},
{
closed = 1;
nodes = (
"415 417 LINE",
"394 428 OFFCURVE",
"328 460 OFFCURVE",
"265 460 CURVE SMOOTH",
"117 460 OFFCURVE",
"90 321 OFFCURVE",
"90 228 CURVE SMOOTH",
"90 155 OFFCURVE",
"113 36 OFFCURVE",
"220 36 CURVE SMOOTH",
"331 36 OFFCURVE",
"408 123 OFFCURVE",
"409 158 CURVE SMOOTH"
);
}
);
userData = {
com.fontlab.hintData = {
hhints = (
{
position = 6;
width = 30;
},
{
position = 460;
width = 35;
},
{
position = 510;
width = 21;
}
);
vhints = (
{
position = 53;
width = 37;
},
{
position = 407;
width = 36;
},
{
position = 416;
width = 43;
}
);
};
};
width = 599;
}
);
unicode = 010F;
},
{
glyphname = dcroat;
layers = (
{
layerId = master01;
paths = (
{
closed = 1;
nodes = (
"459 703 LINE",
"457 609 LINE",
"558 609 LINE",
"551 576 LINE",
"456 576 LINE",
"443 9 LINE",
"405 2 LINE",
"407 97 LINE",
"365 57 OFFCURVE",
"298 6 OFFCURVE",
"220 6 CURVE SMOOTH",
"105 6 OFFCURVE",
"53 117 OFFCURVE",
"53 225 CURVE SMOOTH",
"53 315 OFFCURVE",
"80 495 OFFCURVE",
"271 495 CURVE SMOOTH",
"327 495 OFFCURVE",
"377 475 OFFCURVE",
"416 457 CURVE",
"418 576 LINE",
"317 576 LINE",
"324 609 LINE",
"419 609 LINE",
"421 696 LINE"
);
},
{
closed = 1;
nodes = (
"415 417 LINE",
"394 428 OFFCURVE",
"328 460 OFFCURVE",
"265 460 CURVE SMOOTH",
"117 460 OFFCURVE",
"90 321 OFFCURVE",
"90 228 CURVE SMOOTH",
"90 155 OFFCURVE",
"113 36 OFFCURVE",
"220 36 CURVE SMOOTH",
"331 36 OFFCURVE",
"408 123 OFFCURVE",
"409 158 CURVE SMOOTH"
);
}
);
userData = {
com.fontlab.hintData = {
hhints = (
{
position = 6;
width = 30;
},
{
position = 460;
width = 35;
},
{
position = 576;
width = 33;
}
);
vhints = (
{
position = 53;
width = 37;
},
{
position = 407;
width = 36;
},
{
position = 418;
width = 38;
}
);
};
};
width = 540;
}
);
unicode = 0111;
},
{
glyphname = e;
layers = (
{
layerId = master01;
paths = (
{
closed = 1;
nodes = (
"160 0 OFFCURVE",
"52 112 OFFCURVE",
"52 251 CURVE SMOOTH",
"52 388 OFFCURVE",
"159 502 OFFCURVE",
"294 502 CURVE SMOOTH",
"378 502 OFFCURVE",
"448 441 OFFCURVE",
"473 365 CURVE",
"104 160 LINE",
"142 84 OFFCURVE",
"213 32 OFFCURVE",
"294 32 CURVE SMOOTH",
"346 32 OFFCURVE",
"396 54 OFFCURVE",
"435 91 CURVE",
"458 68 LINE",
"412 25 OFFCURVE",
"354 0 OFFCURVE",
"294 0 CURVE SMOOTH"
);
},
{
closed = 1;
nodes = (
"174 470 OFFCURVE",
"84 367 OFFCURVE",
"84 251 CURVE SMOOTH",
"84 233 OFFCURVE",
"87 214 OFFCURVE",
"93 190 CURVE",
"431 379 LINE",
"399 436 OFFCURVE",
"347 470 OFFCURVE",
"294 470 CURVE SMOOTH"
);
}
);
userData = {
com.fontlab.hintData = {
hhints = (
{
position = 0;
width = 32;
},
{
position = 470;
width = 32;
}
);
vhints = (
{
position = 52;
width = 32;
}
);
};
};
width = 517;
}
);
unicode = 0065;
},
{
glyphname = eacute;
layers = (
{
layerId = master01;
paths = (
{
closed = 1;
nodes = (
"321 730 LINE",
"358 698 LINE",
"206 593 LINE",
"181 617 LINE"
);
},
{
closed = 1;
nodes = (
"160 0 OFFCURVE",
"52 112 OFFCURVE",
"52 251 CURVE SMOOTH",
"52 388 OFFCURVE",
"159 502 OFFCURVE",
"294 502 CURVE SMOOTH",
"378 502 OFFCURVE",
"448 441 OFFCURVE",
"473 365 CURVE",
"104 160 LINE",
"142 84 OFFCURVE",
"213 32 OFFCURVE",
"294 32 CURVE SMOOTH",
"346 32 OFFCURVE",
"396 54 OFFCURVE",
"435 91 CURVE",
"458 68 LINE",
"412 25 OFFCURVE",
"354 0 OFFCURVE",
"294 0 CURVE SMOOTH"
);
},
{
closed = 1;
nodes = (
"174 470 OFFCURVE",
"84 367 OFFCURVE",
"84 251 CURVE SMOOTH",
"84 233 OFFCURVE",
"87 214 OFFCURVE",
"93 190 CURVE",
"431 379 LINE",
"399 436 OFFCURVE",
"347 470 OFFCURVE",
"294 470 CURVE SMOOTH"
);
}
);
userData = {
com.fontlab.hintData = {
hhints = (
{
position = 0;
width = 32;
},
{
position = 470;
width = 32;
}
);
vhints = (
{
position = 52;
width = 32;
}
);
};
};
width = 517;
}
);
unicode = 00E9;
},
{
glyphname = ecaron;
layers = (
{
layerId = master01;
paths = (
{
closed = 1;
nodes = (
"419 687 LINE",
"276 575 LINE",
"156 688 LINE",
"180 717 LINE",
"279 625 LINE",
"397 718 LINE"
);
},
{
closed = 1;
nodes = (
"160 0 OFFCURVE",
"52 112 OFFCURVE",
"52 251 CURVE SMOOTH",
"52 388 OFFCURVE",
"159 502 OFFCURVE",
"294 502 CURVE SMOOTH",
"378 502 OFFCURVE",
"448 441 OFFCURVE",
"473 365 CURVE",
"104 160 LINE",
"142 84 OFFCURVE",
"213 32 OFFCURVE",
"294 32 CURVE SMOOTH",
"346 32 OFFCURVE",
"396 54 OFFCURVE",
"435 91 CURVE",
"458 68 LINE",
"412 25 OFFCURVE",
"354 0 OFFCURVE",
"294 0 CURVE SMOOTH"
);
},
{
closed = 1;
nodes = (
"174 470 OFFCURVE",
"84 367 OFFCURVE",
"84 251 CURVE SMOOTH",
"84 233 OFFCURVE",
"87 214 OFFCURVE",
"93 190 CURVE",
"431 379 LINE",
"399 436 OFFCURVE",
"347 470 OFFCURVE",
"294 470 CURVE SMOOTH"
);
}
);
userData = {
com.fontlab.hintData = {
hhints = (
{
position = 0;
width = 32;
},
{
position = 470;
width = 32;
}
);
vhints = (
{
position = 52;
width = 32;
}
);
};
};
width = 517;
}
);
unicode = 011B;
},
{
glyphname = ecircumflex;
layers = (
{
layerId = master01;
paths = (
{
closed = 1;
nodes = (
"134 603 LINE",
"276 718 LINE",
"396 603 LINE",
"373 577 LINE",
"273 667 LINE",
"156 575 LINE"
);
},
{
closed = 1;
nodes = (
"160 0 OFFCURVE",
"52 112 OFFCURVE",
"52 251 CURVE SMOOTH",
"52 388 OFFCURVE",
"159 502 OFFCURVE",
"294 502 CURVE SMOOTH",
"378 502 OFFCURVE",
"448 441 OFFCURVE",
"473 365 CURVE",
"104 160 LINE",
"142 84 OFFCURVE",
"213 32 OFFCURVE",
"294 32 CURVE SMOOTH",
"346 32 OFFCURVE",
"396 54 OFFCURVE",
"435 91 CURVE",
"458 68 LINE",
"412 25 OFFCURVE",
"354 0 OFFCURVE",
"294 0 CURVE SMOOTH"
);
},
{
closed = 1;
nodes = (
"174 470 OFFCURVE",
"84 367 OFFCURVE",
"84 251 CURVE SMOOTH",
"84 233 OFFCURVE",
"87 214 OFFCURVE",
"93 190 CURVE",
"431 379 LINE",
"399 436 OFFCURVE",
"347 470 OFFCURVE",
"294 470 CURVE SMOOTH"
);
}
);
userData = {
com.fontlab.hintData = {
hhints = (
{
position = 0;
width = 32;
},
{
position = 470;
width = 32;
}
);
vhints = (
{
position = 52;
width = 32;
}
);
};
};
width = 517;
}
);
unicode = 00EA;
},
{
glyphname = edieresis;
layers = (
{
layerId = master01;
paths = (
{
closed = 1;
nodes = (
"221 604 LINE",
"167 596 LINE",
"173 660 LINE",
"228 669 LINE"
);
},
{
closed = 1;
nodes = (
"387 604 LINE",
"333 596 LINE",
"340 660 LINE",
"395 669 LINE"
);
},
{
closed = 1;
nodes = (
"160 0 OFFCURVE",
"52 112 OFFCURVE",
"52 251 CURVE SMOOTH",
"52 388 OFFCURVE",
"159 502 OFFCURVE",
"294 502 CURVE SMOOTH",
"378 502 OFFCURVE",
"448 441 OFFCURVE",
"473 365 CURVE",
"104 160 LINE",
"142 84 OFFCURVE",
"213 32 OFFCURVE",
"294 32 CURVE SMOOTH",
"346 32 OFFCURVE",
"396 54 OFFCURVE",
"435 91 CURVE",
"458 68 LINE",
"412 25 OFFCURVE",
"354 0 OFFCURVE",
"294 0 CURVE SMOOTH"
);
},
{
closed = 1;
nodes = (
"174 470 OFFCURVE",
"84 367 OFFCURVE",
"84 251 CURVE SMOOTH",
"84 233 OFFCURVE",
"87 214 OFFCURVE",
"93 190 CURVE",
"431 379 LINE",
"399 436 OFFCURVE",
"347 470 OFFCURVE",
"294 470 CURVE SMOOTH"
);
}
);
userData = {
com.fontlab.hintData = {
hhints = (
{
position = 0;
width = 32;
},
{
position = 470;
width = 32;
}
);
vhints = (
{
position = 52;
width = 32;
}
);
};
};
width = 517;
}
);
unicode = 00EB;
},
{
glyphname = egrave;
layers = (
{
layerId = master01;
paths = (
{
closed = 1;
nodes = (
"308 582 LINE",
"179 712 LINE",
"221 737 LINE",
"338 602 LINE"
);
},
{
closed = 1;
nodes = (
"160 0 OFFCURVE",
"52 112 OFFCURVE",
"52 251 CURVE SMOOTH",
"52 388 OFFCURVE",
"159 502 OFFCURVE",
"294 502 CURVE SMOOTH",
"378 502 OFFCURVE",
"448 441 OFFCURVE",
"473 365 CURVE",
"104 160 LINE",
"142 84 OFFCURVE",
"213 32 OFFCURVE",
"294 32 CURVE SMOOTH",
"346 32 OFFCURVE",
"396 54 OFFCURVE",
"435 91 CURVE",
"458 68 LINE",
"412 25 OFFCURVE",
"354 0 OFFCURVE",
"294 0 CURVE SMOOTH"
);
},
{
closed = 1;
nodes = (
"174 470 OFFCURVE",
"84 367 OFFCURVE",
"84 251 CURVE SMOOTH",
"84 233 OFFCURVE",
"87 214 OFFCURVE",
"93 190 CURVE",
"431 379 LINE",
"399 436 OFFCURVE",
"347 470 OFFCURVE",
"294 470 CURVE SMOOTH"
);
}
);
userData = {
com.fontlab.hintData = {
hhints = (
{
position = 0;
width = 32;
},
{
position = 470;
width = 32;
}
);
vhints = (
{
position = 52;
width = 32;
}
);
};
};
width = 517;
}
);
unicode = 00E8;
},
{
glyphname = eogonek;
layers = (
{
layerId = master01;
paths = (
{
closed = 1;
nodes = (
"408 -172 LINE",
"390 -191 OFFCURVE",
"353 -209 OFFCURVE",
"316 -209 CURVE SMOOTH",
"259 -209 OFFCURVE",
"217 -168 OFFCURVE",
"217 -112 CURVE SMOOTH",
"217 -66 OFFCURVE",
"248 -27 OFFCURVE",
"282 0 CURVE",
"153 6 OFFCURVE",
"52 116 OFFCURVE",
"52 251 CURVE SMOOTH",
"52 388 OFFCURVE",
"159 502 OFFCURVE",
"294 502 CURVE SMOOTH",
"378 502 OFFCURVE",
"448 441 OFFCURVE",
"473 365 CURVE",
"104 160 LINE",
"142 84 OFFCURVE",
"213 32 OFFCURVE",
"294 32 CURVE SMOOTH",
"346 32 OFFCURVE",
"396 54 OFFCURVE",
"435 91 CURVE",
"458 68 LINE",
"431 42 OFFCURVE",
"409 32 OFFCURVE",
"380 18 CURVE SMOOTH",
"328 -7 OFFCURVE",
"248 -40 OFFCURVE",
"248 -113 CURVE SMOOTH",
"248 -152 OFFCURVE",
"278 -177 OFFCURVE",
"316 -177 CURVE SMOOTH",
"351 -177 OFFCURVE",
"367 -166 OFFCURVE",
"391 -149 CURVE"
);
},
{
closed = 1;
nodes = (
"174 470 OFFCURVE",
"84 367 OFFCURVE",
"84 251 CURVE SMOOTH",
"84 233 OFFCURVE",
"87 214 OFFCURVE",
"93 190 CURVE",
"431 379 LINE",
"399 436 OFFCURVE",
"347 470 OFFCURVE",
"294 470 CURVE SMOOTH"
);
}
);
userData = {
com.fontlab.hintData = {
hhints = (
{
position = -209;
width = 32;
},
{
position = 0;
width = 32;
},
{
position = 470;
width = 32;
}
);
vhints = (
{
position = 52;
width = 32;
},
{
position = 217;
width = 31;
}
);
};
};
width = 517;
}
);
unicode = 0119;
},
{
glyphname = f;
layers = (
{
layerId = master01;
paths = (
{
closed = 1;
nodes = (
"296 667 LINE",
"294.701 667.01 OFFCURVE",
"293.413 667.016 OFFCURVE",
"292.136 667.016 CURVE SMOOTH",
"170.442 667.016 OFFCURVE",
"144 619.764 OFFCURVE",
"144 502 CURVE",
"277 502 LINE",
"270 470 LINE",
"139 470 LINE",
"139 9 LINE",
"101 2 LINE",
"101 470 LINE",
"15 470 LINE",
"21 502 LINE",
"101 502 LINE",
"101 649 OFFCURVE",
"163 702 OFFCURVE",
"295 702 CURVE SMOOTH",
"313 702 LINE"
);
}
);
userData = {
com.fontlab.hintData = {
hhints = (
{
position = 470;
width = 32;
},
{
position = 667;
width = 35;
}
);
vhints = (
{
position = 101;
width = 38;
}
);
};
};
width = 322;
}
);
unicode = 0066;
},
{
glyphname = g;
layers = (
{
layerId = master01;
paths = (
{
closed = 1;
nodes = (
"444 9 LINE SMOOTH",
"441 -121 OFFCURVE",
"368 -193 OFFCURVE",
"244 -193 CURVE SMOOTH",
"200 -193 OFFCURVE",
"157 -187 OFFCURVE",
"125 -181 CURVE",
"132 -144 LINE",
"162 -149 OFFCURVE",
"203 -155 OFFCURVE",
"244 -155 CURVE SMOOTH",
"389 -155 OFFCURVE",
"405 -40 OFFCURVE",
"406 8 CURVE SMOOTH",
"408 103 LINE",
"367 35 OFFCURVE",
"306 0 OFFCURVE",
"249 0 CURVE SMOOTH",
"137 0 OFFCURVE",
"53 104 OFFCURVE",
"53 240 CURVE SMOOTH",
"53 370 OFFCURVE",
"146 501 OFFCURVE",
"290 501 CURVE SMOOTH",
"336 501 OFFCURVE",
"382 479 OFFCURVE",
"417 459 CURVE",
"417 500 LINE",
"455 506 LINE"
);
},
{
closed = 1;
nodes = (
"413 425 LINE",
"386 445 OFFCURVE",
"336 465 OFFCURVE",
"292 465 CURVE SMOOTH",
"169 465 OFFCURVE",
"87 354 OFFCURVE",
"87 233 CURVE SMOOTH",
"87 156 OFFCURVE",
"130 34 OFFCURVE",
"244 34 CURVE",
"322 35 OFFCURVE",
"413 91 OFFCURVE",
"413 269 CURVE SMOOTH"
);
}
);
userData = {
com.fontlab.hintData = {
hhints = (
{
position = -193;
width = 38;
},
{
position = 0;
width = 34;
},
{
position = 465;
width = 36;
}
);
vhints = (
{
position = 53;
width = 34;
},
{
position = 406;
width = 38;
},
{
position = 413;
width = 42;
}
);
};
};
width = 512;
}
);
unicode = 0067;
},
{
glyphname = gcircumflex;
layers = (
{
layerId = master01;
paths = (
{
closed = 1;
nodes = (
"444 9 LINE SMOOTH",
"441 -121 OFFCURVE",
"368 -193 OFFCURVE",
"244 -193 CURVE SMOOTH",
"200 -193 OFFCURVE",
"157 -187 OFFCURVE",
"125 -181 CURVE",
"132 -144 LINE",
"162 -149 OFFCURVE",
"203 -155 OFFCURVE",
"244 -155 CURVE SMOOTH",
"389 -155 OFFCURVE",
"405 -40 OFFCURVE",
"406 8 CURVE SMOOTH",
"408 103 LINE",
"367 35 OFFCURVE",
"306 0 OFFCURVE",
"249 0 CURVE SMOOTH",
"137 0 OFFCURVE",
"53 104 OFFCURVE",
"53 240 CURVE SMOOTH",
"53 370 OFFCURVE",
"146 501 OFFCURVE",
"290 501 CURVE SMOOTH",
"336 501 OFFCURVE",
"382 479 OFFCURVE",
"417 459 CURVE",
"417 500 LINE",
"455 506 LINE"
);
},
{
closed = 1;
nodes = (
"413 425 LINE",
"386 445 OFFCURVE",
"336 465 OFFCURVE",
"292 465 CURVE SMOOTH",
"169 465 OFFCURVE",
"87 354 OFFCURVE",
"87 233 CURVE SMOOTH",
"87 156 OFFCURVE",
"130 34 OFFCURVE",
"244 34 CURVE SMOOTH",
"322 35 OFFCURVE",
"413 91 OFFCURVE",
"413 269 CURVE SMOOTH"
);
},
{
closed = 1;
nodes = (
"151 603 LINE",
"294 718 LINE",
"414 603 LINE",
"391 577 LINE",
"291 667 LINE",
"173 575 LINE"
);
}
);
userData = {
com.fontlab.hintData = {
hhints = (
{
position = -193;
width = 38;
},
{
position = 0;
width = 34;
},
{
position = 465;
width = 36;
}
);
vhints = (
{
position = 53;
width = 34;
},
{
position = 406;
width = 38;
},
{
position = 413;
width = 42;
}
);
};
};
width = 512;
}
);
unicode = 011D;
},
{
glyphname = h;
layers = (
{
layerId = master01;
paths = (
{
closed = 1;
nodes = (
"105 315 LINE",
"142 397 OFFCURVE",
"239 505 OFFCURVE",
"322 505 CURVE SMOOTH",
"423 505 OFFCURVE",
"451 380 OFFCURVE",
"451 137 CURVE SMOOTH",
"451 78 OFFCURVE",
"451 32 OFFCURVE",
"450 9 CURVE",
"415 2 LINE",
"416 17 OFFCURVE",
"416 61 OFFCURVE",
"416 131 CURVE SMOOTH",
"416 347 OFFCURVE",
"396 470 OFFCURVE",
"322 470 CURVE SMOOTH",
"228 470 OFFCURVE",
"141 329 OFFCURVE",
"122 291 CURVE",
"110 263 OFFCURVE",
"105 228 OFFCURVE",
"105 194 CURVE SMOOTH",
"105 9 LINE",
"68 2 LINE",
"68 689 LINE",
"105 698 LINE"
);
}
);
userData = {
com.fontlab.hintData = {
hhints = (
{
position = 470;
width = 35;
}
);
vhints = (
{
position = 68;
width = 37;
},
{
position = 416;
width = 35;
}
);
};
};
width = 494;
}
);
unicode = 0068;
},
{
glyphname = hcircumflex;
layers = (
{
layerId = master01;
paths = (
{
closed = 1;
nodes = (
"105 315 LINE",
"142 397 OFFCURVE",
"239 505 OFFCURVE",
"322 505 CURVE SMOOTH",
"423 505 OFFCURVE",
"451 380 OFFCURVE",
"451 137 CURVE SMOOTH",
"451 78 OFFCURVE",
"451 32 OFFCURVE",
"450 9 CURVE",
"415 2 LINE",
"416 17 OFFCURVE",
"416 61 OFFCURVE",
"416 131 CURVE SMOOTH",
"416 347 OFFCURVE",
"396 470 OFFCURVE",
"322 470 CURVE SMOOTH",
"228 470 OFFCURVE",
"141 329 OFFCURVE",
"122 291 CURVE SMOOTH",
"110 263 OFFCURVE",
"105 228 OFFCURVE",
"105 194 CURVE SMOOTH",
"105 9 LINE",
"68 2 LINE",
"68 689 LINE",
"105 698 LINE"
);
},
{
closed = 1;
nodes = (
"115 771 LINE",
"255 884 LINE",
"374 771 LINE",
"351 745 LINE",
"252 833 LINE",
"137 743 LINE"
);
}
);
userData = {
com.fontlab.hintData = {
hhints = (
{
position = 470;
width = 35;
}
);
vhints = (
{
position = 68;
width = 37;
},
{
position = 416;
width = 35;
}
);
};
};
width = 494;
}
);
unicode = 0125;
},
{
glyphname = i;
layers = (
{
layerId = master01;
paths = (
{
closed = 1;
nodes = (
"112 498 LINE",
"112 9 LINE",
"71 2 LINE",
"71 493 LINE"
);
},
{
closed = 1;
nodes = (
"111 631 LINE",
"72 624 LINE",
"78 687 LINE",
"115 695 LINE"
);
}
);
userData = {
com.fontlab.hintData = {
vhints = (
{
position = 71;
width = 41;
}
);
};
};
width = 183;
}
);
unicode = 0069;
},
{
glyphname = iacute;
layers = (
{
layerId = master01;
paths = (
{
closed = 1;
nodes = (
"174 730 LINE",
"211 698 LINE",
"59 593 LINE",
"34 617 LINE"
);
},
{
closed = 1;
nodes = (
"111 498 LINE",
"111 9 LINE",
"71 2 LINE",
"71 493 LINE"
);
}
);
userData = {
com.fontlab.hintData = {
vhints = (
{
position = 71;
width = 40;
}
);
};
};
width = 195;
}
);
unicode = 00ED;
},
{
glyphname = icircumflex;
layers = (
{
layerId = master01;
paths = (
{
closed = 1;
nodes = (
"1 603 LINE",
"142 718 LINE",
"262 603 LINE",
"239 577 LINE",
"139 667 LINE",
"22 575 LINE"
);
},
{
closed = 1;
nodes = (
"145 498 LINE",
"145 9 LINE",
"105 2 LINE",
"105 493 LINE"
);
}
);
userData = {
com.fontlab.hintData = {
vhints = (
{
position = 105;
width = 40;
}
);
};
};
width = 236;
}
);
unicode = 00EE;
},
{
glyphname = idieresis;
layers = (
{
layerId = master01;
paths = (
{
closed = 1;
nodes = (
"72 604 LINE",
"18 596 LINE",
"25 660 LINE",
"80 669 LINE"
);
},
{
closed = 1;
nodes = (
"239 604 LINE",
"185 596 LINE",
"191 660 LINE",
"246 669 LINE"
);
},
{
closed = 1;
nodes = (
"140 498 LINE",
"140 9 LINE",
"99 2 LINE",
"99 493 LINE"
);
}
);
userData = {
com.fontlab.hintData = {
vhints = (
{
position = 99;
width = 41;
}
);
};
};
width = 236;
}
);
unicode = 00EF;
},
{
glyphname = igrave;
layers = (
{
layerId = master01;
paths = (
{
closed = 1;
nodes = (
"141 582 LINE",
"12 712 LINE",
"53 737 LINE",
"171 602 LINE"
);
},
{
closed = 1;
nodes = (
"124 498 LINE",
"124 9 LINE",
"84 2 LINE",
"84 493 LINE"
);
}
);
userData = {
com.fontlab.hintData = {
vhints = (
{
position = 84;
width = 40;
}
);
};
};
width = 207;
}
);
unicode = 00EC;
},
{
glyphname = j;
layers = (
{
layerId = master01;
paths = (
{
closed = 1;
nodes = (
"232 639 LINE",
"196 632 LINE",
"200 696 LINE",
"239 703 LINE"
);
},
{
closed = 1;
nodes = (
"3 -21 LINE",
"24 -67 OFFCURVE",
"70 -155 OFFCURVE",
"124 -155 CURVE SMOOTH",
"178 -155 OFFCURVE",
"202 -92 OFFCURVE",
"202 -16 CURVE SMOOTH",
"202 2 OFFCURVE",
"199 231 OFFCURVE",
"195 503 CURVE",
"233 511 LINE",
"238 234 OFFCURVE",
"241 7 OFFCURVE",
"241 -10 CURVE SMOOTH",
"241 -81 OFFCURVE",
"214 -187 OFFCURVE",
"124 -187 CURVE SMOOTH",
"38 -187 OFFCURVE",
"-19 -66 OFFCURVE",
"-34 -28 CURVE"
);
}
);
userData = {
com.fontlab.hintData = {
hhints = (
{
position = -187;
width = 32;
},
{
position = 491;
width = 20;
}
);
vhints = (
{
position = 195;
width = 38;
},
{
position = 202;
width = 39;
}
);
};
};
width = 303;
}
);
unicode = 006A;
},
{
glyphname = jcircumflex;
layers = (
{
layerId = master01;
paths = (
{
closed = 1;
nodes = (
"3 -21 LINE",
"24 -67 OFFCURVE",
"70 -155 OFFCURVE",
"124 -155 CURVE SMOOTH",
"178 -155 OFFCURVE",
"202 -92 OFFCURVE",
"202 -16 CURVE SMOOTH",
"202 2 OFFCURVE",
"199 231 OFFCURVE",
"195 503 CURVE",
"233 511 LINE",
"238 234 OFFCURVE",
"241 7 OFFCURVE",
"241 -10 CURVE SMOOTH",
"241 -81 OFFCURVE",
"214 -187 OFFCURVE",
"124 -187 CURVE SMOOTH",
"38 -187 OFFCURVE",
"-19 -66 OFFCURVE",
"-34 -28 CURVE"
);
},
{
closed = 1;
nodes = (
"81 603 LINE",
"224 718 LINE",
"344 603 LINE",
"321 577 LINE",
"221 667 LINE",
"103 575 LINE"
);
}
);
userData = {
com.fontlab.hintData = {
hhints = (
{
position = -187;
width = 32;
},
{
position = 491;
width = 20;
}
);
vhints = (
{
position = 195;
width = 38;
},
{
position = 202;
width = 39;
}
);
};
};
width = 303;
}
);
unicode = 0135;
},
{
glyphname = k;
layers = (
{
layerId = master01;
paths = (
{
closed = 1;
nodes = (
"250 294 OFFCURVE",
"353 167 OFFCURVE",
"458 30 CURVE",
"430 5 LINE",
"358 115 OFFCURVE",
"264 227 OFFCURVE",
"214 280 CURVE",
"170 247 OFFCURVE",
"135 221 OFFCURVE",
"107 205 CURVE",
"108 9 LINE",
"70 2 LINE",
"68 689 LINE",
"106 698 LINE",
"107 245 LINE",
"184 285 OFFCURVE",
"330 425 OFFCURVE",
"412 531 CURVE",
"442 510 LINE",
"393 449 OFFCURVE",
"286 338 OFFCURVE",
"242 303 CURVE"
);
}
);
userData = {
com.fontlab.hintData = {
vhints = (
{
position = 70;
width = 37;
}
);
};
};
width = 484;
}
);
unicode = 006B;
},
{
glyphname = l;
layers = (
{
layerId = master01;
paths = (
{
closed = 1;
nodes = (
"129 698 LINE",
"129 9 LINE",
"91 2 LINE",
"91 689 LINE"
);
}
);
userData = {
com.fontlab.hintData = {
vhints = (
{
position = 91;
width = 38;
}
);
};
};
width = 216;
}
);
unicode = 006C;
},
{
glyphname = lacute;
layers = (
{
layerId = master01;
paths = (
{
closed = 1;
nodes = (
"189 906 LINE",
"227 874 LINE",
"75 769 LINE",
"50 793 LINE"
);
},
{
closed = 1;
nodes = (
"128 698 LINE",
"128 9 LINE",
"91 2 LINE",
"91 689 LINE"
);
}
);
userData = {
com.fontlab.hintData = {
vhints = (
{
position = 91;
width = 37;
}
);
};
};
width = 216;
}
);
unicode = 013A;
},
{
glyphname = lcaron;
layers = (
{
layerId = master01;
paths = (
{
closed = 1;
nodes = (
"127 698 LINE",
"127 9 LINE",
"89 2 LINE",
"89 689 LINE"
);
},
{
closed = 1;
nodes = (
"304 669 LINE",
"218 513 LINE",
"185 532 LINE",
"241 632 LINE",
"204 654 LINE",
"247 699 LINE"
);
}
);
userData = {
com.fontlab.hintData = {
hhints = (
{
position = 513;
width = 21;
}
);
vhints = (
{
position = 89;
width = 38;
}
);
};
};
width = 280;
}
);
unicode = 013E;
},
{
glyphname = lslash;
layers = (
{
layerId = master01;
paths = (
{
closed = 1;
nodes = (
"150 338 LINE",
"150 9 LINE",
"112 2 LINE",
"112 315 LINE",
"50 276 LINE",
"27 307 LINE",
"112 361 LINE",
"112 689 LINE",
"150 698 LINE",
"150 384 LINE",
"213 425 LINE",
"235 393 LINE"
);
}
);
userData = {
com.fontlab.hintData = {
vhints = (
{
position = 112;
width = 38;
}
);
};
};
width = 256;
}
);
unicode = 0142;
},
{
glyphname = m;
layers = (
{
layerId = master01;
paths = (
{
closed = 1;
nodes = (
"103 294 OFFCURVE",
"102 255 OFFCURVE",
"102 255 CURVE",
"102 9 LINE",
"65 2 LINE",
"65 482 LINE",
"102 490 LINE",
"102 344 LINE",
"143 418 OFFCURVE",
"234 511 OFFCURVE",
"313 511 CURVE SMOOTH",
"376 511 OFFCURVE",
"416 489 OFFCURVE",
"440 383 CURVE",
"482 457 OFFCURVE",
"564 511 OFFCURVE",
"627 511 CURVE SMOOTH",
"686 511 OFFCURVE",
"759 480 OFFCURVE",
"759 329 CURVE SMOOTH",
"759 9 LINE",
"721 2 LINE",
"721 326 LINE SMOOTH",
"721 457 OFFCURVE",
"667 479 OFFCURVE",
"627 479 CURVE SMOOTH",
"567 479 OFFCURVE",
"444 399 OFFCURVE",
"444 274 CURVE SMOOTH",
"444 9 LINE",
"406 2 LINE",
"406 336 LINE SMOOTH",
"406 467 OFFCURVE",
"352 481 OFFCURVE",
"313 481 CURVE SMOOTH",
"266 481 OFFCURVE",
"188 430 OFFCURVE",
"116 313 CURVE"
);
}
);
userData = {
com.fontlab.hintData = {
hhints = (
{
position = 481;
width = 30;
}
);
vhints = (
{
position = 65;
width = 37;
},
{
position = 406;
width = 38;
},
{
position = 721;
width = 38;
}
);
};
};
width = 807;
}
);
unicode = 006D;
},
{
glyphname = n;
layers = (
{
layerId = master01;
paths = (
{
closed = 1;
nodes = (
"105 282 LINE",
"129 383 OFFCURVE",
"217 501 OFFCURVE",
"327 501 CURVE SMOOTH",
"392 501 OFFCURVE",
"434 465 OFFCURVE",
"452 397 CURVE",
"466 333 OFFCURVE",
"469 244 OFFCURVE",
"469 109 CURVE SMOOTH",
"469 10 LINE",
"433 3 LINE",
"433 144 LINE SMOOTH",
"433 246 OFFCURVE",
"431 333 OFFCURVE",
"417 386 CURVE",
"404 444 OFFCURVE",
"375 467 OFFCURVE",
"324 467 CURVE SMOOTH",
"274 467 OFFCURVE",
"218 445 OFFCURVE",
"160 337 CURVE SMOOTH",
"125 272 OFFCURVE",
"106 202 OFFCURVE",
"105 126 CURVE SMOOTH",
"104 10 LINE",
"68 2 LINE",
"68 493 LINE",
"105 500 LINE"
);
}
);
userData = {
com.fontlab.hintData = {
hhints = (
{
position = 467;
width = 34;
}
);
vhints = (
{
position = 68;
width = 37;
},
{
position = 433;
width = 36;
}
);
};
};
width = 526;
}
);
unicode = 006E;
},
{
glyphname = nacute;
layers = (
{
layerId = master01;
paths = (
{
closed = 1;
nodes = (
"356 730 LINE",
"394 698 LINE",
"241 593 LINE",
"216 617 LINE"
);
},
{
closed = 1;
nodes = (
"105 282 LINE",
"129 383 OFFCURVE",
"217 501 OFFCURVE",
"327 501 CURVE SMOOTH",
"392 501 OFFCURVE",
"434 465 OFFCURVE",
"452 397 CURVE",
"466 333 OFFCURVE",
"469 244 OFFCURVE",
"469 109 CURVE SMOOTH",
"469 10 LINE",
"433 3 LINE",
"433 144 LINE SMOOTH",
"433 246 OFFCURVE",
"431 333 OFFCURVE",
"417 386 CURVE",
"404 444 OFFCURVE",
"375 467 OFFCURVE",
"324 467 CURVE SMOOTH",
"274 467 OFFCURVE",
"218 445 OFFCURVE",
"160 337 CURVE SMOOTH",
"125 272 OFFCURVE",
"106 202 OFFCURVE",
"105 126 CURVE SMOOTH",
"104 10 LINE",
"68 2 LINE",
"68 493 LINE",
"105 500 LINE"
);
}
);
userData = {
com.fontlab.hintData = {
hhints = (
{
position = 467;
width = 34;
}
);
vhints = (
{
position = 68;
width = 37;
},
{
position = 433;
width = 36;
}
);
};
};
width = 526;
}
);
unicode = 0144;
},
{
glyphname = ncaron;
layers = (
{
layerId = master01;
paths = (
{
closed = 1;
nodes = (
"429 687 LINE",
"286 575 LINE",
"166 688 LINE",
"190 717 LINE",
"289 625 LINE",
"407 718 LINE"
);
},
{
closed = 1;
nodes = (
"105 282 LINE",
"129 383 OFFCURVE",
"217 501 OFFCURVE",
"327 501 CURVE SMOOTH",
"392 501 OFFCURVE",
"434 465 OFFCURVE",
"452 397 CURVE",
"466 333 OFFCURVE",
"469 244 OFFCURVE",
"469 109 CURVE SMOOTH",
"469 10 LINE",
"433 3 LINE",
"433 144 LINE SMOOTH",
"433 246 OFFCURVE",
"431 333 OFFCURVE",
"417 386 CURVE",
"404 444 OFFCURVE",
"375 467 OFFCURVE",
"324 467 CURVE SMOOTH",
"274 467 OFFCURVE",
"218 445 OFFCURVE",
"160 337 CURVE SMOOTH",
"125 272 OFFCURVE",
"106 202 OFFCURVE",
"105 126 CURVE SMOOTH",
"104 10 LINE",
"68 2 LINE",
"68 493 LINE",
"105 500 LINE"
);
}
);
userData = {
com.fontlab.hintData = {
hhints = (
{
position = 467;
width = 34;
}
);
vhints = (
{
position = 68;
width = 37;
},
{
position = 433;
width = 36;
}
);
};
};
width = 526;
}
);
unicode = 0148;
},
{
glyphname = ntilde;
layers = (
{
layerId = master01;
paths = (
{
closed = 1;
nodes = (
"105 282 LINE",
"129 383 OFFCURVE",
"217 501 OFFCURVE",
"327 501 CURVE SMOOTH",
"392 501 OFFCURVE",
"434 465 OFFCURVE",
"452 397 CURVE",
"466 333 OFFCURVE",
"469 244 OFFCURVE",
"469 109 CURVE SMOOTH",
"469 10 LINE",
"433 3 LINE",
"433 144 LINE SMOOTH",
"433 246 OFFCURVE",
"431 333 OFFCURVE",
"417 386 CURVE",
"404 444 OFFCURVE",
"375 467 OFFCURVE",
"324 467 CURVE SMOOTH",
"274 467 OFFCURVE",
"218 445 OFFCURVE",
"160 337 CURVE SMOOTH",
"125 272 OFFCURVE",
"106 202 OFFCURVE",
"105 126 CURVE SMOOTH",
"104 10 LINE",
"68 2 LINE",
"68 493 LINE",
"105 500 LINE"
);
},
{
closed = 1;
nodes = (
"328 617 OFFCURVE",
"339 610 OFFCURVE",
"360 610 CURVE SMOOTH",
"398 610 OFFCURVE",
"422 657 OFFCURVE",
"433 691 CURVE",
"464 681 LINE",
"447 625 OFFCURVE",
"404 579 OFFCURVE",
"360 579 CURVE SMOOTH",
"319 579 OFFCURVE",
"296 610 OFFCURVE",
"277 637 CURVE SMOOTH",
"251 674 OFFCURVE",
"240 680 OFFCURVE",
"220 680 CURVE SMOOTH",
"186 680 OFFCURVE",
"160 638 OFFCURVE",
"150 607 CURVE",
"120 617 LINE",
"136 661 OFFCURVE",
"168 712 OFFCURVE",
"220 712 CURVE SMOOTH",
"262 712 OFFCURVE",
"284 681 OFFCURVE",
"302 656 CURVE SMOOTH"
);
}
);
userData = {
com.fontlab.hintData = {
hhints = (
{
position = 467;
width = 34;
},
{
position = 579;
width = 31;
},
{
position = 680;
width = 32;
}
);
vhints = (
{
position = 68;
width = 37;
},
{
position = 433;
width = 36;
}
);
};
};
width = 526;
}
);
unicode = 00F1;
},
{
glyphname = o;
layers = (
{
layerId = master01;
paths = (
{
closed = 1;
nodes = (
"138 0 OFFCURVE",
"52 107 OFFCURVE",
"52 233 CURVE SMOOTH",
"52 380 OFFCURVE",
"153 500 OFFCURVE",
"284 500 CURVE SMOOTH",
"397 500 OFFCURVE",
"484 395 OFFCURVE",
"484 271 CURVE SMOOTH",
"484 123 OFFCURVE",
"378 0 OFFCURVE",
"252 0 CURVE SMOOTH"
);
},
{
closed = 1;
nodes = (
"177 467 OFFCURVE",
"91 358 OFFCURVE",
"91 231 CURVE SMOOTH",
"91 123 OFFCURVE",
"157 32 OFFCURVE",
"254 32 CURVE SMOOTH",
"354 32 OFFCURVE",
"446 140 OFFCURVE",
"446 266 CURVE SMOOTH",
"446 375 OFFCURVE",
"372 467 OFFCURVE",
"279 467 CURVE SMOOTH"
);
}
);
userData = {
com.fontlab.hintData = {
hhints = (
{
position = 0;
width = 32;
},
{
position = 467;
width = 33;
}
);
vhints = (
{
position = 52;
width = 39;
},
{
position = 446;
width = 38;
}
);
};
};
width = 525;
}
);
unicode = 006F;
},
{
glyphname = oacute;
layers = (
{
layerId = master01;
paths = (
{
closed = 1;
nodes = (
"368 730 LINE",
"405 698 LINE",
"253 593 LINE",
"228 617 LINE"
);
},
{
closed = 1;
nodes = (
"138 0 OFFCURVE",
"52 107 OFFCURVE",
"52 233 CURVE SMOOTH",
"52 380 OFFCURVE",
"153 500 OFFCURVE",
"284 500 CURVE SMOOTH",
"397 500 OFFCURVE",
"484 395 OFFCURVE",
"484 271 CURVE SMOOTH",
"484 123 OFFCURVE",
"378 0 OFFCURVE",
"252 0 CURVE SMOOTH"
);
},
{
closed = 1;
nodes = (
"177 467 OFFCURVE",
"91 358 OFFCURVE",
"91 231 CURVE SMOOTH",
"91 123 OFFCURVE",
"157 32 OFFCURVE",
"254 32 CURVE SMOOTH",
"354 32 OFFCURVE",
"446 140 OFFCURVE",
"446 266 CURVE SMOOTH",
"446 375 OFFCURVE",
"372 467 OFFCURVE",
"279 467 CURVE SMOOTH"
);
}
);
userData = {
com.fontlab.hintData = {
hhints = (
{
position = 0;
width = 32;
},
{
position = 467;
width = 33;
}
);
vhints = (
{
position = 52;
width = 39;
},
{
position = 446;
width = 38;
}
);
};
};
width = 525;
}
);
unicode = 00F3;
},
{
glyphname = ocircumflex;
layers = (
{
layerId = master01;
paths = (
{
closed = 1;
nodes = (
"159 603 LINE",
"301 718 LINE",
"421 603 LINE",
"398 577 LINE",
"298 667 LINE",
"181 575 LINE"
);
},
{
closed = 1;
nodes = (
"138 0 OFFCURVE",
"52 107 OFFCURVE",
"52 233 CURVE SMOOTH",
"52 380 OFFCURVE",
"153 500 OFFCURVE",
"284 500 CURVE SMOOTH",
"397 500 OFFCURVE",
"484 395 OFFCURVE",
"484 271 CURVE SMOOTH",
"484 123 OFFCURVE",
"378 0 OFFCURVE",
"252 0 CURVE SMOOTH"
);
},
{
closed = 1;
nodes = (
"177 467 OFFCURVE",
"91 358 OFFCURVE",
"91 231 CURVE SMOOTH",
"91 123 OFFCURVE",
"157 32 OFFCURVE",
"254 32 CURVE SMOOTH",
"354 32 OFFCURVE",
"446 140 OFFCURVE",
"446 266 CURVE SMOOTH",
"446 375 OFFCURVE",
"372 467 OFFCURVE",
"279 467 CURVE SMOOTH"
);
}
);
userData = {
com.fontlab.hintData = {
hhints = (
{
position = 0;
width = 32;
},
{
position = 467;
width = 33;
}
);
vhints = (
{
position = 52;
width = 39;
},
{
position = 446;
width = 38;
}
);
};
};
width = 525;
}
);
unicode = 00F4;
},
{
glyphname = odieresis;
layers = (
{
layerId = master01;
paths = (
{
closed = 1;
nodes = (
"236 604 LINE",
"182 596 LINE",
"188 660 LINE",
"244 669 LINE"
);
},
{
closed = 1;
nodes = (
"403 604 LINE",
"349 596 LINE",
"355 660 LINE",
"410 669 LINE"
);
},
{
closed = 1;
nodes = (
"138 0 OFFCURVE",
"52 107 OFFCURVE",
"52 233 CURVE SMOOTH",
"52 380 OFFCURVE",
"153 500 OFFCURVE",
"284 500 CURVE SMOOTH",
"397 500 OFFCURVE",
"484 395 OFFCURVE",
"484 271 CURVE SMOOTH",
"484 123 OFFCURVE",
"378 0 OFFCURVE",
"252 0 CURVE SMOOTH"
);
},
{
closed = 1;
nodes = (
"177 467 OFFCURVE",
"91 358 OFFCURVE",
"91 231 CURVE SMOOTH",
"91 123 OFFCURVE",
"157 32 OFFCURVE",
"254 32 CURVE SMOOTH",
"354 32 OFFCURVE",
"446 140 OFFCURVE",
"446 266 CURVE SMOOTH",
"446 375 OFFCURVE",
"372 467 OFFCURVE",
"279 467 CURVE SMOOTH"
);
}
);
userData = {
com.fontlab.hintData = {
hhints = (
{
position = 0;
width = 32;
},
{
position = 467;
width = 33;
}
);
vhints = (
{
position = 52;
width = 39;
},
{
position = 446;
width = 38;
}
);
};
};
width = 525;
}
);
unicode = 00F6;
},
{
glyphname = ograve;
layers = (
{
layerId = master01;
paths = (
{
closed = 1;
nodes = (
"327 582 LINE",
"198 712 LINE",
"239 737 LINE",
"357 602 LINE"
);
},
{
closed = 1;
nodes = (
"138 0 OFFCURVE",
"52 107 OFFCURVE",
"52 233 CURVE SMOOTH",
"52 380 OFFCURVE",
"153 500 OFFCURVE",
"284 500 CURVE SMOOTH",
"397 500 OFFCURVE",
"484 395 OFFCURVE",
"484 271 CURVE SMOOTH",
"484 123 OFFCURVE",
"378 0 OFFCURVE",
"252 0 CURVE SMOOTH"
);
},
{
closed = 1;
nodes = (
"177 467 OFFCURVE",
"91 358 OFFCURVE",
"91 231 CURVE SMOOTH",
"91 123 OFFCURVE",
"157 32 OFFCURVE",
"254 32 CURVE SMOOTH",
"354 32 OFFCURVE",
"446 140 OFFCURVE",
"446 266 CURVE SMOOTH",
"446 375 OFFCURVE",
"372 467 OFFCURVE",
"279 467 CURVE SMOOTH"
);
}
);
userData = {
com.fontlab.hintData = {
hhints = (
{
position = 0;
width = 32;
},
{
position = 467;
width = 33;
}
);
vhints = (
{
position = 52;
width = 39;
},
{
position = 446;
width = 38;
}
);
};
};
width = 525;
}
);
unicode = 00F2;
},
{
glyphname = ohungarumlaut;
layers = (
{
layerId = master01;
paths = (
{
closed = 1;
nodes = (
"293 730 LINE",
"331 698 LINE",
"179 593 LINE",
"154 617 LINE"
);
},
{
closed = 1;
nodes = (
"460 730 LINE",
"499 698 LINE",
"347 593 LINE",
"321 617 LINE"
);
},
{
closed = 1;
nodes = (
"138 0 OFFCURVE",
"52 107 OFFCURVE",
"52 233 CURVE SMOOTH",
"52 380 OFFCURVE",
"153 500 OFFCURVE",
"284 500 CURVE SMOOTH",
"397 500 OFFCURVE",
"484 395 OFFCURVE",
"484 271 CURVE SMOOTH",
"484 123 OFFCURVE",
"378 0 OFFCURVE",
"252 0 CURVE SMOOTH"
);
},
{
closed = 1;
nodes = (
"177 467 OFFCURVE",
"91 358 OFFCURVE",
"91 231 CURVE SMOOTH",
"91 123 OFFCURVE",
"157 32 OFFCURVE",
"254 32 CURVE SMOOTH",
"354 32 OFFCURVE",
"446 140 OFFCURVE",
"446 266 CURVE SMOOTH",
"446 375 OFFCURVE",
"372 467 OFFCURVE",
"279 467 CURVE SMOOTH"
);
}
);
userData = {
com.fontlab.hintData = {
hhints = (
{
position = 0;
width = 32;
},
{
position = 467;
width = 33;
}
);
vhints = (
{
position = 52;
width = 39;
},
{
position = 446;
width = 38;
}
);
};
};
width = 545;
}
);
unicode = 0151;
},
{
glyphname = oslash;
layers = (
{
layerId = master01;
paths = (
{
closed = 1;
nodes = (
"214 0 OFFCURVE",
"180 12 OFFCURVE",
"150 32 CURVE",
"113 -32 LINE",
"87 -16 LINE",
"126 51 LINE",
"80 94 OFFCURVE",
"52 161 OFFCURVE",
"52 233 CURVE SMOOTH",
"52 380 OFFCURVE",
"153 500 OFFCURVE",
"284 500 CURVE SMOOTH",
"316 500 OFFCURVE",
"347 491 OFFCURVE",
"374 476 CURVE",
"413 543 LINE",
"440 526 LINE",
"400 457 LINE",
"451 415 OFFCURVE",
"484 347 OFFCURVE",
"484 271 CURVE SMOOTH",
"484 123 OFFCURVE",
"378 0 OFFCURVE",
"252 0 CURVE SMOOTH"
);
},
{
closed = 1;
nodes = (
"446 330 OFFCURVE",
"420 388 OFFCURVE",
"381 425 CURVE",
"167 61 LINE",
"192 43 OFFCURVE",
"221 32 OFFCURVE",
"254 32 CURVE SMOOTH",
"354 32 OFFCURVE",
"446 140 OFFCURVE",
"446 266 CURVE SMOOTH"
);
},
{
closed = 1;
nodes = (
"177 467 OFFCURVE",
"91 358 OFFCURVE",
"91 231 CURVE SMOOTH",
"91 172 OFFCURVE",
"110 119 OFFCURVE",
"143 82 CURVE",
"355 444 LINE",
"332 458 OFFCURVE",
"306 467 OFFCURVE",
"279 467 CURVE SMOOTH"
);
}
);
userData = {
com.fontlab.hintData = {
hhints = (
{
position = 0;
width = 32;
},
{
position = 467;
width = 33;
}
);
vhints = (
{
position = 52;
width = 39;
},
{
position = 446;
width = 38;
}
);
};
};
width = 525;
}
);
unicode = 00F8;
},
{
glyphname = otilde;
layers = (
{
layerId = master01;
paths = (
{
closed = 1;
nodes = (
"138 0 OFFCURVE",
"52 107 OFFCURVE",
"52 233 CURVE SMOOTH",
"52 380 OFFCURVE",
"153 500 OFFCURVE",
"284 500 CURVE SMOOTH",
"397 500 OFFCURVE",
"484 395 OFFCURVE",
"484 271 CURVE SMOOTH",
"484 123 OFFCURVE",
"378 0 OFFCURVE",
"252 0 CURVE SMOOTH"
);
},
{
closed = 1;
nodes = (
"177 467 OFFCURVE",
"91 358 OFFCURVE",
"91 231 CURVE SMOOTH",
"91 123 OFFCURVE",
"157 32 OFFCURVE",
"254 32 CURVE SMOOTH",
"354 32 OFFCURVE",
"446 140 OFFCURVE",
"446 266 CURVE SMOOTH",
"446 375 OFFCURVE",
"372 467 OFFCURVE",
"279 467 CURVE SMOOTH"
);
},
{
closed = 1;
nodes = (
"328 617 OFFCURVE",
"339 610 OFFCURVE",
"360 610 CURVE SMOOTH",
"398 610 OFFCURVE",
"422 657 OFFCURVE",
"433 691 CURVE",
"464 681 LINE",
"447 625 OFFCURVE",
"404 579 OFFCURVE",
"360 579 CURVE SMOOTH",
"319 579 OFFCURVE",
"296 610 OFFCURVE",
"277 637 CURVE SMOOTH",
"251 674 OFFCURVE",
"240 680 OFFCURVE",
"220 680 CURVE SMOOTH",
"186 680 OFFCURVE",
"160 638 OFFCURVE",
"150 607 CURVE",
"120 617 LINE",
"136 661 OFFCURVE",
"168 712 OFFCURVE",
"220 712 CURVE SMOOTH",
"262 712 OFFCURVE",
"284 681 OFFCURVE",
"302 656 CURVE SMOOTH"
);
}
);
userData = {
com.fontlab.hintData = {
hhints = (
{
position = 0;
width = 32;
},
{
position = 467;
width = 33;
},
{
position = 579;
width = 31;
},
{
position = 680;
width = 32;
}
);
vhints = (
{
position = 52;
width = 39;
},
{
position = 433;
width = 31;
},
{
position = 446;
width = 38;
}
);
};
};
width = 525;
}
);
unicode = 00F5;
},
{
glyphname = oe;
layers = (
{
layerId = master01;
paths = (
{
closed = 1;
nodes = (
"742 32 OFFCURVE",
"792 54 OFFCURVE",
"831 91 CURVE",
"841 81 OFFCURVE",
"846 75 OFFCURVE",
"854 68 CURVE",
"808 25 OFFCURVE",
"750 0 OFFCURVE",
"690 0 CURVE SMOOTH",
"586 0 OFFCURVE",
"494 76 OFFCURVE",
"460 173 CURVE",
"420 70 OFFCURVE",
"332 0 OFFCURVE",
"246 0 CURVE SMOOTH",
"133 0 OFFCURVE",
"48 107 OFFCURVE",
"48 233 CURVE SMOOTH",
"48 380 OFFCURVE",
"149 500 OFFCURVE",
"280 500 CURVE SMOOTH",
"356 500 OFFCURVE",
"433 432 OFFCURVE",
"466 342 CURVE",
"499 432 OFFCURVE",
"590 502 OFFCURVE",
"688 502 CURVE SMOOTH",
"766 502 OFFCURVE",
"843 441 OFFCURVE",
"869 365 CURVE",
"500 160 LINE",
"538 84 OFFCURVE",
"609 32 OFFCURVE",
"690 32 CURVE SMOOTH"
);
},
{
closed = 1;
nodes = (
"441 375 OFFCURVE",
"368 470 OFFCURVE",
"275 470 CURVE SMOOTH",
"173 470 OFFCURVE",
"84 358 OFFCURVE",
"84 231 CURVE SMOOTH",
"84 123 OFFCURVE",
"151 29 OFFCURVE",
"248 29 CURVE SMOOTH",
"346 29 OFFCURVE",
"441 141 OFFCURVE",
"441 266 CURVE SMOOTH"
);
},
{
closed = 1;
nodes = (
"480 233 OFFCURVE",
"483 214 OFFCURVE",
"489 190 CURVE",
"827 379 LINE",
"795 436 OFFCURVE",
"743 470 OFFCURVE",
"690 470 CURVE SMOOTH",
"573 470 OFFCURVE",
"480 372 OFFCURVE",
"480 251 CURVE SMOOTH"
);
}
);
userData = {
com.fontlab.hintData = {
hhints = (
{
position = 0;
width = 32;
},
{
position = 470;
width = 30;
}
);
vhints = (
{
position = 48;
width = 36;
},
{
position = 441;
width = 39;
}
);
};
};
width = 901;
}
);
unicode = 0153;
},
{
glyphname = p;
layers = (
{
layerId = master01;
paths = (
{
closed = 1;
nodes = (
"419 493 OFFCURVE",
"466 375 OFFCURVE",
"466 271 CURVE SMOOTH",
"466 139 OFFCURVE",
"411 7 OFFCURVE",
"255 7 CURVE SMOOTH",
"203 7 OFFCURVE",
"144 26 OFFCURVE",
"105 42 CURVE",
"105 -192 LINE",
"68 -199 LINE",
"68 488 LINE",
"105 497 LINE",
"105 412 LINE",
"156 458 OFFCURVE",
"223 496 OFFCURVE",
"311 496 CURVE"
);
},
{
closed = 1;
nodes = (
"387 41 OFFCURVE",
"432 146 OFFCURVE",
"432 267 CURVE SMOOTH",
"432 344 OFFCURVE",
"408 460 OFFCURVE",
"300 460 CURVE SMOOTH",
"188 460 OFFCURVE",
"124 392 OFFCURVE",
"105 364 CURVE",
"105 80 LINE",
"127 70 OFFCURVE",
"193 41 OFFCURVE",
"256 41 CURVE SMOOTH"
);
}
);
userData = {
com.fontlab.hintData = {
hhints = (
{
position = 7;
width = 34;
},
{
position = 460;
width = 36;
}
);
vhints = (
{
position = 68;
width = 37;
},
{
position = 432;
width = 34;
}
);
};
};
width = 508;
}
);
unicode = 0070;
},
{
glyphname = thorn;
layers = (
{
layerId = master01;
paths = (
{
closed = 1;
nodes = (
"435 488 OFFCURVE",
"477 371 OFFCURVE",
"477 268 CURVE SMOOTH",
"477 215 OFFCURVE",
"470 0 OFFCURVE",
"259 0 CURVE SMOOTH",
"206 0 OFFCURVE",
"144 19 OFFCURVE",
"105 34 CURVE",
"105 -191 LINE",
"67 -183 LINE",
"67 688 LINE",
"105 697 LINE",
"105 381 LINE",
"147 440 OFFCURVE",
"225 488 OFFCURVE",
"305 488 CURVE SMOOTH"
);
},
{
closed = 1;
nodes = (
"389 35 OFFCURVE",
"440 129 OFFCURVE",
"440 268 CURVE SMOOTH",
"440 335 OFFCURVE",
"415 451 OFFCURVE",
"309 451 CURVE SMOOTH",
"191 451 OFFCURVE",
"105 360 OFFCURVE",
"105 282 CURVE SMOOTH",
"105 73 LINE",
"127 62 OFFCURVE",
"189 35 OFFCURVE",
"251 35 CURVE SMOOTH"
);
}
);
userData = {
com.fontlab.hintData = {
hhints = (
{
position = 0;
width = 35;
},
{
position = 451;
width = 37;
}
);
vhints = (
{
position = 67;
width = 38;
},
{
position = 440;
width = 37;
}
);
};
};
width = 518;
}
);
unicode = 00FE;
},
{
glyphname = q;
layers = (
{
layerId = master01;
paths = (
{
closed = 1;
nodes = (
"403 56 LINE",
"369 6 OFFCURVE",
"324 -9 OFFCURVE",
"255 -9 CURVE SMOOTH",
"138 -9 OFFCURVE",
"52 86 OFFCURVE",
"52 208 CURVE SMOOTH",
"52 392 OFFCURVE",
"171 496 OFFCURVE",
"330 496 CURVE SMOOTH",
"352 496 OFFCURVE",
"382 493 OFFCURVE",
"419 487 CURVE",
"419 510 LINE",
"455 508 LINE",
"432 -195 LINE",
"394 -202 LINE"
);
},
{
closed = 1;
nodes = (
"418 454 LINE",
"389 459 OFFCURVE",
"352 463 OFFCURVE",
"330 463 CURVE SMOOTH",
"186 463 OFFCURVE",
"85 373 OFFCURVE",
"85 206 CURVE SMOOTH",
"85 98 OFFCURVE",
"158 23 OFFCURVE",
"256 23 CURVE SMOOTH",
"346 23 OFFCURVE",
"405 72 OFFCURVE",
"408 159 CURVE SMOOTH"
);
}
);
userData = {
com.fontlab.hintData = {
hhints = (
{
position = -202;
width = 21;
},
{
position = -9;
width = 32;
},
{
position = 463;
width = 33;
},
{
position = 490;
width = 20;
}
);
vhints = (
{
position = 52;
width = 33;
},
{
position = 394;
width = 38;
},
{
position = 419;
width = 36;
}
);
};
};
width = 513;
}
);
unicode = 0071;
},
{
glyphname = r;
layers = (
{
layerId = master01;
paths = (
{
closed = 1;
nodes = (
"106 366 LINE",
"135 421 OFFCURVE",
"211 502 OFFCURVE",
"296 502 CURVE SMOOTH",
"338 502 OFFCURVE",
"371 474 OFFCURVE",
"371 438 CURVE SMOOTH",
"371 404 LINE",
"334 397 LINE",
"334 419 LINE SMOOTH",
"334 447 OFFCURVE",
"329 466 OFFCURVE",
"288 466 CURVE SMOOTH",
"210 466 OFFCURVE",
"106 357 OFFCURVE",
"106 252 CURVE SMOOTH",
"106 9 LINE",
"69 2 LINE",
"69 493 LINE",
"106 500 LINE"
);
}
);
userData = {
com.fontlab.hintData = {
hhints = (
{
position = 466;
width = 36;
}
);
vhints = (
{
position = 69;
width = 37;
},
{
position = 334;
width = 37;
}
);
};
};
width = 391;
}
);
unicode = 0072;
},
{
glyphname = racute;
layers = (
{
layerId = master01;
paths = (
{
closed = 1;
nodes = (
"285 730 LINE",
"323 698 LINE",
"171 593 LINE",
"146 617 LINE"
);
},
{
closed = 1;
nodes = (
"106 366 LINE",
"135 421 OFFCURVE",
"211 502 OFFCURVE",
"296 502 CURVE SMOOTH",
"338 502 OFFCURVE",
"371 474 OFFCURVE",
"371 438 CURVE SMOOTH",
"371 404 LINE",
"334 397 LINE",
"334 419 LINE SMOOTH",
"334 447 OFFCURVE",
"329 466 OFFCURVE",
"288 466 CURVE SMOOTH",
"210 466 OFFCURVE",
"106 357 OFFCURVE",
"106 252 CURVE SMOOTH",
"106 9 LINE",
"69 2 LINE",
"69 493 LINE",
"106 500 LINE"
);
}
);
userData = {
com.fontlab.hintData = {
hhints = (
{
position = 466;
width = 36;
}
);
vhints = (
{
position = 69;
width = 37;
},
{
position = 334;
width = 37;
}
);
};
};
width = 391;
}
);
unicode = 0155;
},
{
glyphname = rcaron;
layers = (
{
layerId = master01;
paths = (
{
closed = 1;
nodes = (
"367 687 LINE",
"225 575 LINE",
"105 688 LINE",
"129 717 LINE",
"228 625 LINE",
"346 718 LINE"
);
},
{
closed = 1;
nodes = (
"106 366 LINE",
"135 421 OFFCURVE",
"211 502 OFFCURVE",
"296 502 CURVE SMOOTH",
"338 502 OFFCURVE",
"371 474 OFFCURVE",
"371 438 CURVE SMOOTH",
"371 404 LINE",
"334 397 LINE",
"334 419 LINE SMOOTH",
"334 447 OFFCURVE",
"329 466 OFFCURVE",
"288 466 CURVE SMOOTH",
"210 466 OFFCURVE",
"106 357 OFFCURVE",
"106 252 CURVE SMOOTH",
"106 9 LINE",
"69 2 LINE",
"69 493 LINE",
"106 500 LINE"
);
}
);
userData = {
com.fontlab.hintData = {
hhints = (
{
position = 466;
width = 36;
}
);
vhints = (
{
position = 69;
width = 37;
},
{
position = 334;
width = 37;
}
);
};
};
width = 392;
}
);
unicode = 0159;
},
{
glyphname = s;
layers = (
{
layerId = master01;
paths = (
{
closed = 1;
nodes = (
"373 390 LINE SMOOTH",
"373 456 OFFCURVE",
"307 475 OFFCURVE",
"255 475 CURVE SMOOTH",
"149 474 OFFCURVE",
"119 433 OFFCURVE",
"119 380 CURVE SMOOTH",
"119 333 OFFCURVE",
"161 306 OFFCURVE",
"244 284 CURVE SMOOTH",
"353 254 OFFCURVE",
"406 215 OFFCURVE",
"406 141 CURVE SMOOTH",
"406 30 OFFCURVE",
"290 0 OFFCURVE",
"234 0 CURVE SMOOTH",
"154 0 OFFCURVE",
"81 35 OFFCURVE",
"57 107 CURVE",
"92 112 LINE",
"114 59 OFFCURVE",
"175 31 OFFCURVE",
"234 31 CURVE SMOOTH",
"305 31 OFFCURVE",
"368 75 OFFCURVE",
"368 140 CURVE SMOOTH",
"368 206 OFFCURVE",
"310 229 OFFCURVE",
"237 249 CURVE SMOOTH",
"164 268 OFFCURVE",
"82 303 OFFCURVE",
"82 381 CURVE SMOOTH",
"82 484 OFFCURVE",
"182 505 OFFCURVE",
"255 505 CURVE SMOOTH",
"310 505 OFFCURVE",
"404 487 OFFCURVE",
"404 403 CURVE SMOOTH",
"404 394 LINE",
"373 386 LINE"
);
}
);
userData = {
com.fontlab.hintData = {
hhints = (
{
position = 0;
width = 31;
},
{
position = 475;
width = 30;
}
);
vhints = (
{
position = 82;
width = 37;
},
{
position = 368;
width = 38;
}
);
};
};
width = 450;
}
);
unicode = 0073;
},
{
glyphname = sacute;
layers = (
{
layerId = master01;
paths = (
{
closed = 1;
nodes = (
"309 730 LINE",
"347 698 LINE",
"195 593 LINE",
"169 617 LINE"
);
},
{
closed = 1;
nodes = (
"373 390 LINE SMOOTH",
"373 456 OFFCURVE",
"307 475 OFFCURVE",
"255 475 CURVE SMOOTH",
"149 474 OFFCURVE",
"119 433 OFFCURVE",
"119 380 CURVE SMOOTH",
"119 333 OFFCURVE",
"161 306 OFFCURVE",
"244 284 CURVE SMOOTH",
"353 254 OFFCURVE",
"406 215 OFFCURVE",
"406 141 CURVE SMOOTH",
"406 30 OFFCURVE",
"290 0 OFFCURVE",
"234 0 CURVE SMOOTH",
"154 0 OFFCURVE",
"81 35 OFFCURVE",
"57 107 CURVE",
"92 112 LINE",
"114 59 OFFCURVE",
"175 31 OFFCURVE",
"234 31 CURVE SMOOTH",
"305 31 OFFCURVE",
"368 75 OFFCURVE",
"368 140 CURVE SMOOTH",
"368 206 OFFCURVE",
"310 229 OFFCURVE",
"237 249 CURVE SMOOTH",
"164 268 OFFCURVE",
"82 303 OFFCURVE",
"82 381 CURVE SMOOTH",
"82 484 OFFCURVE",
"182 505 OFFCURVE",
"255 505 CURVE SMOOTH",
"310 505 OFFCURVE",
"404 487 OFFCURVE",
"404 403 CURVE SMOOTH",
"404 394 LINE",
"373 386 LINE"
);
}
);
userData = {
com.fontlab.hintData = {
hhints = (
{
position = 0;
width = 31;
},
{
position = 475;
width = 30;
}
);
vhints = (
{
position = 82;
width = 37;
},
{
position = 368;
width = 38;
}
);
};
};
width = 450;
}
);
unicode = 015B;
},
{
glyphname = scaron;
layers = (
{
layerId = master01;
paths = (
{
closed = 1;
nodes = (
"383 687 LINE",
"240 575 LINE",
"120 688 LINE",
"144 717 LINE",
"243 625 LINE",
"361 718 LINE"
);
},
{
closed = 1;
nodes = (
"373 390 LINE SMOOTH",
"373 456 OFFCURVE",
"307 475 OFFCURVE",
"255 475 CURVE SMOOTH",
"149 474 OFFCURVE",
"119 433 OFFCURVE",
"119 380 CURVE SMOOTH",
"119 333 OFFCURVE",
"161 306 OFFCURVE",
"244 284 CURVE SMOOTH",
"353 254 OFFCURVE",
"406 215 OFFCURVE",
"406 141 CURVE SMOOTH",
"406 30 OFFCURVE",
"290 0 OFFCURVE",
"234 0 CURVE SMOOTH",
"154 0 OFFCURVE",
"81 35 OFFCURVE",
"57 107 CURVE",
"92 112 LINE",
"114 59 OFFCURVE",
"175 31 OFFCURVE",
"234 31 CURVE SMOOTH",
"305 31 OFFCURVE",
"368 75 OFFCURVE",
"368 140 CURVE SMOOTH",
"368 206 OFFCURVE",
"310 229 OFFCURVE",
"237 249 CURVE SMOOTH",
"164 268 OFFCURVE",
"82 303 OFFCURVE",
"82 381 CURVE SMOOTH",
"82 484 OFFCURVE",
"182 505 OFFCURVE",
"255 505 CURVE SMOOTH",
"310 505 OFFCURVE",
"404 487 OFFCURVE",
"404 403 CURVE SMOOTH",
"404 394 LINE",
"373 386 LINE"
);
}
);
userData = {
com.fontlab.hintData = {
hhints = (
{
position = 0;
width = 31;
},
{
position = 475;
width = 30;
}
);
vhints = (
{
position = 82;
width = 37;
},
{
position = 368;
width = 38;
}
);
};
};
width = 450;
}
);
unicode = 0161;
},
{
glyphname = scedilla;
layers = (
{
layerId = master01;
paths = (
{
closed = 1;
nodes = (
"275 -186 OFFCURVE",
"301 -159 OFFCURVE",
"301 -125 CURVE SMOOTH",
"301 -91 OFFCURVE",
"275 -64 OFFCURVE",
"241 -64 CURVE SMOOTH",
"235 -64 OFFCURVE",
"219 -66 OFFCURVE",
"210 -72 CURVE",
"189 -52 LINE",
"208 1 LINE",
"138 8 OFFCURVE",
"78 43 OFFCURVE",
"57 107 CURVE",
"92 112 LINE",
"114 59 OFFCURVE",
"175 31 OFFCURVE",
"234 31 CURVE SMOOTH",
"305 31 OFFCURVE",
"368 75 OFFCURVE",
"368 140 CURVE SMOOTH",
"368 206 OFFCURVE",
"310 229 OFFCURVE",
"237 249 CURVE SMOOTH",
"164 268 OFFCURVE",
"82 303 OFFCURVE",
"82 381 CURVE SMOOTH",
"82 484 OFFCURVE",
"182 505 OFFCURVE",
"255 505 CURVE SMOOTH",
"310 505 OFFCURVE",
"404 487 OFFCURVE",
"404 403 CURVE SMOOTH",
"404 394 LINE",
"373 386 LINE",
"373 390 LINE SMOOTH",
"373 456 OFFCURVE",
"307 475 OFFCURVE",
"255 475 CURVE SMOOTH",
"149 474 OFFCURVE",
"119 433 OFFCURVE",
"119 380 CURVE SMOOTH",
"119 333 OFFCURVE",
"161 306 OFFCURVE",
"244 284 CURVE SMOOTH",
"353 254 OFFCURVE",
"406 215 OFFCURVE",
"406 141 CURVE SMOOTH",
"406 30 OFFCURVE",
"290 0 OFFCURVE",
"234 0 CURVE SMOOTH",
"220 0 LINE",
"219 -41 LINE",
"233 -41 LINE SMOOTH",
"286 -41 OFFCURVE",
"325 -73 OFFCURVE",
"325 -124 CURVE SMOOTH",
"325 -171 OFFCURVE",
"288 -209 OFFCURVE",
"241 -209 CURVE SMOOTH",
"217 -209 OFFCURVE",
"195 -200 OFFCURVE",
"179 -184 CURVE",
"196 -168 LINE",
"208 -180 OFFCURVE",
"227 -186 OFFCURVE",
"241 -186 CURVE SMOOTH"
);
}
);
userData = {
com.fontlab.hintData = {
hhints = (
{
position = -209;
width = 23;
},
{
position = -64;
width = 23;
},
{
position = 0;
width = 31;
},
{
position = 475;
width = 30;
}
);
vhints = (
{
position = 82;
width = 37;
},
{
position = 301;
width = 24;
},
{
position = 368;
width = 38;
}
);
};
};
width = 450;
}
);
unicode = 015F;
},
{
glyphname = scircumflex;
layers = (
{
layerId = master01;
paths = (
{
closed = 1;
nodes = (
"373 390 LINE SMOOTH",
"373 456 OFFCURVE",
"307 475 OFFCURVE",
"255 475 CURVE SMOOTH",
"149 474 OFFCURVE",
"119 433 OFFCURVE",
"119 380 CURVE SMOOTH",
"119 333 OFFCURVE",
"161 306 OFFCURVE",
"244 284 CURVE SMOOTH",
"353 254 OFFCURVE",
"406 215 OFFCURVE",
"406 141 CURVE SMOOTH",
"406 30 OFFCURVE",
"290 0 OFFCURVE",
"234 0 CURVE SMOOTH",
"154 0 OFFCURVE",
"81 35 OFFCURVE",
"57 107 CURVE",
"92 112 LINE",
"114 59 OFFCURVE",
"175 31 OFFCURVE",
"234 31 CURVE SMOOTH",
"305 31 OFFCURVE",
"368 75 OFFCURVE",
"368 140 CURVE SMOOTH",
"368 206 OFFCURVE",
"310 229 OFFCURVE",
"237 249 CURVE SMOOTH",
"164 268 OFFCURVE",
"82 303 OFFCURVE",
"82 381 CURVE SMOOTH",
"82 484 OFFCURVE",
"182 505 OFFCURVE",
"255 505 CURVE SMOOTH",
"310 505 OFFCURVE",
"404 487 OFFCURVE",
"404 403 CURVE SMOOTH",
"404 394 LINE",
"373 386 LINE"
);
},
{
closed = 1;
nodes = (
"121 603 LINE",
"264 718 LINE",
"384 603 LINE",
"361 577 LINE",
"261 667 LINE",
"143 575 LINE"
);
}
);
userData = {
com.fontlab.hintData = {
hhints = (
{
position = 0;
width = 31;
},
{
position = 475;
width = 30;
}
);
vhints = (
{
position = 82;
width = 37;
},
{
position = 368;
width = 38;
}
);
};
};
width = 450;
}
);
unicode = 015D;
},
{
glyphname = germandbls;
layers = (
{
layerId = master01;
paths = (
{
closed = 1;
nodes = (
"435 338 OFFCURVE",
"491 259 OFFCURVE",
"491 172 CURVE SMOOTH",
"491 66 OFFCURVE",
"403 -25 OFFCURVE",
"296 -25 CURVE SMOOTH",
"266 -25 OFFCURVE",
"239 -19 OFFCURVE",
"194 4 CURVE",
"209 33 LINE",
"245 15 OFFCURVE",
"272 8 OFFCURVE",
"296 8 CURVE SMOOTH",
"382 8 OFFCURVE",
"456 82 OFFCURVE",
"456 171 CURVE SMOOTH",
"456 251 OFFCURVE",
"394 333 OFFCURVE",
"299 333 CURVE SMOOTH",
"278 333 OFFCURVE",
"262 331 OFFCURVE",
"234 325 CURVE",
"245 359 LINE",
"339 376 OFFCURVE",
"369 433 OFFCURVE",
"369 486 CURVE SMOOTH",
"369 555 OFFCURVE",
"314 612 OFFCURVE",
"244 612 CURVE SMOOTH",
"175 612 OFFCURVE",
"118 555 OFFCURVE",
"118 486 CURVE SMOOTH",
"118 23 LINE",
"81 -6 LINE",
"81 486 LINE SMOOTH",
"81 574 OFFCURVE",
"156 646 OFFCURVE",
"244 646 CURVE SMOOTH",
"331 646 OFFCURVE",
"402 574 OFFCURVE",
"402 486 CURVE SMOOTH",
"402 444 OFFCURVE",
"381 392 OFFCURVE",
"342 362 CURVE"
);
}
);
userData = {
com.fontlab.hintData = {
hhints = (
{
position = -25;
width = 33;
},
{
position = 325;
width = 34;
},
{
position = 612;
width = 34;
}
);
vhints = (
{
position = 81;
width = 37;
},
{
position = 369;
width = 33;
},
{
position = 456;
width = 35;
}
);
};
};
width = 515;
}
);
unicode = 00DF;
},
{
glyphname = t;
layers = (
{
layerId = master01;
paths = (
{
closed = 1;
nodes = (
"348 465 LINE",
"205 465 LINE",
"205 9 LINE",
"166 2 LINE",
"166 465 LINE",
"22 465 LINE",
"22 502 LINE",
"166 502 LINE",
"166 669 LINE",
"205 676 LINE",
"205 502 LINE",
"348 502 LINE"
);
}
);
userData = {
com.fontlab.hintData = {
hhints = (
{
position = 465;
width = 37;
}
);
vhints = (
{
position = 166;
width = 39;
}
);
};
};
width = 363;
}
);
unicode = 0074;
},
{
glyphname = tcaron;
layers = (
{
layerId = master01;
paths = (
{
closed = 1;
nodes = (
"402 713 LINE",
"316 558 LINE",
"283 577 LINE",
"340 677 LINE",
"302 699 LINE",
"345 744 LINE"
);
},
{
closed = 1;
nodes = (
"348 465 LINE",
"204 465 LINE",
"204 9 LINE",
"166 2 LINE",
"166 465 LINE",
"22 465 LINE",
"22 502 LINE",
"166 502 LINE",
"166 669 LINE",
"204 676 LINE",
"204 502 LINE",
"348 502 LINE"
);
}
);
userData = {
com.fontlab.hintData = {
hhints = (
{
position = 465;
width = 37;
}
);
vhints = (
{
position = 166;
width = 38;
}
);
};
};
width = 419;
}
);
unicode = 0165;
},
{
glyphname = u;
layers = (
{
layerId = master01;
paths = (
{
closed = 1;
nodes = (
"105 159 OFFCURVE",
"100 26 OFFCURVE",
"218 26 CURVE SMOOTH",
"294 26 OFFCURVE",
"371 97 OFFCURVE",
"394 123 CURVE SMOOTH",
"402 132 OFFCURVE",
"409 149 OFFCURVE",
"409 175 CURVE SMOOTH",
"410 495 LINE",
"449 502 LINE",
"449 9 LINE",
"405 2 LINE",
"405 90 LINE",
"367 47 OFFCURVE",
"292 -6 OFFCURVE",
"217 -6 CURVE SMOOTH",
"69.974 -6 OFFCURVE",
"69 143.948 OFFCURVE",
"69 285.312 CURVE SMOOTH",
"69 287.21 OFFCURVE",
"69 289.106 OFFCURVE",
"69 291 CURVE SMOOTH",
"69 335 OFFCURVE",
"73 425 OFFCURVE",
"84 495 CURVE",
"120 502 LINE",
"115 465 OFFCURVE",
"104 368 OFFCURVE",
"104 291 CURVE SMOOTH"
);
}
);
userData = {
com.fontlab.hintData = {
hhints = (
{
position = -6;
width = 32;
},
{
position = 482;
width = 20;
}
);
vhints = (
{
position = 69;
width = 35;
},
{
position = 405;
width = 44;
}
);
};
};
width = 506;
}
);
unicode = 0075;
},
{
glyphname = uacute;
layers = (
{
layerId = master01;
paths = (
{
closed = 1;
nodes = (
"338 730 LINE",
"375 698 LINE",
"223 593 LINE",
"198 617 LINE"
);
},
{
closed = 1;
nodes = (
"105 159 OFFCURVE",
"100 26 OFFCURVE",
"218 26 CURVE SMOOTH",
"294 26 OFFCURVE",
"371 97 OFFCURVE",
"394 123 CURVE SMOOTH",
"402 132 OFFCURVE",
"409 149 OFFCURVE",
"409 175 CURVE SMOOTH",
"410 495 LINE",
"449 502 LINE",
"449 9 LINE",
"405 2 LINE",
"405 90 LINE",
"367 47 OFFCURVE",
"292 -6 OFFCURVE",
"217 -6 CURVE SMOOTH",
"69.974 -6 OFFCURVE",
"69 143.948 OFFCURVE",
"69 285.312 CURVE SMOOTH",
"69 287.21 OFFCURVE",
"69 289.106 OFFCURVE",
"69 291 CURVE SMOOTH",
"69 335 OFFCURVE",
"73 425 OFFCURVE",
"84 495 CURVE",
"120 502 LINE",
"115 465 OFFCURVE",
"104 368 OFFCURVE",
"104 291 CURVE SMOOTH"
);
}
);
userData = {
com.fontlab.hintData = {
hhints = (
{
position = -6;
width = 32;
},
{
position = 482;
width = 20;
}
);
vhints = (
{
position = 69;
width = 35;
},
{
position = 405;
width = 44;
}
);
};
};
width = 506;
}
);
unicode = 00FA;
},
{
glyphname = ubreve;
layers = (
{
layerId = master01;
paths = (
{
closed = 1;
nodes = (
"105 159 OFFCURVE",
"100 26 OFFCURVE",
"218 26 CURVE SMOOTH",
"294 26 OFFCURVE",
"371 97 OFFCURVE",
"394 123 CURVE SMOOTH",
"402 132 OFFCURVE",
"409 149 OFFCURVE",
"409 175 CURVE SMOOTH",
"410 495 LINE",
"449 502 LINE",
"449 9 LINE",
"405 2 LINE",
"405 90 LINE",
"367 47 OFFCURVE",
"292 -6 OFFCURVE",
"217 -6 CURVE SMOOTH",
"69.974 -6 OFFCURVE",
"69 143.948 OFFCURVE",
"69 285.312 CURVE SMOOTH",
"69 287.21 OFFCURVE",
"69 289.106 OFFCURVE",
"69 291 CURVE SMOOTH",
"69 335 OFFCURVE",
"73 425 OFFCURVE",
"84 495 CURVE",
"120 502 LINE",
"115 465 OFFCURVE",
"104 368 OFFCURVE",
"104 291 CURVE SMOOTH"
);
},
{
closed = 1;
nodes = (
"324 609 OFFCURVE",
"372 634 OFFCURVE",
"392 683 CURVE",
"410 666 LINE",
"389 617 OFFCURVE",
"332 582 OFFCURVE",
"273 582 CURVE SMOOTH",
"207 582 OFFCURVE",
"153 614 OFFCURVE",
"128 662 CURVE",
"144 679 LINE",
"182 621 OFFCURVE",
"232 609 OFFCURVE",
"271 609 CURVE SMOOTH"
);
}
);
userData = {
com.fontlab.hintData = {
hhints = (
{
position = -6;
width = 32;
},
{
position = 482;
width = 20;
},
{
position = 582;
width = 27;
},
{
position = 663;
width = 20;
}
);
vhints = (
{
position = 69;
width = 35;
},
{
position = 405;
width = 44;
}
);
};
};
width = 506;
}
);
unicode = 016D;
},
{
glyphname = ucircumflex;
layers = (
{
layerId = master01;
paths = (
{
closed = 1;
nodes = (
"143 603 LINE",
"285 718 LINE",
"405 603 LINE",
"382 577 LINE",
"282 667 LINE",
"165 575 LINE"
);
},
{
closed = 1;
nodes = (
"105 159 OFFCURVE",
"100 26 OFFCURVE",
"218 26 CURVE SMOOTH",
"294 26 OFFCURVE",
"371 97 OFFCURVE",
"394 123 CURVE SMOOTH",
"402 132 OFFCURVE",
"409 149 OFFCURVE",
"409 175 CURVE SMOOTH",
"410 495 LINE",
"449 502 LINE",
"449 9 LINE",
"405 2 LINE",
"405 90 LINE",
"367 47 OFFCURVE",
"292 -6 OFFCURVE",
"217 -6 CURVE SMOOTH",
"69.974 -6 OFFCURVE",
"69 143.948 OFFCURVE",
"69 285.312 CURVE SMOOTH",
"69 287.21 OFFCURVE",
"69 289.106 OFFCURVE",
"69 291 CURVE SMOOTH",
"69 335 OFFCURVE",
"73 425 OFFCURVE",
"84 495 CURVE",
"120 502 LINE",
"115 465 OFFCURVE",
"104 368 OFFCURVE",
"104 291 CURVE SMOOTH"
);
}
);
userData = {
com.fontlab.hintData = {
hhints = (
{
position = -6;
width = 32;
},
{
position = 482;
width = 20;
}
);
vhints = (
{
position = 69;
width = 35;
},
{
position = 405;
width = 44;
}
);
};
};
width = 506;
}
);
unicode = 00FB;
},
{
glyphname = udieresis;
layers = (
{
layerId = master01;
paths = (
{
closed = 1;
nodes = (
"214 604 LINE",
"159 596 LINE",
"166 660 LINE",
"221 669 LINE"
);
},
{
closed = 1;
nodes = (
"381 604 LINE",
"327 596 LINE",
"333 660 LINE",
"389 669 LINE"
);
},
{
closed = 1;
nodes = (
"105 159 OFFCURVE",
"100 26 OFFCURVE",
"218 26 CURVE SMOOTH",
"294 26 OFFCURVE",
"371 97 OFFCURVE",
"394 123 CURVE SMOOTH",
"402 132 OFFCURVE",
"409 149 OFFCURVE",
"409 175 CURVE SMOOTH",
"410 495 LINE",
"449 502 LINE",
"449 9 LINE",
"405 2 LINE",
"405 90 LINE",
"367 47 OFFCURVE",
"292 -6 OFFCURVE",
"217 -6 CURVE SMOOTH",
"69.974 -6 OFFCURVE",
"69 143.948 OFFCURVE",
"69 285.312 CURVE SMOOTH",
"69 287.21 OFFCURVE",
"69 289.106 OFFCURVE",
"69 291 CURVE SMOOTH",
"69 335 OFFCURVE",
"73 425 OFFCURVE",
"84 495 CURVE",
"120 502 LINE",
"115 465 OFFCURVE",
"104 368 OFFCURVE",
"104 291 CURVE SMOOTH"
);
}
);
userData = {
com.fontlab.hintData = {
hhints = (
{
position = -6;
width = 32;
},
{
position = 482;
width = 20;
}
);
vhints = (
{
position = 69;
width = 35;
},
{
position = 405;
width = 44;
}
);
};
};
width = 506;
}
);
unicode = 00FC;
},
{
glyphname = ugrave;
layers = (
{
layerId = master01;
paths = (
{
closed = 1;
nodes = (
"310 582 LINE",
"181 712 LINE",
"223 737 LINE",
"341 602 LINE"
);
},
{
closed = 1;
nodes = (
"105 159 OFFCURVE",
"100 26 OFFCURVE",
"218 26 CURVE SMOOTH",
"294 26 OFFCURVE",
"371 97 OFFCURVE",
"394 123 CURVE SMOOTH",
"402 132 OFFCURVE",
"409 149 OFFCURVE",
"409 175 CURVE SMOOTH",
"410 495 LINE",
"449 502 LINE",
"449 9 LINE",
"405 2 LINE",
"405 90 LINE",
"367 47 OFFCURVE",
"292 -6 OFFCURVE",
"217 -6 CURVE SMOOTH",
"69.974 -6 OFFCURVE",
"69 143.948 OFFCURVE",
"69 285.312 CURVE SMOOTH",
"69 287.21 OFFCURVE",
"69 289.106 OFFCURVE",
"69 291 CURVE SMOOTH",
"69 335 OFFCURVE",
"73 425 OFFCURVE",
"84 495 CURVE",
"120 502 LINE",
"115 465 OFFCURVE",
"104 368 OFFCURVE",
"104 291 CURVE SMOOTH"
);
}
);
userData = {
com.fontlab.hintData = {
hhints = (
{
position = -6;
width = 32;
},
{
position = 482;
width = 20;
}
);
vhints = (
{
position = 69;
width = 35;
},
{
position = 405;
width = 44;
}
);
};
};
width = 506;
}
);
unicode = 00F9;
},
{
glyphname = uhungarumlaut;
layers = (
{
layerId = master01;
paths = (
{
closed = 1;
nodes = (
"260 730 LINE",
"298 698 LINE",
"146 593 LINE",
"121 617 LINE"
);
},
{
closed = 1;
nodes = (
"427 730 LINE",
"465 698 LINE",
"313 593 LINE",
"287 617 LINE"
);
},
{
closed = 1;
nodes = (
"105 159 OFFCURVE",
"100 26 OFFCURVE",
"218 26 CURVE SMOOTH",
"294 26 OFFCURVE",
"371 97 OFFCURVE",
"394 123 CURVE SMOOTH",
"402 132 OFFCURVE",
"409 149 OFFCURVE",
"409 175 CURVE SMOOTH",
"410 495 LINE",
"449 502 LINE",
"449 9 LINE",
"405 2 LINE",
"405 90 LINE",
"367 47 OFFCURVE",
"292 -6 OFFCURVE",
"217 -6 CURVE SMOOTH",
"69.974 -6 OFFCURVE",
"69 143.948 OFFCURVE",
"69 285.312 CURVE SMOOTH",
"69 287.21 OFFCURVE",
"69 289.106 OFFCURVE",
"69 291 CURVE SMOOTH",
"69 335 OFFCURVE",
"73 425 OFFCURVE",
"84 495 CURVE",
"120 502 LINE",
"115 465 OFFCURVE",
"104 368 OFFCURVE",
"104 291 CURVE SMOOTH"
);
}
);
userData = {
com.fontlab.hintData = {
hhints = (
{
position = -6;
width = 32;
},
{
position = 482;
width = 20;
}
);
vhints = (
{
position = 69;
width = 35;
},
{
position = 405;
width = 44;
}
);
};
};
width = 528;
}
);
unicode = 0171;
},
{
glyphname = uni0163;
layers = (
{
layerId = master01;
paths = (
{
closed = 1;
nodes = (
"348 465 LINE",
"205 465 LINE",
"205 9 LINE",
"166 2 LINE",
"166 465 LINE",
"22 465 LINE",
"22 502 LINE",
"166 502 LINE",
"166 669 LINE",
"205 676 LINE",
"205 502 LINE",
"348 502 LINE"
);
},
{
closed = 1;
nodes = (
"246 -74 LINE",
"160 -229 LINE",
"128 -210 LINE",
"184 -110 LINE",
"146 -89 LINE",
"189 -44 LINE"
);
}
);
userData = {
com.fontlab.hintData = {
hhints = (
{
position = 465;
width = 37;
}
);
vhints = (
{
position = 166;
width = 39;
}
);
};
};
width = 363;
}
);
unicode = 0163;
},
{
glyphname = uring;
layers = (
{
layerId = master01;
paths = (
{
closed = 1;
nodes = (
"105 159 OFFCURVE",
"100 26 OFFCURVE",
"218 26 CURVE SMOOTH",
"294 26 OFFCURVE",
"371 97 OFFCURVE",
"394 123 CURVE SMOOTH",
"402 132 OFFCURVE",
"409 149 OFFCURVE",
"409 175 CURVE SMOOTH",
"410 495 LINE",
"449 502 LINE",
"449 9 LINE",
"405 2 LINE",
"405 90 LINE",
"367 47 OFFCURVE",
"292 -6 OFFCURVE",
"217 -6 CURVE SMOOTH",
"69.974 -6 OFFCURVE",
"69 143.948 OFFCURVE",
"69 285.312 CURVE SMOOTH",
"69 287.21 OFFCURVE",
"69 289.106 OFFCURVE",
"69 291 CURVE SMOOTH",
"69 335 OFFCURVE",
"73 425 OFFCURVE",
"84 495 CURVE",
"120 502 LINE",
"115 465 OFFCURVE",
"104 368 OFFCURVE",
"104 291 CURVE SMOOTH"
);
},
{
closed = 1;
nodes = (
"209 587 OFFCURVE",
"165 630 OFFCURVE",
"165 682 CURVE SMOOTH",
"165 741 OFFCURVE",
"222 792 OFFCURVE",
"292 792 CURVE SMOOTH",
"358 792 OFFCURVE",
"399 744 OFFCURVE",
"399 697 CURVE SMOOTH",
"399 627 OFFCURVE",
"331 587 OFFCURVE",
"272 587 CURVE SMOOTH"
);
},
{
closed = 1;
nodes = (
"249 767 OFFCURVE",
"190 734 OFFCURVE",
"190 682 CURVE SMOOTH",
"190 641 OFFCURVE",
"225 611 OFFCURVE",
"274 611 CURVE SMOOTH",
"322 611 OFFCURVE",
"373 648 OFFCURVE",
"373 694 CURVE SMOOTH",
"373 735 OFFCURVE",
"337 767 OFFCURVE",
"289 767 CURVE SMOOTH"
);
}
);
userData = {
com.fontlab.hintData = {
hhints = (
{
position = -6;
width = 32;
},
{
position = 482;
width = 20;
},
{
position = 587;
width = 24;
},
{
position = 767;
width = 25;
}
);
vhints = (
{
position = 69;
width = 35;
},
{
position = 165;
width = 25;
},
{
position = 373;
width = 26;
},
{
position = 405;
width = 44;
}
);
};
};
width = 505;
}
);
unicode = 016F;
},
{
glyphname = v;
layers = (
{
layerId = master01;
paths = (
{
closed = 1;
nodes = (
"249 11 LINE",
"202 2 LINE",
"13 483 LINE",
"50 497 LINE",
"223 41 LINE",
"398 498 LINE",
"432 483 LINE"
);
}
);
width = 437;
}
);
unicode = 0076;
},
{
glyphname = w;
layers = (
{
layerId = master01;
paths = (
{
closed = 1;
nodes = (
"592 485 LINE",
"632 494 LINE",
"481 11 LINE",
"436 2 LINE",
"334 430 LINE",
"187 11 LINE",
"140 2 LINE",
"42 486 LINE",
"78 495 LINE",
"167 43 LINE",
"314 485 LINE",
"356 494 LINE",
"460 40 LINE"
);
}
);
width = 643;
}
);
unicode = 0077;
},
{
glyphname = x;
layers = (
{
layerId = master01;
paths = (
{
closed = 1;
nodes = (
"391 0 LINE",
"231 228 LINE",
"42 0 LINE",
"14 24 LINE",
"210 259 LINE",
"57 479 LINE",
"87 500 LINE",
"234 288 LINE",
"410 500 LINE",
"438 476 LINE",
"256 257 LINE",
"421 21 LINE"
);
}
);
userData = {
com.fontlab.hintData = {
hhints = (
{
position = 0;
width = 21;
},
{
position = 480;
width = 20;
}
);
};
};
width = 461;
}
);
unicode = 0078;
},
{
glyphname = y;
layers = (
{
layerId = master01;
paths = (
{
closed = 1;
nodes = (
"476 480 LINE",
"160 -202 LINE",
"125 -185 LINE",
"237 53 LINE",
"24 479 LINE",
"59 496 LINE",
"256 98 LINE",
"442 497 LINE"
);
}
);
userData = {
com.fontlab.hintData = {
hhints = (
{
position = -202;
width = 21;
}
);
};
};
width = 490;
}
);
unicode = 0079;
},
{
glyphname = yacute;
layers = (
{
layerId = master01;
paths = (
{
closed = 1;
nodes = (
"313 730 LINE",
"351 698 LINE",
"199 593 LINE",
"173 617 LINE"
);
},
{
closed = 1;
nodes = (
"476 479 LINE",
"160 -203 LINE",
"125 -186 LINE",
"237 52 LINE",
"24 478 LINE",
"59 495 LINE",
"256 97 LINE",
"442 496 LINE"
);
}
);
userData = {
com.fontlab.hintData = {
hhints = (
{
position = -203;
width = 21;
}
);
};
};
width = 490;
}
);
unicode = 00FD;
},
{
glyphname = ydieresis;
layers = (
{
layerId = master01;
paths = (
{
closed = 1;
nodes = (
"197 604 LINE",
"143 596 LINE",
"149 660 LINE",
"204 669 LINE"
);
},
{
closed = 1;
nodes = (
"364 604 LINE",
"310 596 LINE",
"316 660 LINE",
"371 669 LINE"
);
},
{
closed = 1;
nodes = (
"476 480 LINE",
"160 -202 LINE",
"125 -185 LINE",
"237 53 LINE",
"24 479 LINE",
"59 496 LINE",
"256 98 LINE",
"442 497 LINE"
);
}
);
userData = {
com.fontlab.hintData = {
hhints = (
{
position = -202;
width = 21;
}
);
};
};
width = 490;
}
);
unicode = 00FF;
},
{
glyphname = z;
layers = (
{
layerId = master01;
paths = (
{
closed = 1;
nodes = (
"51 0 LINE",
"33 35 LINE",
"375 465 LINE",
"57 465 LINE",
"65 502 LINE",
"402 502 LINE",
"420 468 LINE",
"78 37 LINE",
"411 37 LINE",
"404 0 LINE"
);
}
);
userData = {
com.fontlab.hintData = {
hhints = (
{
position = 0;
width = 37;
},
{
position = 465;
width = 37;
}
);
};
};
width = 443;
}
);
unicode = 007A;
},
{
glyphname = zacute;
layers = (
{
layerId = master01;
paths = (
{
closed = 1;
nodes = (
"51 0 LINE",
"33 35 LINE",
"375 465 LINE",
"57 465 LINE",
"65 502 LINE",
"402 502 LINE",
"420 468 LINE",
"78 37 LINE",
"411 37 LINE",
"404 0 LINE"
);
},
{
closed = 1;
nodes = (
"291 730 LINE",
"329 698 LINE",
"176 593 LINE",
"151 617 LINE"
);
}
);
userData = {
com.fontlab.hintData = {
hhints = (
{
position = 0;
width = 37;
},
{
position = 465;
width = 37;
}
);
};
};
width = 443;
}
);
unicode = 017A;
},
{
glyphname = zcaron;
layers = (
{
layerId = master01;
paths = (
{
closed = 1;
nodes = (
"377 687 LINE",
"235 575 LINE",
"116 688 LINE",
"140 717 LINE",
"239 625 LINE",
"355 718 LINE"
);
},
{
closed = 1;
nodes = (
"51 0 LINE",
"33 35 LINE",
"375 465 LINE",
"57 465 LINE",
"65 502 LINE",
"402 502 LINE",
"420 468 LINE",
"78 37 LINE",
"411 37 LINE",
"404 0 LINE"
);
}
);
userData = {
com.fontlab.hintData = {
hhints = (
{
position = 0;
width = 37;
},
{
position = 465;
width = 37;
}
);
};
};
width = 443;
}
);
unicode = 017E;
},
{
glyphname = zdotaccent;
layers = (
{
layerId = master01;
paths = (
{
closed = 1;
nodes = (
"265 604 LINE",
"210 596 LINE",
"217 660 LINE",
"272 669 LINE"
);
},
{
closed = 1;
nodes = (
"51 0 LINE",
"33 35 LINE",
"375 465 LINE",
"57 465 LINE",
"65 502 LINE",
"402 502 LINE",
"420 468 LINE",
"78 37 LINE",
"411 37 LINE",
"404 0 LINE"
);
}
);
userData = {
com.fontlab.hintData = {
hhints = (
{
position = 0;
width = 37;
},
{
position = 465;
width = 37;
}
);
};
};
width = 443;
}
);
unicode = 017C;
},
{
glyphname = ordfeminine;
layers = (
{
layerId = master01;
paths = (
{
closed = 1;
nodes = (
"241 376 LINE",
"210 369 LINE",
"210 403 LINE",
"172 382 OFFCURVE",
"141 373 OFFCURVE",
"118 373 CURVE SMOOTH",
"51 373 OFFCURVE",
"3 429 OFFCURVE",
"3 505 CURVE SMOOTH",
"3 599 OFFCURVE",
"61 684 OFFCURVE",
"149 684 CURVE SMOOTH",
"171 684 OFFCURVE",
"211 677 OFFCURVE",
"240 661 CURVE"
);
},
{
closed = 1;
nodes = (
"212 639 LINE",
"194 649 OFFCURVE",
"168 654 OFFCURVE",
"149 654 CURVE SMOOTH",
"56 654 OFFCURVE",
"34 541 OFFCURVE",
"34 506 CURVE SMOOTH",
"34 444 OFFCURVE",
"67 403 OFFCURVE",
"116 403 CURVE SMOOTH",
"152 403 OFFCURVE",
"193 428 OFFCURVE",
"209 441 CURVE"
);
}
);
userData = {
com.fontlab.hintData = {
hhints = (
{
position = 373;
width = 30;
},
{
position = 654;
width = 30;
}
);
vhints = (
{
position = 3;
width = 31;
},
{
position = 210;
width = 31;
}
);
};
};
width = 240;
}
);
unicode = 00AA;
},
{
glyphname = ordmasculine;
layers = (
{
layerId = master01;
paths = (
{
closed = 1;
nodes = (
"54 371 OFFCURVE",
"2 438 OFFCURVE",
"2 516 CURVE SMOOTH",
"2 610 OFFCURVE",
"69 688 OFFCURVE",
"150 688 CURVE SMOOTH",
"221 688 OFFCURVE",
"277 621 OFFCURVE",
"277 543 CURVE SMOOTH",
"277 450 OFFCURVE",
"211 371 OFFCURVE",
"131 371 CURVE SMOOTH"
);
},
{
closed = 1;
nodes = (
"88 660 OFFCURVE",
"36 594 OFFCURVE",
"36 516 CURVE SMOOTH",
"36 449 OFFCURVE",
"76 398 OFFCURVE",
"131 398 CURVE SMOOTH",
"189 398 OFFCURVE",
"244 463 OFFCURVE",
"244 538 CURVE SMOOTH",
"244 598 OFFCURVE",
"205 660 OFFCURVE",
"147 660 CURVE SMOOTH"
);
}
);
userData = {
com.fontlab.hintData = {
hhints = (
{
position = 371;
width = 27;
},
{
position = 660;
width = 28;
}
);
vhints = (
{
position = 2;
width = 34;
},
{
position = 244;
width = 33;
}
);
};
};
width = 275;
}
);
unicode = 00BA;
},
{
glyphname = zero;
layers = (
{
layerId = master01;
paths = (
{
closed = 1;
nodes = (
"166 -3 OFFCURVE",
"71 151 OFFCURVE",
"71 327 CURVE SMOOTH",
"71 521 OFFCURVE",
"181 694 OFFCURVE",
"321 694 CURVE SMOOTH",
"452 694 OFFCURVE",
"546 541 OFFCURVE",
"546 362 CURVE SMOOTH",
"546 166 OFFCURVE",
"433 -3 OFFCURVE",
"297 -3 CURVE SMOOTH"
);
},
{
closed = 1;
nodes = (
"206 657 OFFCURVE",
"106 508 OFFCURVE",
"106 329 CURVE SMOOTH",
"106 175 OFFCURVE",
"184 33 OFFCURVE",
"297 33 CURVE SMOOTH",
"410 33 OFFCURVE",
"511 182 OFFCURVE",
"511 360 CURVE SMOOTH",
"511 517 OFFCURVE",
"430 657 OFFCURVE",
"321 657 CURVE SMOOTH"
);
}
);
userData = {
com.fontlab.hintData = {
hhints = (
{
position = -3;
width = 36;
},
{
position = 657;
width = 37;
}
);
vhints = (
{
position = 71;
width = 35;
},
{
position = 511;
width = 35;
}
);
};
};
width = 604;
}
);
unicode = 0030;
},
{
glyphname = one;
layers = (
{
layerId = master01;
paths = (
{
closed = 1;
nodes = (
"341 35 LINE",
"333 0 LINE",
"81 0 LINE",
"89 35 LINE",
"205 35 LINE",
"215 595 LINE",
"93 484 LINE",
"70 511 LINE",
"251 676 LINE",
"241 35 LINE"
);
}
);
userData = {
com.fontlab.hintData = {
hhints = (
{
position = 0;
width = 35;
}
);
vhints = (
{
position = 205;
width = 36;
},
{
position = 215;
width = 36;
}
);
};
};
width = 404;
}
);
unicode = 0031;
},
{
glyphname = two;
layers = (
{
layerId = master01;
paths = (
{
closed = 1;
nodes = (
"459 35 LINE",
"452 0 LINE",
"68 0 LINE",
"68 18 LINE SMOOTH",
"68 175 OFFCURVE",
"129 234 OFFCURVE",
"243 311 CURVE SMOOTH",
"364 393 OFFCURVE",
"416 454 OFFCURVE",
"416 521 CURVE SMOOTH",
"416 612 OFFCURVE",
"326 646 OFFCURVE",
"266 646 CURVE SMOOTH",
"175 646 OFFCURVE",
"115 583 OFFCURVE",
"93 554 CURVE",
"69 580 LINE",
"97 616 OFFCURVE",
"163 681 OFFCURVE",
"266 681 CURVE SMOOTH",
"408 681 OFFCURVE",
"451 585 OFFCURVE",
"451 521 CURVE SMOOTH",
"451 422 OFFCURVE",
"355 344 OFFCURVE",
"261 281 CURVE SMOOTH",
"160 214 OFFCURVE",
"110 168 OFFCURVE",
"102 35 CURVE"
);
}
);
userData = {
com.fontlab.hintData = {
hhints = (
{
position = 0;
width = 35;
},
{
position = 646;
width = 35;
}
);
vhints = (
{
position = 416;
width = 35;
}
);
};
};
width = 514;
}
);
unicode = 0032;
},
{
glyphname = three;
layers = (
{
layerId = master01;
paths = (
{
closed = 1;
nodes = (
"436 356 OFFCURVE",
"479 294 OFFCURVE",
"479 201 CURVE SMOOTH",
"479 51 OFFCURVE",
"354 -4 OFFCURVE",
"275 -4 CURVE SMOOTH",
"192 -4 OFFCURVE",
"105 35 OFFCURVE",
"73 121 CURVE",
"106 136 LINE",
"132 74 OFFCURVE",
"201 31 OFFCURVE",
"275 31 CURVE SMOOTH",
"276 31 OFFCURVE",
"441 35 OFFCURVE",
"441 201 CURVE SMOOTH",
"441 323 OFFCURVE",
"341 363 OFFCURVE",
"231 367 CURVE",
"230 403 LINE",
"351 415 OFFCURVE",
"424 474 OFFCURVE",
"424 547 CURVE SMOOTH",
"424 599 OFFCURVE",
"364 655 OFFCURVE",
"268 655 CURVE SMOOTH",
"199 655 OFFCURVE",
"146 616 OFFCURVE",
"124 597 CURVE",
"98 623 LINE",
"124 646 OFFCURVE",
"185 691 OFFCURVE",
"268 691 CURVE SMOOTH",
"377 691 OFFCURVE",
"462 627 OFFCURVE",
"462 547 CURVE SMOOTH",
"462 470 OFFCURVE",
"408 416 OFFCURVE",
"329 390 CURVE"
);
}
);
userData = {
com.fontlab.hintData = {
hhints = (
{
position = -4;
width = 35;
},
{
position = 367;
width = 36;
},
{
position = 655;
width = 36;
}
);
vhints = (
{
position = 424;
width = 38;
},
{
position = 441;
width = 38;
}
);
};
};
width = 539;
}
);
unicode = 0033;
},
{
glyphname = four;
layers = (
{
layerId = master01;
paths = (
{
closed = 1;
nodes = (
"358 2 LINE",
"358 174 LINE",
"49 179 LINE",
"392 670 LINE",
"392 206 LINE",
"459 205 LINE",
"451 172 LINE",
"392 173 LINE",
"392 9 LINE"
);
},
{
closed = 1;
nodes = (
"358 207 LINE",
"358 566 LINE",
"111 210 LINE"
);
}
);
userData = {
com.fontlab.hintData = {
hhints = (
{
position = 179;
width = 31;
}
);
vhints = (
{
position = 358;
width = 34;
}
);
};
};
width = 508;
}
);
unicode = 0034;
},
{
glyphname = five;
layers = (
{
layerId = master01;
paths = (
{
closed = 1;
nodes = (
"213 0 OFFCURVE",
"125 28 OFFCURVE",
"72 122 CURVE",
"104 134 LINE",
"138 66 OFFCURVE",
"208 34 OFFCURVE",
"263 34 CURVE SMOOTH",
"263.555 33.995 OFFCURVE",
"264.109 33.993 OFFCURVE",
"264.661 33.993 CURVE SMOOTH",
"388.082 33.993 OFFCURVE",
"464.009 145.292 OFFCURVE",
"464.009 262.08 CURVE SMOOTH",
"464.009 382.761 OFFCURVE",
"377.533 449 OFFCURVE",
"296 449 CURVE SMOOTH",
"230 449 OFFCURVE",
"167 412 OFFCURVE",
"135 365 CURVE",
"101 377 LINE",
"131 679 LINE",
"472 679 LINE",
"465 645 LINE",
"161 645 LINE",
"139 422 LINE",
"181 454 OFFCURVE",
"235 483 OFFCURVE",
"296 483 CURVE SMOOTH",
"422.5 483 OFFCURVE",
"497.008 369.206 OFFCURVE",
"497.008 257.757 CURVE SMOOTH",
"497.008 113.816 OFFCURVE",
"401.282 0 OFFCURVE",
"263 0 CURVE SMOOTH"
);
}
);
userData = {
com.fontlab.hintData = {
hhints = (
{
position = 0;
width = 34;
},
{
position = 449;
width = 34;
},
{
position = 645;
width = 34;
}
);
vhints = (
{
position = 464;
width = 33;
}
);
};
};
width = 552;
}
);
unicode = 0035;
},
{
glyphname = six;
layers = (
{
layerId = master01;
paths = (
{
closed = 1;
nodes = (
"361 656 LINE",
"264 612 OFFCURVE",
"159 506 OFFCURVE",
"115 382 CURVE",
"165 412 OFFCURVE",
"227 440 OFFCURVE",
"290 440 CURVE SMOOTH",
"310 440 OFFCURVE",
"479 433 OFFCURVE",
"479 240 CURVE SMOOTH",
"479 35 OFFCURVE",
"333 -5 OFFCURVE",
"280 -5 CURVE SMOOTH",
"130 -5 OFFCURVE",
"63 109 OFFCURVE",
"63 245 CURVE SMOOTH",
"63 447 OFFCURVE",
"175 607 OFFCURVE",
"349 687 CURVE"
);
},
{
closed = 1;
nodes = (
"98 300 OFFCURVE",
"97 272 OFFCURVE",
"97 245 CURVE SMOOTH",
"97 67 OFFCURVE",
"196 29 OFFCURVE",
"280 29 CURVE SMOOTH",
"327 29 OFFCURVE",
"446 68 OFFCURVE",
"446 240 CURVE SMOOTH",
"446 393 OFFCURVE",
"327 405 OFFCURVE",
"290 405 CURVE SMOOTH",
"189 405 OFFCURVE",
"121 347 OFFCURVE",
"102 324 CURVE"
);
}
);
userData = {
com.fontlab.hintData = {
hhints = (
{
position = -5;
width = 34;
},
{
position = 405;
width = 35;
}
);
vhints = (
{
position = 63;
width = 34;
},
{
position = 446;
width = 33;
}
);
};
};
width = 536;
}
);
unicode = 0036;
},
{
glyphname = seven;
layers = (
{
layerId = master01;
paths = (
{
closed = 1;
nodes = (
"115 20 LINE",
"434 647 LINE",
"76 647 LINE",
"68 682 LINE",
"488 682 LINE",
"145 4 LINE"
);
}
);
userData = {
com.fontlab.hintData = {
hhints = (
{
position = 647;
width = 35;
}
);
};
};
width = 491;
}
);
unicode = 0037;
},
{
glyphname = eight;
layers = (
{
layerId = master01;
paths = (
{
closed = 1;
nodes = (
"154 -3 OFFCURVE",
"69 73 OFFCURVE",
"69 176 CURVE",
"72 280 OFFCURVE",
"153 336 OFFCURVE",
"227 373 CURVE",
"161 402 OFFCURVE",
"103 447 OFFCURVE",
"103 521 CURVE SMOOTH",
"103 630 OFFCURVE",
"183 694 OFFCURVE",
"284 694 CURVE SMOOTH",
"386 694 OFFCURVE",
"459 629 OFFCURVE",
"459 537 CURVE",
"456 457 OFFCURVE",
"397 412 OFFCURVE",
"332 380 CURVE",
"423 334 OFFCURVE",
"477 265 OFFCURVE",
"477 186 CURVE SMOOTH",
"477 78 OFFCURVE",
"390 -3 OFFCURVE",
"273 -3 CURVE SMOOTH"
);
},
{
closed = 1;
nodes = (
"194 326 OFFCURVE",
"105 281 OFFCURVE",
"105 170 CURVE SMOOTH",
"105 90 OFFCURVE",
"179 33 OFFCURVE",
"273 33 CURVE SMOOTH",
"352 33 OFFCURVE",
"441 80 OFFCURVE",
"441 183 CURVE SMOOTH",
"441 277 OFFCURVE",
"353 334 OFFCURVE",
"273 358 CURVE"
);
},
{
closed = 1;
nodes = (
"375 434 OFFCURVE",
"423 466 OFFCURVE",
"423 544 CURVE SMOOTH",
"423 613 OFFCURVE",
"361 656 OFFCURVE",
"284 656 CURVE SMOOTH",
"197 656 OFFCURVE",
"138 598 OFFCURVE",
"138 525 CURVE SMOOTH",
"138 461 OFFCURVE",
"190 423 OFFCURVE",
"288 396 CURVE"
);
}
);
userData = {
com.fontlab.hintData = {
hhints = (
{
position = -3;
width = 36;
},
{
position = 656;
width = 38;
}
);
vhints = (
{
position = 69;
width = 36;
},
{
position = 103;
width = 35;
},
{
position = 423;
width = 36;
},
{
position = 441;
width = 36;
}
);
};
};
width = 537;
}
);
unicode = 0038;
},
{
glyphname = nine;
layers = (
{
layerId = master01;
paths = (
{
closed = 1;
nodes = (
"181 32 LINE",
"290 78 OFFCURVE",
"380 179 OFFCURVE",
"428 307 CURVE",
"378 277 OFFCURVE",
"315 249 OFFCURVE",
"251 249 CURVE SMOOTH",
"232 249 OFFCURVE",
"63 255 OFFCURVE",
"63 449 CURVE SMOOTH",
"63 597 OFFCURVE",
"155 694 OFFCURVE",
"264 694 CURVE SMOOTH",
"413 694 OFFCURVE",
"479 581 OFFCURVE",
"479 444 CURVE SMOOTH",
"479 210 OFFCURVE",
"335 55 OFFCURVE",
"194 0 CURVE"
);
},
{
closed = 1;
nodes = (
"443 388 OFFCURVE",
"446 417 OFFCURVE",
"446 444 CURVE SMOOTH",
"446 622 OFFCURVE",
"346 659 OFFCURVE",
"261 659 CURVE SMOOTH",
"215 659 OFFCURVE",
"97 621 OFFCURVE",
"97 449 CURVE SMOOTH",
"97 296 OFFCURVE",
"215 283 OFFCURVE",
"251 283 CURVE SMOOTH",
"352 283 OFFCURVE",
"420 341 OFFCURVE",
"440 364 CURVE"
);
}
);
userData = {
com.fontlab.hintData = {
hhints = (
{
position = 0;
width = 21;
},
{
position = 249;
width = 34;
},
{
position = 659;
width = 35;
}
);
vhints = (
{
position = 63;
width = 34;
},
{
position = 446;
width = 33;
}
);
};
};
width = 536;
}
);
unicode = 0039;
},
{
glyphname = onesuperior;
layers = (
{
layerId = master01;
paths = (
{
closed = 1;
nodes = (
"20 500 LINE",
"85 500 LINE",
"89 796 LINE",
"25 738 LINE",
"8 759 LINE",
"117 857 LINE",
"112 500 LINE",
"168 500 LINE",
"162 473 LINE",
"16 473 LINE"
);
}
);
userData = {
com.fontlab.hintData = {
hhints = (
{
position = 473;
width = 27;
}
);
vhints = (
{
position = 85;
width = 27;
}
);
};
};
width = 169;
}
);
unicode = 00B9;
},
{
glyphname = twosuperior;
layers = (
{
layerId = master01;
paths = (
{
closed = 1;
nodes = (
"5 776 LINE",
"28 806 OFFCURVE",
"72 834 OFFCURVE",
"118 834 CURVE SMOOTH",
"198 834 OFFCURVE",
"222 778 OFFCURVE",
"222 744 CURVE SMOOTH",
"222 688 OFFCURVE",
"163 639 OFFCURVE",
"118 610 CURVE SMOOTH",
"64 576 OFFCURVE",
"40 549 OFFCURVE",
"32 483 CURVE",
"227 483 LINE",
"221 457 LINE",
"6 457 LINE",
"6 470 LINE SMOOTH",
"6 551 OFFCURVE",
"37 588 OFFCURVE",
"103 632 CURVE SMOOTH",
"168 675 OFFCURVE",
"196 709 OFFCURVE",
"196 744 CURVE SMOOTH",
"196 783 OFFCURVE",
"157 807 OFFCURVE",
"118 807 CURVE SMOOTH",
"86 807 OFFCURVE",
"52 795 OFFCURVE",
"25 755 CURVE"
);
}
);
userData = {
com.fontlab.hintData = {
hhints = (
{
position = 457;
width = 26;
},
{
position = 807;
width = 27;
}
);
vhints = (
{
position = 196;
width = 26;
}
);
};
};
width = 227;
}
);
unicode = 00B2;
},
{
glyphname = threesuperior;
layers = (
{
layerId = master01;
paths = (
{
closed = 1;
nodes = (
"18 792 LINE",
"37 810 OFFCURVE",
"73 831 OFFCURVE",
"117 831 CURVE SMOOTH",
"177 831 OFFCURVE",
"220 797 OFFCURVE",
"220 751 CURVE SMOOTH",
"220 721 OFFCURVE",
"197 685 OFFCURVE",
"154 668 CURVE",
"201 652 OFFCURVE",
"228 611 OFFCURVE",
"228 569 CURVE SMOOTH",
"228 486 OFFCURVE",
"160 456 OFFCURVE",
"116 456 CURVE SMOOTH",
"78 456 OFFCURVE",
"25 471 OFFCURVE",
"5 529 CURVE",
"30 538 LINE",
"40 500 OFFCURVE",
"73 482 OFFCURVE",
"116 482 CURVE SMOOTH",
"141 482 OFFCURVE",
"202 498 OFFCURVE",
"202 569 CURVE SMOOTH",
"202 617 OFFCURVE",
"167 654 OFFCURVE",
"89 654 CURVE",
"89 679 LINE",
"130 680 OFFCURVE",
"193 697 OFFCURVE",
"193 752 CURVE SMOOTH",
"193 787 OFFCURVE",
"154 805 OFFCURVE",
"115 805 CURVE SMOOTH",
"89 805 OFFCURVE",
"63 799 OFFCURVE",
"37 774 CURVE"
);
}
);
userData = {
com.fontlab.hintData = {
hhints = (
{
position = 456;
width = 26;
},
{
position = 654;
width = 25;
},
{
position = 805;
width = 26;
}
);
vhints = (
{
position = 193;
width = 27;
},
{
position = 202;
width = 26;
}
);
};
};
width = 226;
}
);
unicode = 00B3;
},
{
glyphname = period;
layers = (
{
layerId = master01;
paths = (
{
closed = 1;
nodes = (
"131 9 LINE",
"77 1 LINE",
"83 66 LINE",
"139 74 LINE"
);
}
);
userData = {
com.fontlab.hintData = {
hhints = (
{
position = 1;
width = 73;
}
);
vhints = (
{
position = 77;
width = 62;
}
);
};
};
width = 212;
}
);
unicode = 002E;
},
{
glyphname = comma;
layers = (
{
layerId = master01;
paths = (
{
closed = 1;
nodes = (
"220 29 LINE",
"132 -125 LINE",
"100 -106 LINE",
"156 -6 LINE",
"119 16 LINE",
"162 60 LINE"
);
}
);
userData = {
com.fontlab.hintData = {
hhints = (
{
position = -125;
width = 185;
}
);
vhints = (
{
position = 100;
width = 120;
}
);
};
};
width = 307;
}
);
unicode = 002C;
},
{
glyphname = colon;
layers = (
{
layerId = master01;
paths = (
{
closed = 1;
nodes = (
"160 377 LINE",
"105 369 LINE",
"111 433 LINE",
"166 442 LINE"
);
},
{
closed = 1;
nodes = (
"131 9 LINE",
"77 1 LINE",
"83 66 LINE",
"138 74 LINE"
);
}
);
userData = {
com.fontlab.hintData = {
hhints = (
{
position = 1;
width = 21;
}
);
vhints = (
{
position = 77;
width = 89;
}
);
};
};
width = 240;
}
);
unicode = 003A;
},
{
glyphname = semicolon;
layers = (
{
layerId = master01;
paths = (
{
closed = 1;
nodes = (
"231 379 LINE",
"176 371 LINE",
"182 435 LINE",
"237 444 LINE"
);
},
{
closed = 1;
nodes = (
"220 28 LINE",
"132 -125 LINE",
"100 -106 LINE",
"156 -6 LINE",
"119 16 LINE",
"161 59 LINE"
);
}
);
userData = {
com.fontlab.hintData = {
vhints = (
{
position = 176;
width = 55;
}
);
};
};
width = 322;
}
);
unicode = 003B;
},
{
glyphname = ellipsis;
layers = (
{
layerId = master01;
paths = (
{
closed = 1;
nodes = (
"126 9 LINE",
"72 1 LINE",
"78 66 LINE",
"133 74 LINE"
);
},
{
closed = 1;
nodes = (
"393 9 LINE",
"338 1 LINE",
"345 66 LINE",
"400 74 LINE"
);
},
{
closed = 1;
nodes = (
"659 9 LINE",
"605 1 LINE",
"611 66 LINE",
"666 74 LINE"
);
}
);
userData = {
com.fontlab.hintData = {
hhints = (
{
position = 1;
width = 73;
}
);
};
};
width = 724;
}
);
unicode = 2026;
},
{
glyphname = exclam;
layers = (
{
layerId = master01;
paths = (
{
closed = 1;
nodes = (
"67 156 LINE",
"67 691 LINE",
"103 698 LINE",
"103 165 LINE"
);
},
{
closed = 1;
nodes = (
"97 9 LINE",
"61 2 LINE",
"67 66 LINE",
"104 73 LINE"
);
}
);
userData = {
com.fontlab.hintData = {
vhints = (
{
position = 67;
width = 36;
}
);
};
};
width = 175;
}
);
unicode = 0021;
},
{
glyphname = exclamdown;
layers = (
{
layerId = master01;
paths = (
{
closed = 1;
nodes = (
"97 344 LINE",
"97 -191 LINE",
"62 -198 LINE",
"62 335 LINE"
);
},
{
closed = 1;
nodes = (
"67 491 LINE",
"104 498 LINE",
"97 434 LINE",
"61 427 LINE"
);
}
);
userData = {
com.fontlab.hintData = {
vhints = (
{
position = 62;
width = 35;
}
);
};
};
width = 175;
}
);
unicode = 00A1;
},
{
glyphname = question;
layers = (
{
layerId = master01;
paths = (
{
closed = 1;
nodes = (
"194 9 LINE",
"157 2 LINE",
"163 66 LINE",
"200 73 LINE"
);
},
{
closed = 1;
nodes = (
"332 341 LINE SMOOTH",
"378 383 OFFCURVE",
"439 438 OFFCURVE",
"439 518 CURVE SMOOTH",
"439 599 OFFCURVE",
"390 686 OFFCURVE",
"254 686 CURVE SMOOTH",
"165 686 OFFCURVE",
"110 621 OFFCURVE",
"90 592 CURVE",
"65 616 LINE",
"91 652 OFFCURVE",
"154 722 OFFCURVE",
"254 722 CURVE SMOOTH",
"385 722 OFFCURVE",
"474 639 OFFCURVE",
"474 518 CURVE SMOOTH",
"474 418 OFFCURVE",
"403 356 OFFCURVE",
"352 311 CURVE SMOOTH",
"193 170 LINE",
"176 201 LINE"
);
}
);
userData = {
com.fontlab.hintData = {
hhints = (
{
position = 686;
width = 36;
}
);
vhints = (
{
position = 157;
width = 37;
},
{
position = 439;
width = 35;
}
);
};
};
width = 532;
}
);
unicode = 003F;
},
{
glyphname = questiondown;
layers = (
{
layerId = master01;
paths = (
{
closed = 1;
nodes = (
"281 713 LINE",
"318 720 LINE",
"312 656 LINE",
"275 649 LINE"
);
},
{
closed = 1;
nodes = (
"143 381 LINE SMOOTH",
"97 339 OFFCURVE",
"36 284 OFFCURVE",
"36 204 CURVE SMOOTH",
"36 123 OFFCURVE",
"85 36 OFFCURVE",
"221 36 CURVE SMOOTH",
"310 36 OFFCURVE",
"365 101 OFFCURVE",
"385 130 CURVE",
"410 106 LINE",
"384 70 OFFCURVE",
"321 0 OFFCURVE",
"221 0 CURVE SMOOTH",
"90 0 OFFCURVE",
"1 83 OFFCURVE",
"1 204 CURVE SMOOTH",
"1 304 OFFCURVE",
"72 366 OFFCURVE",
"123 411 CURVE SMOOTH",
"282 552 LINE",
"299 521 LINE"
);
}
);
userData = {
com.fontlab.hintData = {
hhints = (
{
position = 0;
width = 36;
}
);
vhints = (
{
position = 1;
width = 35;
},
{
position = 275;
width = 37;
}
);
};
};
width = 491;
}
);
unicode = 00BF;
},
{
glyphname = periodcentered;
layers = (
{
layerId = master01;
paths = (
{
closed = 1;
nodes = (
"274 225 LINE",
"220 217 LINE",
"226 281 LINE",
"281 290 LINE"
);
}
);
userData = {
com.fontlab.hintData = {
hhints = (
{
position = 217;
width = 73;
}
);
vhints = (
{
position = 220;
width = 61;
}
);
};
};
width = 490;
}
);
unicode = 00B7;
},
{
glyphname = bullet;
layers = (
{
layerId = master01;
paths = (
{
closed = 1;
nodes = (
"270 208 OFFCURVE",
"234 171 OFFCURVE",
"189 171 CURVE SMOOTH",
"144 171 OFFCURVE",
"107 208 OFFCURVE",
"107 253 CURVE SMOOTH",
"107 298 OFFCURVE",
"144 335 OFFCURVE",
"189 335 CURVE SMOOTH",
"234 335 OFFCURVE",
"270 298 OFFCURVE",
"270 253 CURVE SMOOTH"
);
}
);
userData = {
com.fontlab.hintData = {
hhints = (
{
position = 171;
width = 164;
}
);
vhints = (
{
position = 107;
width = 163;
}
);
};
};
width = 368;
}
);
unicode = 2022;
},
{
glyphname = asterisk;
layers = (
{
layerId = master01;
paths = (
{
closed = 1;
nodes = (
"195 596 OFFCURVE",
"188 628 OFFCURVE",
"188 644 CURVE SMOOTH",
"188 713 LINE",
"223 713 LINE",
"223 644 LINE SMOOTH",
"223 628 OFFCURVE",
"214 591 OFFCURVE",
"213 579 CURVE",
"230 588 OFFCURVE",
"257 604 OFFCURVE",
"273 609 CURVE SMOOTH",
"338 630 LINE",
"348 597 LINE",
"282 576 LINE SMOOTH",
"268 571 OFFCURVE",
"230 567 OFFCURVE",
"218 564 CURVE",
"232 551 OFFCURVE",
"256 530 OFFCURVE",
"265 517 CURVE SMOOTH",
"305 461 LINE",
"276 440 LINE",
"236 497 LINE",
"228 510 OFFCURVE",
"212 544 OFFCURVE",
"206 555 CURVE",
"198 538 OFFCURVE",
"185 508 OFFCURVE",
"175 495 CURVE SMOOTH",
"135 440 LINE",
"106 461 LINE",
"148 516 LINE SMOOTH",
"158 529 OFFCURVE",
"185 555 OFFCURVE",
"193 563 CURVE",
"175 566 OFFCURVE",
"143 569 OFFCURVE",
"128 575 CURVE",
"62 596 LINE",
"74 629 LINE",
"139 607 LINE SMOOTH",
"154 602 OFFCURVE",
"187 583 OFFCURVE",
"198 578 CURVE"
);
}
);
userData = {
com.fontlab.hintData = {
hhints = (
{
position = 440;
width = 273;
}
);
vhints = (
{
position = 188;
width = 35;
}
);
};
};
width = 407;
}
);
unicode = 002A;
},
{
glyphname = numbersign;
layers = (
{
layerId = master01;
paths = (
{
closed = 1;
nodes = (
"535 449 LINE",
"480 256 LINE",
"644 256 LINE",
"634 221 LINE",
"469 221 LINE",
"408 4 LINE",
"370 1 LINE",
"434 221 LINE",
"251 221 LINE",
"189 4 LINE",
"152 1 LINE",
"215 221 LINE",
"65 221 LINE",
"75 256 LINE",
"226 256 LINE",
"281 449 LINE",
"106 449 LINE",
"116 483 LINE",
"291 483 LINE",
"353 697 LINE",
"389 700 LINE",
"327 483 LINE",
"510 483 LINE",
"570 696 LINE",
"608 699 LINE",
"545 483 LINE",
"690 483 LINE",
"681 449 LINE"
);
},
{
closed = 1;
nodes = (
"500 449 LINE",
"316 449 LINE",
"261 256 LINE",
"444 256 LINE"
);
}
);
userData = {
com.fontlab.hintData = {
hhints = (
{
position = 1;
width = 21;
},
{
position = 221;
width = 35;
},
{
position = 449;
width = 34;
}
);
};
};
width = 741;
}
);
unicode = 0023;
},
{
glyphname = slash;
layers = (
{
layerId = master01;
paths = (
{
closed = 1;
nodes = (
"460 700 LINE",
"75 0 LINE",
"36 0 LINE",
"420 700 LINE"
);
}
);
userData = {
com.fontlab.hintData = {
hhints = (
{
position = 0;
width = 21;
}
);
};
};
width = 482;
}
);
unicode = 002F;
},
{
glyphname = backslash;
layers = (
{
layerId = master01;
paths = (
{
closed = 1;
nodes = (
"459 0 LINE",
"419 0 LINE",
"35 701 LINE",
"74 701 LINE"
);
}
);
userData = {
com.fontlab.hintData = {
hhints = (
{
position = 0;
width = 21;
}
);
};
};
width = 482;
}
);
unicode = 005C;
},
{
glyphname = parenleft;
layers = (
{
layerId = master01;
paths = (
{
closed = 1;
nodes = (
"259 -119 LINE",
"137 4 OFFCURVE",
"69 200 OFFCURVE",
"69 356 CURVE SMOOTH",
"69 525 OFFCURVE",
"149 705 OFFCURVE",
"281 819 CURVE",
"303 792 LINE",
"187 691 OFFCURVE",
"105 528 OFFCURVE",
"105 356 CURVE SMOOTH",
"105 196 OFFCURVE",
"180 10 OFFCURVE",
"284 -94 CURVE"
);
}
);
userData = {
com.fontlab.hintData = {
vhints = (
{
position = 69;
width = 36;
}
);
};
};
width = 367;
}
);
unicode = 0028;
},
{
glyphname = parenright;
layers = (
{
layerId = master01;
paths = (
{
closed = 1;
nodes = (
"94 819 LINE",
"258 674 OFFCURVE",
"305 477 OFFCURVE",
"305 344 CURVE SMOOTH",
"305 181 OFFCURVE",
"234 9 OFFCURVE",
"113 -118 CURVE",
"91 -91 LINE",
"202 29 OFFCURVE",
"269 189 OFFCURVE",
"269 344 CURVE SMOOTH",
"269 600 OFFCURVE",
"113 752 OFFCURVE",
"68 794 CURVE"
);
}
);
userData = {
com.fontlab.hintData = {
vhints = (
{
position = 269;
width = 36;
}
);
};
};
width = 367;
}
);
unicode = 0029;
},
{
glyphname = braceleft;
layers = (
{
layerId = master01;
paths = (
{
closed = 1;
nodes = (
"69 371 LINE",
"116 390 OFFCURVE",
"146 428 OFFCURVE",
"146 482 CURVE SMOOTH",
"146 679 LINE SMOOTH",
"146 781 OFFCURVE",
"244 818 OFFCURVE",
"306 823 CURVE",
"304 787 LINE",
"234 782 OFFCURVE",
"182 743 OFFCURVE",
"182 679 CURVE SMOOTH",
"182 483 LINE SMOOTH",
"182 452 OFFCURVE",
"172 400 OFFCURVE",
"114 354 CURVE",
"152 326 OFFCURVE",
"182 281 OFFCURVE",
"182 225 CURVE SMOOTH",
"182 14 LINE SMOOTH",
"182 -45 OFFCURVE",
"222 -84 OFFCURVE",
"307 -94 CURVE",
"305 -130 LINE",
"244 -126 OFFCURVE",
"146 -92 OFFCURVE",
"146 14 CURVE SMOOTH",
"146 233 LINE SMOOTH",
"146 280 OFFCURVE",
"113 322 OFFCURVE",
"69 337 CURVE"
);
}
);
userData = {
com.fontlab.hintData = {
hhints = (
{
position = -130;
width = 36;
},
{
position = 787;
width = 36;
}
);
vhints = (
{
position = 146;
width = 36;
}
);
};
};
width = 364;
}
);
unicode = 007B;
},
{
glyphname = braceright;
layers = (
{
layerId = master01;
paths = (
{
closed = 1;
nodes = (
"296 322 LINE",
"249 304 OFFCURVE",
"219 265 OFFCURVE",
"219 211 CURVE SMOOTH",
"219 14 LINE SMOOTH",
"219 -88 OFFCURVE",
"121 -125 OFFCURVE",
"59 -130 CURVE",
"61 -94 LINE",
"131 -89 OFFCURVE",
"183 -50 OFFCURVE",
"183 14 CURVE SMOOTH",
"183 210 LINE SMOOTH",
"183 241 OFFCURVE",
"193 293 OFFCURVE",
"251 339 CURVE",
"213 367 OFFCURVE",
"183 412 OFFCURVE",
"183 468 CURVE SMOOTH",
"183 679 LINE SMOOTH",
"183 738 OFFCURVE",
"143 777 OFFCURVE",
"58 787 CURVE",
"60 823 LINE",
"121 819 OFFCURVE",
"219 785 OFFCURVE",
"219 679 CURVE SMOOTH",
"219 460 LINE SMOOTH",
"219 413 OFFCURVE",
"252 371 OFFCURVE",
"296 356 CURVE"
);
}
);
userData = {
com.fontlab.hintData = {
hhints = (
{
position = -130;
width = 36;
},
{
position = 787;
width = 36;
}
);
vhints = (
{
position = 183;
width = 36;
}
);
};
};
width = 364;
}
);
unicode = 007D;
},
{
glyphname = bracketleft;
layers = (
{
layerId = master01;
paths = (
{
closed = 1;
nodes = (
"71 -129 LINE",
"71 818 LINE",
"249 818 LINE",
"242 782 LINE",
"106 782 LINE",
"106 -94 LINE",
"233 -94 LINE",
"226 -129 LINE"
);
}
);
userData = {
com.fontlab.hintData = {
hhints = (
{
position = -129;
width = 35;
},
{
position = 782;
width = 36;
}
);
vhints = (
{
position = 71;
width = 35;
}
);
};
};
width = 305;
}
);
unicode = 005B;
},
{
glyphname = bracketright;
layers = (
{
layerId = master01;
paths = (
{
closed = 1;
nodes = (
"246 818 LINE",
"246 -129 LINE",
"68 -129 LINE",
"75 -94 LINE",
"210 -94 LINE",
"210 782 LINE",
"83 782 LINE",
"92 818 LINE"
);
}
);
userData = {
com.fontlab.hintData = {
hhints = (
{
position = -129;
width = 35;
},
{
position = 782;
width = 36;
}
);
vhints = (
{
position = 210;
width = 36;
}
);
};
};
width = 305;
}
);
unicode = 005D;
},
{
glyphname = hyphen;
layers = (
{
layerId = master01;
paths = (
{
closed = 1;
nodes = (
"77 232 LINE",
"84 268 LINE",
"366 268 LINE",
"359 232 LINE"
);
}
);
userData = {
com.fontlab.hintData = {
hhints = (
{
position = 232;
width = 36;
}
);
vhints = (
{
position = 77;
width = 289;
}
);
};
};
width = 432;
}
);
unicode = 002D;
},
{
glyphname = uni00AD;
layers = (
{
layerId = master01;
paths = (
{
closed = 1;
nodes = (
"359 236 LINE",
"77 236 LINE",
"84 272 LINE",
"366 272 LINE"
);
}
);
userData = {
com.fontlab.hintData = {
hhints = (
{
position = 236;
width = 36;
}
);
vhints = (
{
position = 77;
width = 289;
}
);
};
};
width = 432;
}
);
unicode = 00AD;
},
{
glyphname = endash;
layers = (
{
layerId = master01;
paths = (
{
closed = 1;
nodes = (
"75 231 LINE",
"83 267 LINE",
"525 267 LINE",
"517 231 LINE"
);
}
);
userData = {
com.fontlab.hintData = {
hhints = (
{
position = 231;
width = 36;
}
);
};
};
width = 586;
}
);
unicode = 2013;
},
{
glyphname = emdash;
layers = (
{
layerId = master01;
paths = (
{
closed = 1;
nodes = (
"72 231 LINE",
"80 269 LINE",
"815 269 LINE",
"808 231 LINE"
);
}
);
userData = {
com.fontlab.hintData = {
hhints = (
{
position = 231;
width = 38;
}
);
};
};
width = 867;
}
);
unicode = 2014;
},
{
glyphname = underscore;
layers = (
{
layerId = master01;
paths = (
{
closed = 1;
nodes = (
"-16 -56 LINE",
"-9 -21 LINE",
"480 -21 LINE",
"473 -56 LINE"
);
}
);
userData = {
com.fontlab.hintData = {
hhints = (
{
position = -56;
width = 35;
}
);
};
};
width = 466;
}
);
unicode = 005F;
},
{
glyphname = quotesinglbase;
layers = (
{
layerId = master01;
paths = (
{
closed = 1;
nodes = (
"218 31 LINE",
"132 -124 LINE",
"100 -106 LINE",
"156 -6 LINE",
"118 16 LINE",
"161 61 LINE"
);
}
);
userData = {
com.fontlab.hintData = {
hhints = (
{
position = -124;
width = 185;
}
);
vhints = (
{
position = 100;
width = 118;
}
);
};
};
width = 305;
}
);
unicode = 201A;
},
{
glyphname = quotedblbase;
layers = (
{
layerId = master01;
paths = (
{
closed = 1;
nodes = (
"219 31 LINE",
"132 -124 LINE",
"100 -106 LINE",
"156 -6 LINE",
"119 16 LINE",
"161 61 LINE"
);
},
{
closed = 1;
nodes = (
"391 31 LINE",
"305 -124 LINE",
"273 -106 LINE",
"329 -6 LINE",
"291 16 LINE",
"334 61 LINE"
);
}
);
userData = {
com.fontlab.hintData = {
hhints = (
{
position = -124;
width = 185;
}
);
vhints = (
{
position = 100;
width = 291;
}
);
};
};
width = 478;
}
);
unicode = 201E;
},
{
glyphname = quotedblleft;
layers = (
{
layerId = master01;
paths = (
{
closed = 1;
nodes = (
"200 600 LINE",
"286 755 LINE",
"318 736 LINE",
"262 636 LINE",
"300 614 LINE",
"257 570 LINE"
);
},
{
closed = 1;
nodes = (
"27 600 LINE",
"113 755 LINE",
"146 736 LINE",
"89 636 LINE",
"127 614 LINE",
"84 570 LINE"
);
}
);
userData = {
com.fontlab.hintData = {
hhints = (
{
position = 570;
width = 185;
}
);
vhints = (
{
position = 27;
width = 291;
}
);
};
};
width = 338;
}
);
unicode = 201C;
},
{
glyphname = quotedblright;
layers = (
{
layerId = master01;
paths = (
{
closed = 1;
nodes = (
"146 726 LINE",
"59 571 LINE",
"27 589 LINE",
"83 689 LINE",
"46 711 LINE",
"88 756 LINE"
);
},
{
closed = 1;
nodes = (
"318 726 LINE",
"232 571 LINE",
"200 589 LINE",
"256 689 LINE",
"218 711 LINE",
"261 756 LINE"
);
}
);
userData = {
com.fontlab.hintData = {
hhints = (
{
position = 571;
width = 185;
}
);
vhints = (
{
position = 27;
width = 291;
}
);
};
};
width = 338;
}
);
unicode = 201D;
},
{
glyphname = quoteleft;
layers = (
{
layerId = master01;
paths = (
{
closed = 1;
nodes = (
"29 600 LINE",
"115 755 LINE",
"147 736 LINE",
"91 636 LINE",
"129 614 LINE",
"86 570 LINE"
);
}
);
userData = {
com.fontlab.hintData = {
hhints = (
{
position = 570;
width = 185;
}
);
vhints = (
{
position = 29;
width = 118;
}
);
};
};
width = 172;
}
);
unicode = 2018;
},
{
glyphname = quoteright;
layers = (
{
layerId = master01;
paths = (
{
closed = 1;
nodes = (
"147 726 LINE",
"61 571 LINE",
"29 589 LINE",
"85 689 LINE",
"47 711 LINE",
"90 756 LINE"
);
}
);
userData = {
com.fontlab.hintData = {
hhints = (
{
position = 571;
width = 185;
}
);
vhints = (
{
position = 29;
width = 118;
}
);
};
};
width = 172;
}
);
unicode = 2019;
},
{
glyphname = guillemotleft;
layers = (
{
layerId = master01;
paths = (
{
closed = 1;
nodes = (
"79 251 LINE",
"294 435 LINE",
"318 409 LINE",
"132 251 LINE",
"300 100 LINE",
"277 73 LINE"
);
},
{
closed = 1;
nodes = (
"293 251 LINE",
"507 435 LINE",
"531 409 LINE",
"346 251 LINE",
"514 100 LINE",
"491 73 LINE"
);
}
);
width = 599;
}
);
unicode = 00AB;
},
{
glyphname = guillemotright;
layers = (
{
layerId = master01;
paths = (
{
closed = 1;
nodes = (
"313 99 LINE",
"480 252 LINE",
"296 410 LINE",
"319 435 LINE",
"534 251 LINE",
"335 73 LINE"
);
},
{
closed = 1;
nodes = (
"99 99 LINE",
"267 252 LINE",
"82 410 LINE",
"105 435 LINE",
"321 251 LINE",
"124 73 LINE"
);
}
);
width = 599;
}
);
unicode = 00BB;
},
{
glyphname = guilsinglleft;
layers = (
{
layerId = master01;
paths = (
{
closed = 1;
nodes = (
"81 249 LINE",
"296 433 LINE",
"320 407 LINE",
"135 249 LINE",
"302 98 LINE",
"279 71 LINE"
);
}
);
userData = {
com.fontlab.hintData = {
vhints = (
{
position = 81;
width = 239;
}
);
};
};
width = 394;
}
);
unicode = 2039;
},
{
glyphname = guilsinglright;
layers = (
{
layerId = master01;
paths = (
{
closed = 1;
nodes = (
"101 99 LINE",
"269 252 LINE",
"85 410 LINE",
"107 435 LINE",
"323 251 LINE",
"126 73 LINE"
);
}
);
userData = {
com.fontlab.hintData = {
vhints = (
{
position = 85;
width = 238;
}
);
};
};
width = 394;
}
);
unicode = 203A;
},
{
glyphname = quotedbl;
layers = (
{
layerId = master01;
paths = (
{
closed = 1;
nodes = (
"74 523 LINE",
"74 688 LINE",
"109 696 LINE",
"109 530 LINE"
);
},
{
closed = 1;
nodes = (
"199 523 LINE",
"199 688 LINE",
"234 696 LINE",
"234 530 LINE"
);
}
);
userData = {
com.fontlab.hintData = {
hhints = (
{
position = 523;
width = 173;
}
);
vhints = (
{
position = 74;
width = 35;
},
{
position = 199;
width = 35;
}
);
};
};
width = 302;
}
);
unicode = 0022;
},
{
glyphname = quotesingle;
layers = (
{
layerId = master01;
paths = (
{
closed = 1;
nodes = (
"74 523 LINE",
"74 688 LINE",
"110 696 LINE",
"110 530 LINE"
);
}
);
userData = {
com.fontlab.hintData = {
hhints = (
{
position = 523;
width = 173;
}
);
vhints = (
{
position = 74;
width = 36;
}
);
};
};
width = 178;
}
);
unicode = 0027;
},
{
glyphname = .notdef;
layers = (
{
layerId = master01;
paths = (
{
closed = 1;
nodes = (
"475 681 LINE",
"475 0 LINE",
"20 0 LINE",
"20 681 LINE"
);
},
{
closed = 1;
nodes = (
"41 655 LINE",
"41 46 LINE",
"234 342 LINE"
);
},
{
closed = 1;
nodes = (
"246 361 LINE",
"442 660 LINE",
"62 660 LINE"
);
},
{
closed = 1;
nodes = (
"50 21 LINE",
"430 21 LINE",
"246 320 LINE"
);
},
{
closed = 1;
nodes = (
"455 21 LINE",
"455 641 LINE",
"258 339 LINE"
);
}
);
userData = {
com.fontlab.hintData = {
hhints = (
{
position = 0;
width = 21;
},
{
position = 660;
width = 21;
}
);
vhints = (
{
position = 20;
width = 21;
},
{
position = 455;
width = 20;
}
);
};
};
width = 490;
}
);
},
{
glyphname = Euro;
layers = (
{
layerId = master01;
paths = (
{
closed = 1;
nodes = (
"286 0 OFFCURVE",
"155 126 OFFCURVE",
"145 272 CURVE",
"64 272 LINE",
"71 310 LINE",
"145 310 LINE",
"148 346 OFFCURVE",
"152 376 OFFCURVE",
"157 401 CURVE",
"64 401 LINE",
"71 440 LINE",
"169 440 LINE",
"191 514 OFFCURVE",
"291 699 OFFCURVE",
"441 699 CURVE SMOOTH",
"503 699 OFFCURVE",
"556 681 OFFCURVE",
"597 646 CURVE",
"572 622 LINE",
"541 645 OFFCURVE",
"497 663 OFFCURVE",
"436 663 CURVE SMOOTH",
"333 663 OFFCURVE",
"237 528 OFFCURVE",
"205 440 CURVE",
"444 440 LINE",
"437 401 LINE",
"192 401 LINE",
"185 370 OFFCURVE",
"181 340 OFFCURVE",
"178 310 CURVE",
"424 310 LINE",
"415 272 LINE",
"180 272 LINE",
"189 156 OFFCURVE",
"306 35 OFFCURVE",
"422 35 CURVE SMOOTH",
"483 35 OFFCURVE",
"528 48 OFFCURVE",
"563 69 CURVE",
"588 44 LINE",
"543 15 OFFCURVE",
"487 0 OFFCURVE",
"429 0 CURVE SMOOTH"
);
}
);
userData = {
com.fontlab.hintData = {
hhints = (
{
position = 0;
width = 35;
},
{
position = 272;
width = 38;
},
{
position = 401;
width = 39;
},
{
position = 663;
width = 36;
}
);
vhints = (
{
position = 145;
width = 35;
}
);
};
};
width = 653;
}
);
unicode = 20AC;
},
{
glyphname = cent;
layers = (
{
layerId = master01;
paths = (
{
closed = 1;
nodes = (
"265 15 LINE",
"234 4 LINE",
"236 103 LINE",
"118 128 OFFCURVE",
"53 221 OFFCURVE",
"53 317 CURVE SMOOTH",
"53 430 OFFCURVE",
"123 563 OFFCURVE",
"248 601 CURVE",
"250 681 LINE",
"282 691 LINE",
"280 603 LINE",
"339 603 OFFCURVE",
"388 578 OFFCURVE",
"420 539 CURVE",
"393 513 LINE",
"368 546 OFFCURVE",
"327 571 OFFCURVE",
"278 571 CURVE",
"268 134 LINE",
"335 134 OFFCURVE",
"394 170 OFFCURVE",
"426 216 CURVE",
"451 191 LINE",
"414 136 OFFCURVE",
"351 104 OFFCURVE",
"267 101 CURVE"
);
},
{
closed = 1;
nodes = (
"247 568 LINE",
"127 522 OFFCURVE",
"88 390 OFFCURVE",
"88 317 CURVE SMOOTH",
"88 239 OFFCURVE",
"138 159 OFFCURVE",
"237 136 CURVE"
);
}
);
userData = {
com.fontlab.hintData = {
hhints = (
{
position = 101;
width = 33;
},
{
position = 513;
width = 21;
},
{
position = 571;
width = 32;
}
);
vhints = (
{
position = 53;
width = 35;
},
{
position = 234;
width = 31;
},
{
position = 248;
width = 32;
}
);
};
};
width = 496;
}
);
unicode = 00A2;
},
{
glyphname = currency;
layers = (
{
layerId = master01;
paths = (
{
closed = 1;
nodes = (
"405 218 OFFCURVE",
"393 184 OFFCURVE",
"372 154 CURVE",
"444 82 LINE",
"421 59 LINE",
"349 130 LINE",
"319 108 OFFCURVE",
"284 95 OFFCURVE",
"250 95 CURVE SMOOTH",
"215 95 OFFCURVE",
"180 108 OFFCURVE",
"150 130 CURVE",
"78 58 LINE",
"55 81 LINE",
"128 154 LINE",
"106 184 OFFCURVE",
"94 218 OFFCURVE",
"94 251 CURVE SMOOTH",
"94 284 OFFCURVE",
"108 320 OFFCURVE",
"129 350 CURVE",
"55 425 LINE",
"78 448 LINE",
"153 373 LINE",
"184 395 OFFCURVE",
"217 406 OFFCURVE",
"250 406 CURVE SMOOTH",
"284 406 OFFCURVE",
"317 395 OFFCURVE",
"347 373 CURVE",
"421 448 LINE",
"444 425 LINE",
"370 350 LINE",
"393 320 OFFCURVE",
"405 285 OFFCURVE",
"405 251 CURVE SMOOTH"
);
},
{
closed = 1;
nodes = (
"319 127 OFFCURVE",
"373 182 OFFCURVE",
"373 251 CURVE SMOOTH",
"373 320 OFFCURVE",
"319 374 OFFCURVE",
"250 374 CURVE SMOOTH",
"181 374 OFFCURVE",
"126 320 OFFCURVE",
"126 251 CURVE SMOOTH",
"126 182 OFFCURVE",
"181 127 OFFCURVE",
"250 127 CURVE SMOOTH"
);
}
);
userData = {
com.fontlab.hintData = {
hhints = (
{
position = 95;
width = 32;
},
{
position = 374;
width = 32;
}
);
vhints = (
{
position = 94;
width = 32;
},
{
position = 373;
width = 32;
}
);
};
};
width = 490;
}
);
unicode = 00A4;
},
{
glyphname = dollar;
layers = (
{
layerId = master01;
paths = (
{
closed = 1;
nodes = (
"329 381 LINE",
"469 340 OFFCURVE",
"543 275 OFFCURVE",
"543 189 CURVE SMOOTH",
"543 80 OFFCURVE",
"442 12 OFFCURVE",
"329 0 CURVE",
"329 -69 LINE",
"295 -76 LINE",
"295 -1 LINE",
"186 7 OFFCURVE",
"99 58 OFFCURVE",
"69 140 CURVE",
"113 147 LINE",
"143 81 OFFCURVE",
"221 48 OFFCURVE",
"295 39 CURVE",
"295 350 LINE",
"201 379 OFFCURVE",
"103 431 OFFCURVE",
"103 521 CURVE SMOOTH",
"103 637 OFFCURVE",
"213 681 OFFCURVE",
"295 685 CURVE",
"295 752 LINE",
"329 759 LINE",
"329 688 LINE",
"402 686 OFFCURVE",
"540 664 OFFCURVE",
"540 551 CURVE SMOOTH",
"540 542 LINE",
"505 533 LINE",
"505 545 LINE SMOOTH",
"505 618 OFFCURVE",
"418 646 OFFCURVE",
"329 647 CURVE"
);
},
{
closed = 1;
nodes = (
"149 466 OFFCURVE",
"191 427 OFFCURVE",
"295 391 CURVE",
"295 645 LINE",
"176 631 OFFCURVE",
"149 568 OFFCURVE",
"149 521 CURVE SMOOTH"
);
},
{
closed = 1;
nodes = (
"498 276 OFFCURVE",
"415 310 OFFCURVE",
"329 340 CURVE",
"329 39 LINE",
"387 49 OFFCURVE",
"498 80 OFFCURVE",
"498 187 CURVE SMOOTH"
);
}
);
userData = {
com.fontlab.hintData = {
hhints = (
{
position = -1;
width = 40;
},
{
position = 647;
width = 41;
}
);
vhints = (
{
position = 103;
width = 46;
},
{
position = 295;
width = 34;
},
{
position = 498;
width = 45;
},
{
position = 505;
width = 35;
}
);
};
};
width = 595;
}
);
unicode = 0024;
},
{
glyphname = sterling;
layers = (
{
layerId = master01;
paths = (
{
closed = 1;
nodes = (
"694 134 LINE",
"670 15 OFFCURVE",
"584 -10 OFFCURVE",
"542 -10 CURVE SMOOTH",
"492 -10 OFFCURVE",
"432 13 OFFCURVE",
"379 50 CURVE SMOOTH",
"356 66 OFFCURVE",
"336 74 OFFCURVE",
"309 74 CURVE SMOOTH",
"284 74 OFFCURVE",
"219 57 OFFCURVE",
"162 5 CURVE",
"139 30 LINE",
"197 77 OFFCURVE",
"229 150 OFFCURVE",
"229 194 CURVE SMOOTH",
"229 229 OFFCURVE",
"226 265 OFFCURVE",
"203 342 CURVE",
"76 342 LINE",
"83 376 LINE",
"192 376 LINE",
"184 424 OFFCURVE",
"182 460 OFFCURVE",
"182 492 CURVE SMOOTH",
"182 653 OFFCURVE",
"265 735 OFFCURVE",
"415 735 CURVE SMOOTH",
"580 735 OFFCURVE",
"630 611 OFFCURVE",
"638 538 CURVE",
"603 534 LINE",
"586 634 OFFCURVE",
"530 700 OFFCURVE",
"410 700 CURVE SMOOTH",
"281 700 OFFCURVE",
"218 633 OFFCURVE",
"218 491 CURVE SMOOTH",
"218 460 OFFCURVE",
"219 425 OFFCURVE",
"229 376 CURVE",
"496 376 LINE",
"489 342 LINE",
"235 342 LINE",
"258 260 OFFCURVE",
"264 221 OFFCURVE",
"264 204 CURVE SMOOTH",
"264 168 OFFCURVE",
"258 135 OFFCURVE",
"236 93 CURVE",
"270 105 OFFCURVE",
"292 109 OFFCURVE",
"309 109 CURVE SMOOTH",
"346 109 OFFCURVE",
"371 95 OFFCURVE",
"400 77 CURVE SMOOTH",
"448 47 OFFCURVE",
"496 25 OFFCURVE",
"540 25 CURVE SMOOTH",
"606 25 OFFCURVE",
"640 64 OFFCURVE",
"659 140 CURVE"
);
}
);
userData = {
com.fontlab.hintData = {
hhints = (
{
position = -10;
width = 35;
},
{
position = 74;
width = 35;
},
{
position = 342;
width = 34;
},
{
position = 700;
width = 35;
}
);
vhints = (
{
position = 182;
width = 36;
},
{
position = 229;
width = 35;
},
{
position = 603;
width = 35;
},
{
position = 659;
width = 35;
}
);
};
};
width = 754;
}
);
unicode = 00A3;
},
{
glyphname = yen;
layers = (
{
layerId = master01;
paths = (
{
closed = 1;
nodes = (
"113 300 LINE",
"120 334 LINE",
"243 334 LINE",
"71 697 LINE",
"111 697 LINE",
"286 328 LINE",
"471 697 LINE",
"511 697 LINE",
"327 334 LINE",
"456 334 LINE",
"448 300 LINE",
"302 300 LINE",
"302 175 LINE",
"456 175 LINE",
"448 140 LINE",
"302 140 LINE",
"302 9 LINE",
"267 2 LINE",
"267 140 LINE",
"113 140 LINE",
"120 175 LINE",
"267 175 LINE",
"267 300 LINE"
);
}
);
userData = {
com.fontlab.hintData = {
hhints = (
{
position = 140;
width = 35;
},
{
position = 300;
width = 34;
}
);
vhints = (
{
position = 267;
width = 35;
}
);
};
};
width = 575;
}
);
unicode = 00A5;
},
{
glyphname = plus;
layers = (
{
layerId = master01;
paths = (
{
closed = 1;
nodes = (
"373 233 LINE",
"237 233 LINE",
"237 98 LINE",
"202 91 LINE",
"202 233 LINE",
"59 233 LINE",
"66 269 LINE",
"202 269 LINE",
"202 399 LINE",
"237 407 LINE",
"237 269 LINE",
"381 269 LINE"
);
}
);
userData = {
com.fontlab.hintData = {
hhints = (
{
position = 233;
width = 36;
}
);
vhints = (
{
position = 202;
width = 35;
}
);
};
};
width = 431;
}
);
unicode = 002B;
},
